<mxfile host="app.diagrams.net" agent="Mozilla/5.0 (Macintosh; Intel Mac OS X 10.15; rv:133.0) Gecko/20100101 Firefox/133.0" version="25.0.3">
  <diagram name="Page-1" id="78sKbAdPxCWYyD5-eGmq">
    <mxGraphModel dx="3060" dy="5205" grid="1" gridSize="10" guides="1" tooltips="1" connect="1" arrows="1" fold="1" page="0" pageScale="1" pageWidth="827" pageHeight="1169" background="none" math="0" shadow="0">
      <root>
        <mxCell id="0" />
        <mxCell id="1" parent="0" />
        <mxCell id="JTD2nMqXW6SRApvUT_TU-1" value="&lt;div&gt;&lt;br/&gt;&lt;/div&gt;" style="swimlane;html=1;childLayout=stackLayout;resizeParent=1;resizeParentMax=0;horizontal=0;startSize=20;horizontalStack=0;whiteSpace=wrap;labelBackgroundColor=none;strokeWidth=3;" parent="1" vertex="1">
          <mxGeometry x="110" y="-410" width="4350" height="270" as="geometry" />
        </mxCell>
        <mxCell id="JTD2nMqXW6SRApvUT_TU-3" value="Service Provider" style="swimlane;html=1;startSize=20;horizontal=0;fillColor=default;swimlaneFillColor=none;labelBackgroundColor=none;strokeWidth=2;" parent="JTD2nMqXW6SRApvUT_TU-1" vertex="1">
          <mxGeometry x="20" width="4330" height="270" as="geometry" />
        </mxCell>
        <mxCell id="JTD2nMqXW6SRApvUT_TU-27" value="PrÃ¼fung Cookies auf&lt;font face=&quot;Courier New&quot;&gt; shibsession&lt;/font&gt;" style="points=[[0.25,0,0],[0.5,0,0],[0.75,0,0],[1,0.25,0],[1,0.5,0],[1,0.75,0],[0.75,1,0],[0.5,1,0],[0.25,1,0],[0,0.75,0],[0,0.5,0],[0,0.25,0]];shape=mxgraph.bpmn.task;whiteSpace=wrap;rectStyle=rounded;size=10;html=1;container=1;expand=0;collapsible=0;taskMarker=abstract;labelBackgroundColor=none;fillColor=#d5e8d4;strokeColor=#82b366;" parent="JTD2nMqXW6SRApvUT_TU-3" vertex="1">
          <mxGeometry x="280" y="15" width="120" height="80" as="geometry" />
        </mxCell>
        <mxCell id="JTD2nMqXW6SRApvUT_TU-31" value="" style="points=[[0.25,0.25,0],[0.5,0,0],[0.75,0.25,0],[1,0.5,0],[0.75,0.75,0],[0.5,1,0],[0.25,0.75,0],[0,0.5,0]];shape=mxgraph.bpmn.gateway2;html=1;verticalLabelPosition=bottom;labelBackgroundColor=none;verticalAlign=top;align=center;perimeter=rhombusPerimeter;outlineConnect=0;outline=none;symbol=none;gwType=exclusive;fillColor=#d5e8d4;strokeColor=#82b366;" parent="JTD2nMqXW6SRApvUT_TU-3" vertex="1">
          <mxGeometry x="465" y="30" width="50" height="50" as="geometry" />
        </mxCell>
        <mxCell id="JTD2nMqXW6SRApvUT_TU-32" style="edgeStyle=orthogonalEdgeStyle;rounded=0;orthogonalLoop=1;jettySize=auto;html=1;entryX=0;entryY=0.5;entryDx=0;entryDy=0;entryPerimeter=0;labelBackgroundColor=none;" parent="JTD2nMqXW6SRApvUT_TU-3" source="JTD2nMqXW6SRApvUT_TU-27" target="JTD2nMqXW6SRApvUT_TU-31" edge="1">
          <mxGeometry relative="1" as="geometry" />
        </mxCell>
        <mxCell id="JTD2nMqXW6SRApvUT_TU-44" style="edgeStyle=orthogonalEdgeStyle;rounded=0;orthogonalLoop=1;jettySize=auto;html=1;entryX=0.5;entryY=0;entryDx=0;entryDy=0;entryPerimeter=0;verticalAlign=middle;labelBackgroundColor=none;" parent="JTD2nMqXW6SRApvUT_TU-3" source="JTD2nMqXW6SRApvUT_TU-31" target="JTD2nMqXW6SRApvUT_TU-52" edge="1">
          <mxGeometry relative="1" as="geometry">
            <mxPoint x="490" y="140" as="targetPoint" />
          </mxGeometry>
        </mxCell>
        <mxCell id="JTD2nMqXW6SRApvUT_TU-45" value="&lt;div&gt;keine aktive&lt;/div&gt;&lt;div&gt;Shibboleth-Session&lt;/div&gt;" style="edgeLabel;html=1;align=center;verticalAlign=middle;resizable=0;points=[];labelBackgroundColor=none;" parent="JTD2nMqXW6SRApvUT_TU-44" vertex="1" connectable="0">
          <mxGeometry x="0.15" y="2" relative="1" as="geometry">
            <mxPoint as="offset" />
          </mxGeometry>
        </mxCell>
        <mxCell id="JTD2nMqXW6SRApvUT_TU-48" value="" style="points=[[0.145,0.145,0],[0.5,0,0],[0.855,0.145,0],[1,0.5,0],[0.855,0.855,0],[0.5,1,0],[0.145,0.855,0],[0,0.5,0]];shape=mxgraph.bpmn.event;html=1;verticalLabelPosition=bottom;labelBackgroundColor=none;verticalAlign=top;align=center;perimeter=ellipsePerimeter;outlineConnect=0;aspect=fixed;outline=standard;symbol=message;fillColor=#d5e8d4;strokeColor=#82b366;" parent="JTD2nMqXW6SRApvUT_TU-3" vertex="1">
          <mxGeometry x="185" y="30" width="50" height="50" as="geometry" />
        </mxCell>
        <mxCell id="JTD2nMqXW6SRApvUT_TU-49" style="edgeStyle=orthogonalEdgeStyle;rounded=0;orthogonalLoop=1;jettySize=auto;html=1;entryX=0;entryY=0.5;entryDx=0;entryDy=0;entryPerimeter=0;labelBackgroundColor=none;" parent="JTD2nMqXW6SRApvUT_TU-3" source="JTD2nMqXW6SRApvUT_TU-48" target="JTD2nMqXW6SRApvUT_TU-27" edge="1">
          <mxGeometry relative="1" as="geometry" />
        </mxCell>
        <mxCell id="JTD2nMqXW6SRApvUT_TU-52" value="Redirect" style="points=[[0.25,0,0],[0.5,0,0],[0.75,0,0],[1,0.25,0],[1,0.5,0],[1,0.75,0],[0.75,1,0],[0.5,1,0],[0.25,1,0],[0,0.75,0],[0,0.5,0],[0,0.25,0]];shape=mxgraph.bpmn.task;whiteSpace=wrap;rectStyle=rounded;size=10;html=1;container=1;expand=0;collapsible=0;taskMarker=send;labelBackgroundColor=none;fillColor=#d5e8d4;strokeColor=#82b366;" parent="JTD2nMqXW6SRApvUT_TU-3" vertex="1">
          <mxGeometry x="430" y="150" width="120" height="80" as="geometry" />
        </mxCell>
        <mxCell id="JTD2nMqXW6SRApvUT_TU-17" style="edgeStyle=orthogonalEdgeStyle;rounded=0;orthogonalLoop=1;jettySize=auto;html=1;entryX=0;entryY=0.5;entryDx=0;entryDy=0;entryPerimeter=0;exitX=1;exitY=0.5;exitDx=0;exitDy=0;exitPerimeter=0;labelBackgroundColor=none;" parent="JTD2nMqXW6SRApvUT_TU-3" source="JTD2nMqXW6SRApvUT_TU-31" target="JTD2nMqXW6SRApvUT_TU-189" edge="1">
          <mxGeometry relative="1" as="geometry">
            <mxPoint x="575" y="-109" as="sourcePoint" />
            <mxPoint x="709.9999999999998" y="55" as="targetPoint" />
          </mxGeometry>
        </mxCell>
        <mxCell id="JTD2nMqXW6SRApvUT_TU-18" value="&lt;div&gt;Benutzer:in hat aktive&lt;/div&gt;&lt;div&gt;Shibboleth-Session&lt;/div&gt;" style="edgeLabel;html=1;align=center;verticalAlign=middle;resizable=0;points=[];labelBackgroundColor=none;" parent="JTD2nMqXW6SRApvUT_TU-17" vertex="1" connectable="0">
          <mxGeometry x="-0.1962" relative="1" as="geometry">
            <mxPoint x="-68" as="offset" />
          </mxGeometry>
        </mxCell>
        <mxCell id="JTD2nMqXW6SRApvUT_TU-93" style="edgeStyle=orthogonalEdgeStyle;rounded=0;orthogonalLoop=1;jettySize=auto;html=1;labelBackgroundColor=none;" parent="JTD2nMqXW6SRApvUT_TU-3" source="JTD2nMqXW6SRApvUT_TU-82" target="JTD2nMqXW6SRApvUT_TU-88" edge="1">
          <mxGeometry relative="1" as="geometry" />
        </mxCell>
        <mxCell id="JTD2nMqXW6SRApvUT_TU-82" value="" style="points=[[0.145,0.145,0],[0.5,0,0],[0.855,0.145,0],[1,0.5,0],[0.855,0.855,0],[0.5,1,0],[0.145,0.855,0],[0,0.5,0]];shape=mxgraph.bpmn.event;html=1;verticalLabelPosition=bottom;labelBackgroundColor=none;verticalAlign=top;align=center;perimeter=ellipsePerimeter;outlineConnect=0;aspect=fixed;outline=standard;symbol=message;fillColor=#ffe6cc;strokeColor=#d79b00;" parent="JTD2nMqXW6SRApvUT_TU-3" vertex="1">
          <mxGeometry x="1455" y="95" width="50" height="50" as="geometry" />
        </mxCell>
        <mxCell id="JTD2nMqXW6SRApvUT_TU-95" style="edgeStyle=orthogonalEdgeStyle;rounded=0;orthogonalLoop=1;jettySize=auto;html=1;labelBackgroundColor=none;" parent="JTD2nMqXW6SRApvUT_TU-3" source="JTD2nMqXW6SRApvUT_TU-88" target="JTD2nMqXW6SRApvUT_TU-94" edge="1">
          <mxGeometry relative="1" as="geometry" />
        </mxCell>
        <mxCell id="JTD2nMqXW6SRApvUT_TU-88" value="Erstellung Authentifizierungs-anfrage" style="points=[[0.25,0,0],[0.5,0,0],[0.75,0,0],[1,0.25,0],[1,0.5,0],[1,0.75,0],[0.75,1,0],[0.5,1,0],[0.25,1,0],[0,0.75,0],[0,0.5,0],[0,0.25,0]];shape=mxgraph.bpmn.task;whiteSpace=wrap;rectStyle=rounded;size=10;html=1;container=1;expand=0;collapsible=0;taskMarker=abstract;labelBackgroundColor=none;fillColor=#ffe6cc;strokeColor=#d79b00;" parent="JTD2nMqXW6SRApvUT_TU-3" vertex="1">
          <mxGeometry x="1570" y="80" width="120" height="80" as="geometry" />
        </mxCell>
        <mxCell id="JTD2nMqXW6SRApvUT_TU-94" value="&lt;div&gt;Auth.-Request&lt;/div&gt;" style="points=[[0.25,0,0],[0.5,0,0],[0.75,0,0],[1,0.25,0],[1,0.5,0],[1,0.75,0],[0.75,1,0],[0.5,1,0],[0.25,1,0],[0,0.75,0],[0,0.5,0],[0,0.25,0]];shape=mxgraph.bpmn.task;whiteSpace=wrap;rectStyle=rounded;size=10;html=1;container=1;expand=0;collapsible=0;taskMarker=send;labelBackgroundColor=none;fillColor=#ffe6cc;strokeColor=#d79b00;" parent="JTD2nMqXW6SRApvUT_TU-3" vertex="1">
          <mxGeometry x="1740" y="80" width="120" height="80" as="geometry" />
        </mxCell>
        <mxCell id="JTD2nMqXW6SRApvUT_TU-99" value="" style="group;labelBackgroundColor=none;" parent="JTD2nMqXW6SRApvUT_TU-3" vertex="1" connectable="0">
          <mxGeometry x="1830" y="180" width="140" height="60" as="geometry" />
        </mxCell>
        <mxCell id="JTD2nMqXW6SRApvUT_TU-100" value="" style="shape=mxgraph.bpmn.data;labelPosition=center;verticalLabelPosition=bottom;align=center;verticalAlign=top;size=15;html=1;labelBackgroundColor=none;fillColor=#ffe6cc;strokeColor=#d79b00;" parent="JTD2nMqXW6SRApvUT_TU-99" vertex="1">
          <mxGeometry width="140" height="60" as="geometry" />
        </mxCell>
        <mxCell id="JTD2nMqXW6SRApvUT_TU-101" value="&lt;div&gt;RelayState&lt;/div&gt;&lt;div&gt;SAMLRequest&lt;br&gt;&lt;/div&gt;" style="text;html=1;align=center;verticalAlign=middle;resizable=0;points=[];autosize=1;strokeColor=none;fillColor=none;fontFamily=Courier New;labelBackgroundColor=none;" parent="JTD2nMqXW6SRApvUT_TU-99" vertex="1">
          <mxGeometry x="20" y="10" width="100" height="40" as="geometry" />
        </mxCell>
        <mxCell id="JTD2nMqXW6SRApvUT_TU-102" value="" style="edgeStyle=elbowEdgeStyle;fontSize=12;html=1;endFill=0;startFill=0;endSize=6;startSize=6;dashed=1;dashPattern=1 4;endArrow=none;startArrow=none;rounded=0;exitX=0;exitY=0.5;exitDx=0;exitDy=0;exitPerimeter=0;labelBackgroundColor=none;" parent="JTD2nMqXW6SRApvUT_TU-3" edge="1">
          <mxGeometry width="160" relative="1" as="geometry">
            <mxPoint x="1830" y="209.68" as="sourcePoint" />
            <mxPoint x="1800" y="209.68" as="targetPoint" />
          </mxGeometry>
        </mxCell>
        <mxCell id="JTD2nMqXW6SRApvUT_TU-167" style="edgeStyle=orthogonalEdgeStyle;rounded=0;orthogonalLoop=1;jettySize=auto;html=1;labelBackgroundColor=none;" parent="JTD2nMqXW6SRApvUT_TU-3" target="JTD2nMqXW6SRApvUT_TU-166" edge="1">
          <mxGeometry relative="1" as="geometry">
            <mxPoint x="3565" y="135" as="sourcePoint" />
          </mxGeometry>
        </mxCell>
        <mxCell id="JTD2nMqXW6SRApvUT_TU-176" style="edgeStyle=orthogonalEdgeStyle;rounded=0;orthogonalLoop=1;jettySize=auto;html=1;entryX=0;entryY=0.5;entryDx=0;entryDy=0;entryPerimeter=0;labelBackgroundColor=none;" parent="JTD2nMqXW6SRApvUT_TU-3" source="JTD2nMqXW6SRApvUT_TU-166" target="JTD2nMqXW6SRApvUT_TU-177" edge="1">
          <mxGeometry relative="1" as="geometry">
            <mxPoint x="3790" y="135" as="targetPoint" />
          </mxGeometry>
        </mxCell>
        <mxCell id="JTD2nMqXW6SRApvUT_TU-166" value="Verarbeitung SAML Assertion inkl. Auth.- &amp;amp; Attribut-Statements" style="points=[[0.25,0,0],[0.5,0,0],[0.75,0,0],[1,0.25,0],[1,0.5,0],[1,0.75,0],[0.75,1,0],[0.5,1,0],[0.25,1,0],[0,0.75,0],[0,0.5,0],[0,0.25,0]];shape=mxgraph.bpmn.task;whiteSpace=wrap;rectStyle=rounded;size=10;html=1;container=1;expand=0;collapsible=0;taskMarker=abstract;labelBackgroundColor=none;fillColor=#e1d5e7;strokeColor=#9673a6;" parent="JTD2nMqXW6SRApvUT_TU-3" vertex="1">
          <mxGeometry x="3620" y="95" width="120" height="80" as="geometry" />
        </mxCell>
        <mxCell id="JTD2nMqXW6SRApvUT_TU-177" value="Redirect zur angefragten Ressource" style="points=[[0.25,0,0],[0.5,0,0],[0.75,0,0],[1,0.25,0],[1,0.5,0],[1,0.75,0],[0.75,1,0],[0.5,1,0],[0.25,1,0],[0,0.75,0],[0,0.5,0],[0,0.25,0]];shape=mxgraph.bpmn.task;whiteSpace=wrap;rectStyle=rounded;size=10;html=1;container=1;expand=0;collapsible=0;taskMarker=send;labelBackgroundColor=none;fillColor=#e1d5e7;strokeColor=#9673a6;" parent="JTD2nMqXW6SRApvUT_TU-3" vertex="1">
          <mxGeometry x="3790" y="95" width="120" height="80" as="geometry" />
        </mxCell>
        <mxCell id="JTD2nMqXW6SRApvUT_TU-184" value="" style="group;labelBackgroundColor=none;" parent="JTD2nMqXW6SRApvUT_TU-3" vertex="1" connectable="0">
          <mxGeometry x="3660" y="15" width="190" height="60" as="geometry" />
        </mxCell>
        <mxCell id="JTD2nMqXW6SRApvUT_TU-185" value="" style="shape=mxgraph.bpmn.data;labelPosition=center;verticalLabelPosition=bottom;align=center;verticalAlign=top;size=15;html=1;labelBackgroundColor=none;fillColor=#e1d5e7;strokeColor=#9673a6;" parent="JTD2nMqXW6SRApvUT_TU-184" vertex="1">
          <mxGeometry x="-20" width="186.25" height="60" as="geometry" />
        </mxCell>
        <mxCell id="JTD2nMqXW6SRApvUT_TU-186" value="&lt;div&gt;Set-Cookie shibstate&lt;/div&gt;&lt;div&gt;Set-Cookie shibsession&lt;/div&gt;&lt;div&gt;Location&lt;br&gt;&lt;/div&gt;" style="text;html=1;align=center;verticalAlign=middle;resizable=0;points=[];autosize=1;strokeColor=none;fillColor=none;fontFamily=Courier New;labelBackgroundColor=none;" parent="JTD2nMqXW6SRApvUT_TU-184" vertex="1">
          <mxGeometry x="-16.87" width="180" height="60" as="geometry" />
        </mxCell>
        <mxCell id="JTD2nMqXW6SRApvUT_TU-197" style="edgeStyle=orthogonalEdgeStyle;rounded=0;orthogonalLoop=1;jettySize=auto;html=1;labelBackgroundColor=none;" parent="JTD2nMqXW6SRApvUT_TU-3" source="JTD2nMqXW6SRApvUT_TU-189" target="JTD2nMqXW6SRApvUT_TU-196" edge="1">
          <mxGeometry relative="1" as="geometry" />
        </mxCell>
        <mxCell id="JTD2nMqXW6SRApvUT_TU-189" value="Authorisierung (RechteprÃ¼fung)" style="points=[[0.25,0,0],[0.5,0,0],[0.75,0,0],[1,0.25,0],[1,0.5,0],[1,0.75,0],[0.75,1,0],[0.5,1,0],[0.25,1,0],[0,0.75,0],[0,0.5,0],[0,0.25,0]];shape=mxgraph.bpmn.task;whiteSpace=wrap;rectStyle=rounded;size=10;html=1;container=1;expand=0;collapsible=0;taskMarker=abstract;labelBackgroundColor=none;fillColor=#e1d5e7;strokeColor=#9673a6;" parent="JTD2nMqXW6SRApvUT_TU-3" vertex="1">
          <mxGeometry x="870" y="15" width="120" height="80" as="geometry" />
        </mxCell>
        <mxCell id="JTD2nMqXW6SRApvUT_TU-199" style="edgeStyle=orthogonalEdgeStyle;rounded=0;orthogonalLoop=1;jettySize=auto;html=1;entryX=0;entryY=0.5;entryDx=0;entryDy=0;entryPerimeter=0;labelBackgroundColor=none;" parent="JTD2nMqXW6SRApvUT_TU-3" source="JTD2nMqXW6SRApvUT_TU-196" target="JTD2nMqXW6SRApvUT_TU-205" edge="1">
          <mxGeometry relative="1" as="geometry">
            <mxPoint x="1190" y="55" as="targetPoint" />
          </mxGeometry>
        </mxCell>
        <mxCell id="JTD2nMqXW6SRApvUT_TU-201" value="&lt;div&gt;Rechte&lt;/div&gt;&lt;div&gt;vorhanden&lt;/div&gt;" style="edgeLabel;html=1;align=center;verticalAlign=middle;resizable=0;points=[];labelBackgroundColor=none;" parent="JTD2nMqXW6SRApvUT_TU-199" vertex="1" connectable="0">
          <mxGeometry x="-0.0118" y="-1" relative="1" as="geometry">
            <mxPoint x="-402" y="-1" as="offset" />
          </mxGeometry>
        </mxCell>
        <mxCell id="JTD2nMqXW6SRApvUT_TU-204" value="&lt;div&gt;Rechte &lt;i&gt;nicht&lt;/i&gt;&lt;br&gt;&lt;/div&gt;&lt;div&gt;vorhanden&lt;/div&gt;" style="edgeStyle=orthogonalEdgeStyle;rounded=0;orthogonalLoop=1;jettySize=auto;html=1;labelBackgroundColor=none;" parent="JTD2nMqXW6SRApvUT_TU-3" source="JTD2nMqXW6SRApvUT_TU-196" target="JTD2nMqXW6SRApvUT_TU-203" edge="1">
          <mxGeometry relative="1" as="geometry" />
        </mxCell>
        <mxCell id="JTD2nMqXW6SRApvUT_TU-196" value="" style="points=[[0.25,0.25,0],[0.5,0,0],[0.75,0.25,0],[1,0.5,0],[0.75,0.75,0],[0.5,1,0],[0.25,0.75,0],[0,0.5,0]];shape=mxgraph.bpmn.gateway2;html=1;verticalLabelPosition=bottom;labelBackgroundColor=none;verticalAlign=top;align=center;perimeter=rhombusPerimeter;outlineConnect=0;outline=none;symbol=none;gwType=exclusive;fillColor=#e1d5e7;strokeColor=#9673a6;" parent="JTD2nMqXW6SRApvUT_TU-3" vertex="1">
          <mxGeometry x="1060" y="30" width="50" height="50" as="geometry" />
        </mxCell>
        <mxCell id="JTD2nMqXW6SRApvUT_TU-203" value="" style="points=[[0.145,0.145,0],[0.5,0,0],[0.855,0.145,0],[1,0.5,0],[0.855,0.855,0],[0.5,1,0],[0.145,0.855,0],[0,0.5,0]];shape=mxgraph.bpmn.event;html=1;verticalLabelPosition=bottom;labelBackgroundColor=none;verticalAlign=top;align=center;perimeter=ellipsePerimeter;outlineConnect=0;aspect=fixed;outline=end;symbol=cancel;fillColor=#e1d5e7;strokeColor=#9673a6;" parent="JTD2nMqXW6SRApvUT_TU-3" vertex="1">
          <mxGeometry x="1060" y="150" width="50" height="50" as="geometry" />
        </mxCell>
        <mxCell id="JTD2nMqXW6SRApvUT_TU-205" value="GeschÃ¼tzte Ressource" style="points=[[0.25,0,0],[0.5,0,0],[0.75,0,0],[1,0.25,0],[1,0.5,0],[1,0.75,0],[0.75,1,0],[0.5,1,0],[0.25,1,0],[0,0.75,0],[0,0.5,0],[0,0.25,0]];shape=mxgraph.bpmn.task;whiteSpace=wrap;rectStyle=rounded;size=10;html=1;container=1;expand=0;collapsible=0;taskMarker=send;labelBackgroundColor=none;fillColor=#e1d5e7;strokeColor=#9673a6;" parent="JTD2nMqXW6SRApvUT_TU-3" vertex="1">
          <mxGeometry x="2070" y="15" width="120" height="80" as="geometry" />
        </mxCell>
        <mxCell id="JTD2nMqXW6SRApvUT_TU-5" value="Benutzer:in" style="swimlane;html=1;childLayout=stackLayout;resizeParent=1;resizeParentMax=0;horizontal=0;startSize=20;horizontalStack=0;whiteSpace=wrap;swimlaneFillColor=none;fillColor=none;strokeColor=#000000;labelBackgroundColor=none;strokeWidth=3;" parent="1" vertex="1">
          <mxGeometry x="110" y="-590" width="4350" height="150" as="geometry" />
        </mxCell>
        <mxCell id="JTD2nMqXW6SRApvUT_TU-6" value="Benutzer:in" style="swimlane;html=1;startSize=20;horizontal=0;labelBackgroundColor=none;strokeWidth=2;" parent="JTD2nMqXW6SRApvUT_TU-5" vertex="1">
          <mxGeometry x="20" width="4330" height="150" as="geometry" />
        </mxCell>
        <mxCell id="JTD2nMqXW6SRApvUT_TU-29" style="edgeStyle=orthogonalEdgeStyle;rounded=0;orthogonalLoop=1;jettySize=auto;html=1;labelBackgroundColor=none;" parent="JTD2nMqXW6SRApvUT_TU-6" source="JTD2nMqXW6SRApvUT_TU-13" edge="1">
          <mxGeometry relative="1" as="geometry">
            <mxPoint x="150" y="75" as="targetPoint" />
          </mxGeometry>
        </mxCell>
        <mxCell id="JTD2nMqXW6SRApvUT_TU-13" value="" style="points=[[0.145,0.145,0],[0.5,0,0],[0.855,0.145,0],[1,0.5,0],[0.855,0.855,0],[0.5,1,0],[0.145,0.855,0],[0,0.5,0]];shape=mxgraph.bpmn.event;html=1;verticalLabelPosition=bottom;labelBackgroundColor=none;verticalAlign=top;align=center;perimeter=ellipsePerimeter;outlineConnect=0;aspect=fixed;outline=standard;symbol=general;fillColor=#d5e8d4;strokeColor=#82b366;" parent="JTD2nMqXW6SRApvUT_TU-6" vertex="1">
          <mxGeometry x="30" y="50" width="50" height="50" as="geometry" />
        </mxCell>
        <mxCell id="JTD2nMqXW6SRApvUT_TU-46" value="Anfrage der geschÃ¼tzten Ressource" style="points=[[0.25,0,0],[0.5,0,0],[0.75,0,0],[1,0.25,0],[1,0.5,0],[1,0.75,0],[0.75,1,0],[0.5,1,0],[0.25,1,0],[0,0.75,0],[0,0.5,0],[0,0.25,0]];shape=mxgraph.bpmn.task;whiteSpace=wrap;rectStyle=rounded;size=10;html=1;container=1;expand=0;collapsible=0;taskMarker=send;labelBackgroundColor=none;fillColor=#d5e8d4;strokeColor=#82b366;" parent="JTD2nMqXW6SRApvUT_TU-6" vertex="1">
          <mxGeometry x="150" y="35" width="120" height="80" as="geometry" />
        </mxCell>
        <mxCell id="JTD2nMqXW6SRApvUT_TU-75" style="edgeStyle=orthogonalEdgeStyle;rounded=0;orthogonalLoop=1;jettySize=auto;html=1;labelBackgroundColor=none;" parent="JTD2nMqXW6SRApvUT_TU-6" source="JTD2nMqXW6SRApvUT_TU-68" target="JTD2nMqXW6SRApvUT_TU-73" edge="1">
          <mxGeometry relative="1" as="geometry" />
        </mxCell>
        <mxCell id="JTD2nMqXW6SRApvUT_TU-68" value="Darstellung der mÃ¶glichen IdPs" style="points=[[0.25,0,0],[0.5,0,0],[0.75,0,0],[1,0.25,0],[1,0.5,0],[1,0.75,0],[0.75,1,0],[0.5,1,0],[0.25,1,0],[0,0.75,0],[0,0.5,0],[0,0.25,0]];shape=mxgraph.bpmn.task;whiteSpace=wrap;rectStyle=rounded;size=10;html=1;container=1;expand=0;collapsible=0;taskMarker=abstract;labelBackgroundColor=none;fillColor=#d5e8d4;strokeColor=#82b366;" parent="JTD2nMqXW6SRApvUT_TU-6" vertex="1">
          <mxGeometry x="880" y="35" width="120" height="80" as="geometry" />
        </mxCell>
        <mxCell id="JTD2nMqXW6SRApvUT_TU-71" value="" style="points=[[0.145,0.145,0],[0.5,0,0],[0.855,0.145,0],[1,0.5,0],[0.855,0.855,0],[0.5,1,0],[0.145,0.855,0],[0,0.5,0]];shape=mxgraph.bpmn.event;html=1;verticalLabelPosition=bottom;labelBackgroundColor=none;verticalAlign=top;align=center;perimeter=ellipsePerimeter;outlineConnect=0;aspect=fixed;outline=standard;symbol=message;fillColor=#d5e8d4;strokeColor=#82b366;" parent="JTD2nMqXW6SRApvUT_TU-6" vertex="1">
          <mxGeometry x="785" y="50" width="50" height="50" as="geometry" />
        </mxCell>
        <mxCell id="JTD2nMqXW6SRApvUT_TU-72" style="edgeStyle=orthogonalEdgeStyle;rounded=0;orthogonalLoop=1;jettySize=auto;html=1;entryX=0;entryY=0.5;entryDx=0;entryDy=0;entryPerimeter=0;labelBackgroundColor=none;" parent="JTD2nMqXW6SRApvUT_TU-6" source="JTD2nMqXW6SRApvUT_TU-71" target="JTD2nMqXW6SRApvUT_TU-68" edge="1">
          <mxGeometry relative="1" as="geometry" />
        </mxCell>
        <mxCell id="JTD2nMqXW6SRApvUT_TU-76" style="edgeStyle=orthogonalEdgeStyle;rounded=0;orthogonalLoop=1;jettySize=auto;html=1;labelBackgroundColor=none;" parent="JTD2nMqXW6SRApvUT_TU-6" source="JTD2nMqXW6SRApvUT_TU-73" target="JTD2nMqXW6SRApvUT_TU-74" edge="1">
          <mxGeometry relative="1" as="geometry" />
        </mxCell>
        <mxCell id="JTD2nMqXW6SRApvUT_TU-73" value="Auswahl des IdP" style="points=[[0.25,0,0],[0.5,0,0],[0.75,0,0],[1,0.25,0],[1,0.5,0],[1,0.75,0],[0.75,1,0],[0.5,1,0],[0.25,1,0],[0,0.75,0],[0,0.5,0],[0,0.25,0]];shape=mxgraph.bpmn.task;whiteSpace=wrap;rectStyle=rounded;size=10;html=1;container=1;expand=0;collapsible=0;taskMarker=abstract;labelBackgroundColor=none;fillColor=#d5e8d4;strokeColor=#82b366;" parent="JTD2nMqXW6SRApvUT_TU-6" vertex="1">
          <mxGeometry x="1080" y="35" width="120" height="80" as="geometry" />
        </mxCell>
        <mxCell id="JTD2nMqXW6SRApvUT_TU-74" value="Absenden des ausgewÃ¤hlten IdP" style="points=[[0.25,0,0],[0.5,0,0],[0.75,0,0],[1,0.25,0],[1,0.5,0],[1,0.75,0],[0.75,1,0],[0.5,1,0],[0.25,1,0],[0,0.75,0],[0,0.5,0],[0,0.25,0]];shape=mxgraph.bpmn.task;whiteSpace=wrap;rectStyle=rounded;size=10;html=1;container=1;expand=0;collapsible=0;taskMarker=send;labelBackgroundColor=none;fillColor=#d5e8d4;strokeColor=#82b366;" parent="JTD2nMqXW6SRApvUT_TU-6" vertex="1">
          <mxGeometry x="1280" y="35" width="120" height="80" as="geometry" />
        </mxCell>
        <mxCell id="JTD2nMqXW6SRApvUT_TU-138" style="edgeStyle=orthogonalEdgeStyle;rounded=0;orthogonalLoop=1;jettySize=auto;html=1;labelBackgroundColor=none;" parent="JTD2nMqXW6SRApvUT_TU-6" source="JTD2nMqXW6SRApvUT_TU-134" target="JTD2nMqXW6SRApvUT_TU-137" edge="1">
          <mxGeometry relative="1" as="geometry" />
        </mxCell>
        <mxCell id="JTD2nMqXW6SRApvUT_TU-134" value="" style="points=[[0.145,0.145,0],[0.5,0,0],[0.855,0.145,0],[1,0.5,0],[0.855,0.855,0],[0.5,1,0],[0.145,0.855,0],[0,0.5,0]];shape=mxgraph.bpmn.event;html=1;verticalLabelPosition=bottom;labelBackgroundColor=none;verticalAlign=top;align=center;perimeter=ellipsePerimeter;outlineConnect=0;aspect=fixed;outline=standard;symbol=message;fillColor=#e1d5e7;strokeColor=#9673a6;" parent="JTD2nMqXW6SRApvUT_TU-6" vertex="1">
          <mxGeometry x="2365" y="50" width="50" height="50" as="geometry" />
        </mxCell>
        <mxCell id="JTD2nMqXW6SRApvUT_TU-137" value="Eingabe der Anmeldedaten" style="points=[[0.25,0,0],[0.5,0,0],[0.75,0,0],[1,0.25,0],[1,0.5,0],[1,0.75,0],[0.75,1,0],[0.5,1,0],[0.25,1,0],[0,0.75,0],[0,0.5,0],[0,0.25,0]];shape=mxgraph.bpmn.task;whiteSpace=wrap;rectStyle=rounded;size=10;html=1;container=1;expand=0;collapsible=0;taskMarker=abstract;labelBackgroundColor=none;fillColor=#e1d5e7;strokeColor=#9673a6;" parent="JTD2nMqXW6SRApvUT_TU-6" vertex="1">
          <mxGeometry x="2470" y="35" width="120" height="80" as="geometry" />
        </mxCell>
        <mxCell id="JTD2nMqXW6SRApvUT_TU-139" value="POST der Daten" style="points=[[0.25,0,0],[0.5,0,0],[0.75,0,0],[1,0.25,0],[1,0.5,0],[1,0.75,0],[0.75,1,0],[0.5,1,0],[0.25,1,0],[0,0.75,0],[0,0.5,0],[0,0.25,0]];shape=mxgraph.bpmn.task;whiteSpace=wrap;rectStyle=rounded;size=10;html=1;container=1;expand=0;collapsible=0;taskMarker=send;labelBackgroundColor=none;fillColor=#e1d5e7;strokeColor=#9673a6;" parent="JTD2nMqXW6SRApvUT_TU-6" vertex="1">
          <mxGeometry x="2650" y="35" width="120" height="80" as="geometry" />
        </mxCell>
        <mxCell id="JTD2nMqXW6SRApvUT_TU-140" style="edgeStyle=orthogonalEdgeStyle;rounded=0;orthogonalLoop=1;jettySize=auto;html=1;entryX=0;entryY=0.5;entryDx=0;entryDy=0;entryPerimeter=0;labelBackgroundColor=none;" parent="JTD2nMqXW6SRApvUT_TU-6" source="JTD2nMqXW6SRApvUT_TU-137" target="JTD2nMqXW6SRApvUT_TU-139" edge="1">
          <mxGeometry relative="1" as="geometry" />
        </mxCell>
        <mxCell id="JTD2nMqXW6SRApvUT_TU-188" style="edgeStyle=orthogonalEdgeStyle;rounded=0;orthogonalLoop=1;jettySize=auto;html=1;entryX=0.5;entryY=0;entryDx=0;entryDy=0;entryPerimeter=0;labelBackgroundColor=none;" parent="JTD2nMqXW6SRApvUT_TU-6" source="JTD2nMqXW6SRApvUT_TU-181" target="JTD2nMqXW6SRApvUT_TU-46" edge="1">
          <mxGeometry relative="1" as="geometry">
            <mxPoint x="2050" y="-90" as="targetPoint" />
            <Array as="points">
              <mxPoint x="3850" y="15" />
              <mxPoint x="210" y="15" />
            </Array>
          </mxGeometry>
        </mxCell>
        <mxCell id="JTD2nMqXW6SRApvUT_TU-181" value="" style="points=[[0.145,0.145,0],[0.5,0,0],[0.855,0.145,0],[1,0.5,0],[0.855,0.855,0],[0.5,1,0],[0.145,0.855,0],[0,0.5,0]];shape=mxgraph.bpmn.event;html=1;verticalLabelPosition=bottom;labelBackgroundColor=none;verticalAlign=top;align=center;perimeter=ellipsePerimeter;outlineConnect=0;aspect=fixed;outline=standard;symbol=message;fillColor=#e1d5e7;strokeColor=#9673a6;" parent="JTD2nMqXW6SRApvUT_TU-6" vertex="1">
          <mxGeometry x="3825" y="50" width="50" height="50" as="geometry" />
        </mxCell>
        <mxCell id="JTD2nMqXW6SRApvUT_TU-207" value="" style="points=[[0.145,0.145,0],[0.5,0,0],[0.855,0.145,0],[1,0.5,0],[0.855,0.855,0],[0.5,1,0],[0.145,0.855,0],[0,0.5,0]];shape=mxgraph.bpmn.event;html=1;verticalLabelPosition=bottom;labelBackgroundColor=none;verticalAlign=top;align=center;perimeter=ellipsePerimeter;outlineConnect=0;aspect=fixed;outline=standard;symbol=message;fillColor=#e1d5e7;strokeColor=#9673a6;" parent="JTD2nMqXW6SRApvUT_TU-6" vertex="1">
          <mxGeometry x="3965" y="50" width="50" height="50" as="geometry" />
        </mxCell>
        <mxCell id="JTD2nMqXW6SRApvUT_TU-213" style="edgeStyle=orthogonalEdgeStyle;rounded=0;orthogonalLoop=1;jettySize=auto;html=1;labelBackgroundColor=none;" parent="JTD2nMqXW6SRApvUT_TU-6" source="JTD2nMqXW6SRApvUT_TU-210" target="JTD2nMqXW6SRApvUT_TU-212" edge="1">
          <mxGeometry relative="1" as="geometry" />
        </mxCell>
        <mxCell id="JTD2nMqXW6SRApvUT_TU-210" value="Zugriff auf geschÃ¼tzte Ressource" style="points=[[0.25,0,0],[0.5,0,0],[0.75,0,0],[1,0.25,0],[1,0.5,0],[1,0.75,0],[0.75,1,0],[0.5,1,0],[0.25,1,0],[0,0.75,0],[0,0.5,0],[0,0.25,0]];shape=mxgraph.bpmn.task;whiteSpace=wrap;rectStyle=rounded;size=10;html=1;container=1;expand=0;collapsible=0;taskMarker=abstract;labelBackgroundColor=none;fillColor=#e1d5e7;strokeColor=#9673a6;" parent="JTD2nMqXW6SRApvUT_TU-6" vertex="1">
          <mxGeometry x="4080" y="35" width="120" height="80" as="geometry" />
        </mxCell>
        <mxCell id="JTD2nMqXW6SRApvUT_TU-211" style="edgeStyle=orthogonalEdgeStyle;rounded=0;orthogonalLoop=1;jettySize=auto;html=1;entryX=0;entryY=0.5;entryDx=0;entryDy=0;entryPerimeter=0;labelBackgroundColor=none;" parent="JTD2nMqXW6SRApvUT_TU-6" source="JTD2nMqXW6SRApvUT_TU-207" target="JTD2nMqXW6SRApvUT_TU-210" edge="1">
          <mxGeometry relative="1" as="geometry" />
        </mxCell>
        <mxCell id="JTD2nMqXW6SRApvUT_TU-212" value="" style="points=[[0.145,0.145,0],[0.5,0,0],[0.855,0.145,0],[1,0.5,0],[0.855,0.855,0],[0.5,1,0],[0.145,0.855,0],[0,0.5,0]];shape=mxgraph.bpmn.event;html=1;verticalLabelPosition=bottom;labelBackgroundColor=none;verticalAlign=top;align=center;perimeter=ellipsePerimeter;outlineConnect=0;aspect=fixed;outline=end;symbol=terminate2;fillColor=#e1d5e7;strokeColor=#9673a6;" parent="JTD2nMqXW6SRApvUT_TU-6" vertex="1">
          <mxGeometry x="4260" y="50" width="50" height="50" as="geometry" />
        </mxCell>
        <mxCell id="JTD2nMqXW6SRApvUT_TU-34" value="Home Organisation" style="swimlane;html=1;childLayout=stackLayout;resizeParent=1;resizeParentMax=0;horizontal=0;startSize=20;horizontalStack=0;whiteSpace=wrap;labelBackgroundColor=none;swimlaneFillColor=none;strokeWidth=3;" parent="1" vertex="1">
          <mxGeometry x="110" y="70" width="4350" height="480" as="geometry" />
        </mxCell>
        <mxCell id="JTD2nMqXW6SRApvUT_TU-35" value="Identity Provider" style="swimlane;html=1;startSize=20;horizontal=0;labelBackgroundColor=none;swimlaneFillColor=none;strokeWidth=2;" parent="JTD2nMqXW6SRApvUT_TU-34" vertex="1">
          <mxGeometry x="20" width="4330" height="300" as="geometry" />
        </mxCell>
        <mxCell id="JTD2nMqXW6SRApvUT_TU-105" style="edgeStyle=orthogonalEdgeStyle;rounded=0;orthogonalLoop=1;jettySize=auto;html=1;labelBackgroundColor=none;" parent="JTD2nMqXW6SRApvUT_TU-35" source="JTD2nMqXW6SRApvUT_TU-96" target="JTD2nMqXW6SRApvUT_TU-103" edge="1">
          <mxGeometry relative="1" as="geometry" />
        </mxCell>
        <mxCell id="JTD2nMqXW6SRApvUT_TU-96" value="" style="points=[[0.145,0.145,0],[0.5,0,0],[0.855,0.145,0],[1,0.5,0],[0.855,0.855,0],[0.5,1,0],[0.145,0.855,0],[0,0.5,0]];shape=mxgraph.bpmn.event;html=1;verticalLabelPosition=bottom;labelBackgroundColor=none;verticalAlign=top;align=center;perimeter=ellipsePerimeter;outlineConnect=0;aspect=fixed;outline=standard;symbol=message;fillColor=#ffe6cc;strokeColor=#d79b00;" parent="JTD2nMqXW6SRApvUT_TU-35" vertex="1">
          <mxGeometry x="1775" y="50" width="50" height="50" as="geometry" />
        </mxCell>
        <mxCell id="JTD2nMqXW6SRApvUT_TU-106" style="edgeStyle=orthogonalEdgeStyle;rounded=0;orthogonalLoop=1;jettySize=auto;html=1;labelBackgroundColor=none;" parent="JTD2nMqXW6SRApvUT_TU-35" source="JTD2nMqXW6SRApvUT_TU-103" target="JTD2nMqXW6SRApvUT_TU-104" edge="1">
          <mxGeometry relative="1" as="geometry" />
        </mxCell>
        <mxCell id="JTD2nMqXW6SRApvUT_TU-103" value="PrÃ¼fen der Auth-Request" style="points=[[0.25,0,0],[0.5,0,0],[0.75,0,0],[1,0.25,0],[1,0.5,0],[1,0.75,0],[0.75,1,0],[0.5,1,0],[0.25,1,0],[0,0.75,0],[0,0.5,0],[0,0.25,0]];shape=mxgraph.bpmn.task;whiteSpace=wrap;rectStyle=rounded;size=10;html=1;container=1;expand=0;collapsible=0;taskMarker=abstract;labelBackgroundColor=none;fillColor=#ffe6cc;strokeColor=#d79b00;" parent="JTD2nMqXW6SRApvUT_TU-35" vertex="1">
          <mxGeometry x="1880" y="35" width="120" height="80" as="geometry" />
        </mxCell>
        <mxCell id="JTD2nMqXW6SRApvUT_TU-104" value="" style="points=[[0.25,0.25,0],[0.5,0,0],[0.75,0.25,0],[1,0.5,0],[0.75,0.75,0],[0.5,1,0],[0.25,0.75,0],[0,0.5,0]];shape=mxgraph.bpmn.gateway2;html=1;verticalLabelPosition=bottom;labelBackgroundColor=none;verticalAlign=top;align=center;perimeter=rhombusPerimeter;outlineConnect=0;outline=none;symbol=none;gwType=exclusive;fillColor=#ffe6cc;strokeColor=#d79b00;" parent="JTD2nMqXW6SRApvUT_TU-35" vertex="1">
          <mxGeometry x="2060" y="50" width="50" height="50" as="geometry" />
        </mxCell>
        <mxCell id="JTD2nMqXW6SRApvUT_TU-108" value="&lt;div&gt;Benutzer:in &lt;i&gt;nicht&lt;/i&gt;&lt;/div&gt;&lt;div&gt;angemeldet&lt;/div&gt;" style="edgeStyle=orthogonalEdgeStyle;rounded=0;orthogonalLoop=1;jettySize=auto;html=1;entryX=0.5;entryY=0;entryDx=0;entryDy=0;entryPerimeter=0;labelBackgroundColor=none;" parent="JTD2nMqXW6SRApvUT_TU-35" source="JTD2nMqXW6SRApvUT_TU-104" target="JTD2nMqXW6SRApvUT_TU-121" edge="1">
          <mxGeometry relative="1" as="geometry">
            <mxPoint x="2085.0000000000005" y="159.99999999999977" as="targetPoint" />
          </mxGeometry>
        </mxCell>
        <mxCell id="JTD2nMqXW6SRApvUT_TU-121" value="&lt;div&gt;Redirect&lt;/div&gt;" style="points=[[0.25,0,0],[0.5,0,0],[0.75,0,0],[1,0.25,0],[1,0.5,0],[1,0.75,0],[0.75,1,0],[0.5,1,0],[0.25,1,0],[0,0.75,0],[0,0.5,0],[0,0.25,0]];shape=mxgraph.bpmn.task;whiteSpace=wrap;rectStyle=rounded;size=10;html=1;container=1;expand=0;collapsible=0;taskMarker=send;labelBackgroundColor=none;fillColor=#ffe6cc;strokeColor=#d79b00;" parent="JTD2nMqXW6SRApvUT_TU-35" vertex="1">
          <mxGeometry x="2025" y="170" width="120" height="80" as="geometry" />
        </mxCell>
        <mxCell id="JTD2nMqXW6SRApvUT_TU-150" style="edgeStyle=orthogonalEdgeStyle;rounded=0;orthogonalLoop=1;jettySize=auto;html=1;labelBackgroundColor=none;" parent="JTD2nMqXW6SRApvUT_TU-35" source="JTD2nMqXW6SRApvUT_TU-141" target="JTD2nMqXW6SRApvUT_TU-148" edge="1">
          <mxGeometry relative="1" as="geometry" />
        </mxCell>
        <mxCell id="JTD2nMqXW6SRApvUT_TU-141" value="" style="points=[[0.145,0.145,0],[0.5,0,0],[0.855,0.145,0],[1,0.5,0],[0.855,0.855,0],[0.5,1,0],[0.145,0.855,0],[0,0.5,0]];shape=mxgraph.bpmn.event;html=1;verticalLabelPosition=bottom;labelBackgroundColor=none;verticalAlign=top;align=center;perimeter=ellipsePerimeter;outlineConnect=0;aspect=fixed;outline=standard;symbol=message;fillColor=#e1d5e7;strokeColor=#9673a6;" parent="JTD2nMqXW6SRApvUT_TU-35" vertex="1">
          <mxGeometry x="2685" y="50" width="50" height="50" as="geometry" />
        </mxCell>
        <mxCell id="JTD2nMqXW6SRApvUT_TU-153" style="edgeStyle=orthogonalEdgeStyle;rounded=0;orthogonalLoop=1;jettySize=auto;html=1;labelBackgroundColor=none;" parent="JTD2nMqXW6SRApvUT_TU-35" source="JTD2nMqXW6SRApvUT_TU-148" target="JTD2nMqXW6SRApvUT_TU-151" edge="1">
          <mxGeometry relative="1" as="geometry" />
        </mxCell>
        <mxCell id="JTD2nMqXW6SRApvUT_TU-148" value="Verifikation der Anmeldedaten" style="points=[[0.25,0,0],[0.5,0,0],[0.75,0,0],[1,0.25,0],[1,0.5,0],[1,0.75,0],[0.75,1,0],[0.5,1,0],[0.25,1,0],[0,0.75,0],[0,0.5,0],[0,0.25,0]];shape=mxgraph.bpmn.task;whiteSpace=wrap;rectStyle=rounded;size=10;html=1;container=1;expand=0;collapsible=0;taskMarker=abstract;labelBackgroundColor=none;fillColor=#e1d5e7;strokeColor=#9673a6;" parent="JTD2nMqXW6SRApvUT_TU-35" vertex="1">
          <mxGeometry x="2780" y="35" width="120" height="80" as="geometry" />
        </mxCell>
        <mxCell id="JTD2nMqXW6SRApvUT_TU-147" value="" style="edgeStyle=elbowEdgeStyle;fontSize=12;html=1;endFill=0;startFill=0;endSize=6;startSize=6;dashed=1;dashPattern=1 4;endArrow=none;startArrow=none;rounded=0;exitX=1.01;exitY=0.57;exitDx=0;exitDy=0;exitPerimeter=0;labelBackgroundColor=none;" parent="JTD2nMqXW6SRApvUT_TU-35" source="JTD2nMqXW6SRApvUT_TU-145" edge="1">
          <mxGeometry width="160" relative="1" as="geometry">
            <mxPoint x="2570" as="sourcePoint" />
            <mxPoint x="2710" y="50" as="targetPoint" />
            <Array as="points">
              <mxPoint x="2710" y="-90" />
            </Array>
          </mxGeometry>
        </mxCell>
        <mxCell id="JTD2nMqXW6SRApvUT_TU-156" style="edgeStyle=orthogonalEdgeStyle;rounded=0;orthogonalLoop=1;jettySize=auto;html=1;labelBackgroundColor=none;" parent="JTD2nMqXW6SRApvUT_TU-35" source="JTD2nMqXW6SRApvUT_TU-151" target="JTD2nMqXW6SRApvUT_TU-155" edge="1">
          <mxGeometry relative="1" as="geometry" />
        </mxCell>
        <mxCell id="JTD2nMqXW6SRApvUT_TU-158" value="erfolgreich" style="edgeLabel;html=1;align=center;verticalAlign=middle;resizable=0;points=[];labelBackgroundColor=none;" parent="JTD2nMqXW6SRApvUT_TU-156" vertex="1" connectable="0">
          <mxGeometry x="-0.1523" relative="1" as="geometry">
            <mxPoint as="offset" />
          </mxGeometry>
        </mxCell>
        <mxCell id="JTD2nMqXW6SRApvUT_TU-151" value="" style="points=[[0.25,0.25,0],[0.5,0,0],[0.75,0.25,0],[1,0.5,0],[0.75,0.75,0],[0.5,1,0],[0.25,0.75,0],[0,0.5,0]];shape=mxgraph.bpmn.gateway2;html=1;verticalLabelPosition=bottom;labelBackgroundColor=none;verticalAlign=top;align=center;perimeter=rhombusPerimeter;outlineConnect=0;outline=none;symbol=none;gwType=exclusive;fillColor=#e1d5e7;strokeColor=#9673a6;" parent="JTD2nMqXW6SRApvUT_TU-35" vertex="1">
          <mxGeometry x="2950" y="50" width="50" height="50" as="geometry" />
        </mxCell>
        <mxCell id="JTD2nMqXW6SRApvUT_TU-160" style="edgeStyle=orthogonalEdgeStyle;rounded=0;orthogonalLoop=1;jettySize=auto;html=1;labelBackgroundColor=none;" parent="JTD2nMqXW6SRApvUT_TU-35" source="JTD2nMqXW6SRApvUT_TU-155" target="JTD2nMqXW6SRApvUT_TU-159" edge="1">
          <mxGeometry relative="1" as="geometry" />
        </mxCell>
        <mxCell id="JTD2nMqXW6SRApvUT_TU-155" value="Generierung einer HTML-Seite inkl. SAML Assertion" style="points=[[0.25,0,0],[0.5,0,0],[0.75,0,0],[1,0.25,0],[1,0.5,0],[1,0.75,0],[0.75,1,0],[0.5,1,0],[0.25,1,0],[0,0.75,0],[0,0.5,0],[0,0.25,0]];shape=mxgraph.bpmn.task;whiteSpace=wrap;rectStyle=rounded;size=10;html=1;container=1;expand=0;collapsible=0;taskMarker=abstract;labelBackgroundColor=none;fillColor=#e1d5e7;strokeColor=#9673a6;" parent="JTD2nMqXW6SRApvUT_TU-35" vertex="1">
          <mxGeometry x="3100" y="35" width="120" height="80" as="geometry" />
        </mxCell>
        <mxCell id="JTD2nMqXW6SRApvUT_TU-159" value="Setzen des IdP-Session-Cookies" style="points=[[0.25,0,0],[0.5,0,0],[0.75,0,0],[1,0.25,0],[1,0.5,0],[1,0.75,0],[0.75,1,0],[0.5,1,0],[0.25,1,0],[0,0.75,0],[0,0.5,0],[0,0.25,0]];shape=mxgraph.bpmn.task;whiteSpace=wrap;rectStyle=rounded;size=10;html=1;container=1;expand=0;collapsible=0;taskMarker=abstract;labelBackgroundColor=none;fillColor=#e1d5e7;strokeColor=#9673a6;" parent="JTD2nMqXW6SRApvUT_TU-35" vertex="1">
          <mxGeometry x="3290" y="35" width="120" height="80" as="geometry" />
        </mxCell>
        <mxCell id="JTD2nMqXW6SRApvUT_TU-161" value="&lt;div&gt;POST&lt;/div&gt;&lt;div&gt;(erfolgreiche Anmeldung)&lt;/div&gt;" style="points=[[0.25,0,0],[0.5,0,0],[0.75,0,0],[1,0.25,0],[1,0.5,0],[1,0.75,0],[0.75,1,0],[0.5,1,0],[0.25,1,0],[0,0.75,0],[0,0.5,0],[0,0.25,0]];shape=mxgraph.bpmn.task;whiteSpace=wrap;rectStyle=rounded;size=10;html=1;container=1;expand=0;collapsible=0;taskMarker=send;labelBackgroundColor=none;fillColor=#e1d5e7;strokeColor=#9673a6;" parent="JTD2nMqXW6SRApvUT_TU-35" vertex="1">
          <mxGeometry x="3480" y="35" width="120" height="80" as="geometry" />
        </mxCell>
        <mxCell id="JTD2nMqXW6SRApvUT_TU-162" style="edgeStyle=orthogonalEdgeStyle;rounded=0;orthogonalLoop=1;jettySize=auto;html=1;labelBackgroundColor=none;" parent="JTD2nMqXW6SRApvUT_TU-35" source="JTD2nMqXW6SRApvUT_TU-159" target="JTD2nMqXW6SRApvUT_TU-161" edge="1">
          <mxGeometry relative="1" as="geometry" />
        </mxCell>
        <mxCell id="JTD2nMqXW6SRApvUT_TU-221" style="edgeStyle=orthogonalEdgeStyle;rounded=0;orthogonalLoop=1;jettySize=auto;html=1;entryX=0.5;entryY=1;entryDx=0;entryDy=0;entryPerimeter=0;labelBackgroundColor=none;" parent="JTD2nMqXW6SRApvUT_TU-35" source="JTD2nMqXW6SRApvUT_TU-104" target="JTD2nMqXW6SRApvUT_TU-161" edge="1">
          <mxGeometry relative="1" as="geometry">
            <Array as="points">
              <mxPoint x="2280" y="75" />
              <mxPoint x="2280" y="240" />
              <mxPoint x="3540" y="240" />
            </Array>
          </mxGeometry>
        </mxCell>
        <mxCell id="JTD2nMqXW6SRApvUT_TU-222" value="&lt;div&gt;Benutzer:in bereits&lt;/div&gt;&lt;div&gt;authentifiziert&lt;/div&gt;" style="edgeLabel;html=1;align=center;verticalAlign=middle;resizable=0;points=[];labelBackgroundColor=none;" parent="JTD2nMqXW6SRApvUT_TU-221" vertex="1" connectable="0">
          <mxGeometry x="-0.9515" y="2" relative="1" as="geometry">
            <mxPoint x="32" y="2" as="offset" />
          </mxGeometry>
        </mxCell>
        <mxCell id="JTD2nMqXW6SRApvUT_TU-223" value="" style="points=[[0.145,0.145,0],[0.5,0,0],[0.855,0.145,0],[1,0.5,0],[0.855,0.855,0],[0.5,1,0],[0.145,0.855,0],[0,0.5,0]];shape=mxgraph.bpmn.event;html=1;verticalLabelPosition=bottom;labelBackgroundColor=none;verticalAlign=top;align=center;perimeter=ellipsePerimeter;outlineConnect=0;aspect=fixed;outline=end;symbol=cancel;fillColor=#e1d5e7;strokeColor=#9673a6;" parent="JTD2nMqXW6SRApvUT_TU-35" vertex="1">
          <mxGeometry x="2950" y="160" width="50" height="50" as="geometry" />
        </mxCell>
        <mxCell id="JTD2nMqXW6SRApvUT_TU-224" style="edgeStyle=orthogonalEdgeStyle;rounded=0;orthogonalLoop=1;jettySize=auto;html=1;entryX=0.5;entryY=0;entryDx=0;entryDy=0;entryPerimeter=0;labelBackgroundColor=none;" parent="JTD2nMqXW6SRApvUT_TU-35" source="JTD2nMqXW6SRApvUT_TU-151" target="JTD2nMqXW6SRApvUT_TU-223" edge="1">
          <mxGeometry relative="1" as="geometry" />
        </mxCell>
        <mxCell id="JTD2nMqXW6SRApvUT_TU-225" value="nicht erfolgreich" style="edgeLabel;html=1;align=center;verticalAlign=middle;resizable=0;points=[];labelBackgroundColor=none;" parent="JTD2nMqXW6SRApvUT_TU-224" vertex="1" connectable="0">
          <mxGeometry x="-0.12" y="-3" relative="1" as="geometry">
            <mxPoint as="offset" />
          </mxGeometry>
        </mxCell>
        <mxCell id="JTD2nMqXW6SRApvUT_TU-232" style="edgeStyle=orthogonalEdgeStyle;rounded=0;orthogonalLoop=1;jettySize=auto;html=1;labelBackgroundColor=none;" parent="JTD2nMqXW6SRApvUT_TU-35" source="JTD2nMqXW6SRApvUT_TU-230" target="JTD2nMqXW6SRApvUT_TU-231" edge="1">
          <mxGeometry relative="1" as="geometry" />
        </mxCell>
        <mxCell id="JTD2nMqXW6SRApvUT_TU-230" value="" style="points=[[0.145,0.145,0],[0.5,0,0],[0.855,0.145,0],[1,0.5,0],[0.855,0.855,0],[0.5,1,0],[0.145,0.855,0],[0,0.5,0]];shape=mxgraph.bpmn.event;html=1;verticalLabelPosition=bottom;labelBackgroundColor=none;verticalAlign=top;align=center;perimeter=ellipsePerimeter;outlineConnect=0;aspect=fixed;outline=standard;symbol=message;fillColor=#ffe6cc;strokeColor=#d79b00;" parent="JTD2nMqXW6SRApvUT_TU-35" vertex="1">
          <mxGeometry x="2365" y="160" width="50" height="50" as="geometry" />
        </mxCell>
        <mxCell id="JTD2nMqXW6SRApvUT_TU-231" value="&lt;div&gt;Redirect zu spezifischer Anmeldeseite&lt;br&gt;&lt;/div&gt;" style="points=[[0.25,0,0],[0.5,0,0],[0.75,0,0],[1,0.25,0],[1,0.5,0],[1,0.75,0],[0.75,1,0],[0.5,1,0],[0.25,1,0],[0,0.75,0],[0,0.5,0],[0,0.25,0]];shape=mxgraph.bpmn.task;whiteSpace=wrap;rectStyle=rounded;size=10;html=1;container=1;expand=0;collapsible=0;taskMarker=send;labelBackgroundColor=none;fillColor=#ffe6cc;strokeColor=#d79b00;" parent="JTD2nMqXW6SRApvUT_TU-35" vertex="1">
          <mxGeometry x="2330" y="35" width="120" height="80" as="geometry" />
        </mxCell>
        <mxCell id="JTD2nMqXW6SRApvUT_TU-120" value="Login-Handler" style="swimlane;html=1;startSize=20;horizontal=0;labelBackgroundColor=none;strokeWidth=2;" parent="JTD2nMqXW6SRApvUT_TU-34" vertex="1">
          <mxGeometry x="20" y="300" width="4330" height="180" as="geometry" />
        </mxCell>
        <mxCell id="JTD2nMqXW6SRApvUT_TU-131" style="edgeStyle=orthogonalEdgeStyle;rounded=0;orthogonalLoop=1;jettySize=auto;html=1;labelBackgroundColor=none;" parent="JTD2nMqXW6SRApvUT_TU-120" source="JTD2nMqXW6SRApvUT_TU-123" target="JTD2nMqXW6SRApvUT_TU-130" edge="1">
          <mxGeometry relative="1" as="geometry" />
        </mxCell>
        <mxCell id="JTD2nMqXW6SRApvUT_TU-123" value="" style="points=[[0.145,0.145,0],[0.5,0,0],[0.855,0.145,0],[1,0.5,0],[0.855,0.855,0],[0.5,1,0],[0.145,0.855,0],[0,0.5,0]];shape=mxgraph.bpmn.event;html=1;verticalLabelPosition=bottom;labelBackgroundColor=none;verticalAlign=top;align=center;perimeter=ellipsePerimeter;outlineConnect=0;aspect=fixed;outline=standard;symbol=message;fillColor=#ffe6cc;strokeColor=#d79b00;" parent="JTD2nMqXW6SRApvUT_TU-120" vertex="1">
          <mxGeometry x="2060" y="70" width="50" height="50" as="geometry" />
        </mxCell>
        <mxCell id="JTD2nMqXW6SRApvUT_TU-126" value="" style="group;labelBackgroundColor=none;" parent="JTD2nMqXW6SRApvUT_TU-120" vertex="1" connectable="0">
          <mxGeometry x="1910" y="-20" width="145" height="60" as="geometry" />
        </mxCell>
        <mxCell id="JTD2nMqXW6SRApvUT_TU-127" value="" style="shape=mxgraph.bpmn.data;labelPosition=center;verticalLabelPosition=bottom;align=center;verticalAlign=top;size=15;html=1;labelBackgroundColor=none;fillColor=#ffe6cc;strokeColor=#d79b00;" parent="JTD2nMqXW6SRApvUT_TU-126" vertex="1">
          <mxGeometry width="140" height="60" as="geometry" />
        </mxCell>
        <mxCell id="JTD2nMqXW6SRApvUT_TU-128" value="&lt;div&gt;SetCookie (AuthN)&lt;br&gt;&lt;/div&gt;&lt;div&gt;Location&lt;br&gt;&lt;/div&gt;" style="text;html=1;align=center;verticalAlign=middle;resizable=0;points=[];autosize=1;strokeColor=none;fillColor=none;fontFamily=Courier New;labelBackgroundColor=none;" parent="JTD2nMqXW6SRApvUT_TU-126" vertex="1">
          <mxGeometry x="-5" y="10" width="150" height="40" as="geometry" />
        </mxCell>
        <mxCell id="JTD2nMqXW6SRApvUT_TU-129" value="" style="edgeStyle=elbowEdgeStyle;fontSize=12;html=1;endFill=0;startFill=0;endSize=6;startSize=6;dashed=1;dashPattern=1 4;endArrow=none;startArrow=none;rounded=0;exitX=0;exitY=0;exitDx=140;exitDy=37.5;exitPerimeter=0;labelBackgroundColor=none;" parent="JTD2nMqXW6SRApvUT_TU-120" source="JTD2nMqXW6SRApvUT_TU-127" edge="1">
          <mxGeometry width="160" relative="1" as="geometry">
            <mxPoint x="2120" y="40" as="sourcePoint" />
            <mxPoint x="2080" y="18" as="targetPoint" />
          </mxGeometry>
        </mxCell>
        <mxCell id="JTD2nMqXW6SRApvUT_TU-130" value="Ermittlung der spezifischen Anmeldeseite" style="points=[[0.25,0,0],[0.5,0,0],[0.75,0,0],[1,0.25,0],[1,0.5,0],[1,0.75,0],[0.75,1,0],[0.5,1,0],[0.25,1,0],[0,0.75,0],[0,0.5,0],[0,0.25,0]];shape=mxgraph.bpmn.task;whiteSpace=wrap;rectStyle=rounded;size=10;html=1;container=1;expand=0;collapsible=0;taskMarker=abstract;labelBackgroundColor=none;fillColor=#ffe6cc;strokeColor=#d79b00;" parent="JTD2nMqXW6SRApvUT_TU-120" vertex="1">
          <mxGeometry x="2160" y="55" width="120" height="80" as="geometry" />
        </mxCell>
        <mxCell id="JTD2nMqXW6SRApvUT_TU-132" value="&lt;div&gt;Redirect zur Anmeldeseite&lt;br&gt;&lt;/div&gt;" style="points=[[0.25,0,0],[0.5,0,0],[0.75,0,0],[1,0.25,0],[1,0.5,0],[1,0.75,0],[0.75,1,0],[0.5,1,0],[0.25,1,0],[0,0.75,0],[0,0.5,0],[0,0.25,0]];shape=mxgraph.bpmn.task;whiteSpace=wrap;rectStyle=rounded;size=10;html=1;container=1;expand=0;collapsible=0;taskMarker=send;labelBackgroundColor=none;fillColor=#ffe6cc;strokeColor=#d79b00;" parent="JTD2nMqXW6SRApvUT_TU-120" vertex="1">
          <mxGeometry x="2330" y="55" width="120" height="80" as="geometry" />
        </mxCell>
        <mxCell id="JTD2nMqXW6SRApvUT_TU-133" style="edgeStyle=orthogonalEdgeStyle;rounded=0;orthogonalLoop=1;jettySize=auto;html=1;entryX=0;entryY=0.5;entryDx=0;entryDy=0;entryPerimeter=0;labelBackgroundColor=none;" parent="JTD2nMqXW6SRApvUT_TU-120" source="JTD2nMqXW6SRApvUT_TU-130" target="JTD2nMqXW6SRApvUT_TU-132" edge="1">
          <mxGeometry relative="1" as="geometry" />
        </mxCell>
        <mxCell id="JTD2nMqXW6SRApvUT_TU-226" value="" style="group;labelBackgroundColor=none;" parent="JTD2nMqXW6SRApvUT_TU-120" vertex="1" connectable="0">
          <mxGeometry x="2220" y="-20" width="145" height="60" as="geometry" />
        </mxCell>
        <mxCell id="JTD2nMqXW6SRApvUT_TU-227" value="" style="shape=mxgraph.bpmn.data;labelPosition=center;verticalLabelPosition=bottom;align=center;verticalAlign=top;size=15;html=1;labelBackgroundColor=none;fillColor=#ffe6cc;strokeColor=#d79b00;" parent="JTD2nMqXW6SRApvUT_TU-226" vertex="1">
          <mxGeometry width="140" height="60" as="geometry" />
        </mxCell>
        <mxCell id="JTD2nMqXW6SRApvUT_TU-228" value="AuthN-Cookie" style="text;html=1;align=center;verticalAlign=middle;resizable=0;points=[];autosize=1;strokeColor=none;fillColor=none;fontFamily=Courier New;labelBackgroundColor=none;" parent="JTD2nMqXW6SRApvUT_TU-226" vertex="1">
          <mxGeometry x="15" y="15" width="110" height="30" as="geometry" />
        </mxCell>
        <mxCell id="JTD2nMqXW6SRApvUT_TU-229" value="" style="edgeStyle=elbowEdgeStyle;fontSize=12;html=1;endFill=0;startFill=0;endSize=6;startSize=6;dashed=1;dashPattern=1 4;endArrow=none;startArrow=none;rounded=0;exitX=0;exitY=0;exitDx=140;exitDy=37.5;exitPerimeter=0;entryX=0.5;entryY=0;entryDx=0;entryDy=0;entryPerimeter=0;labelBackgroundColor=none;" parent="JTD2nMqXW6SRApvUT_TU-120" source="JTD2nMqXW6SRApvUT_TU-227" target="JTD2nMqXW6SRApvUT_TU-132" edge="1">
          <mxGeometry width="160" relative="1" as="geometry">
            <mxPoint x="2240" as="sourcePoint" />
            <mxPoint x="2390" y="60" as="targetPoint" />
            <Array as="points">
              <mxPoint x="2390" y="30" />
            </Array>
          </mxGeometry>
        </mxCell>
        <mxCell id="JTD2nMqXW6SRApvUT_TU-124" value="" style="endArrow=blockThin;html=1;labelPosition=left;verticalLabelPosition=middle;align=right;verticalAlign=middle;dashed=1;dashPattern=8 4;endFill=0;startArrow=oval;startFill=0;endSize=6;startSize=4;rounded=0;exitX=0.5;exitY=1;exitDx=0;exitDy=0;exitPerimeter=0;entryX=0.5;entryY=0;entryDx=0;entryDy=0;entryPerimeter=0;labelBackgroundColor=none;" parent="JTD2nMqXW6SRApvUT_TU-34" source="JTD2nMqXW6SRApvUT_TU-121" target="JTD2nMqXW6SRApvUT_TU-123" edge="1">
          <mxGeometry relative="1" as="geometry">
            <mxPoint x="1890" y="200" as="sourcePoint" />
            <mxPoint x="2050" y="200" as="targetPoint" />
          </mxGeometry>
        </mxCell>
        <mxCell id="JTD2nMqXW6SRApvUT_TU-125" value="" style="shape=message;html=1;outlineConnect=0;labelPosition=left;verticalLabelPosition=middle;align=right;verticalAlign=middle;spacingRight=5;labelBackgroundColor=none;fillColor=#ffe6cc;strokeColor=#d79b00;" parent="JTD2nMqXW6SRApvUT_TU-124" vertex="1">
          <mxGeometry width="24" height="16" relative="1" as="geometry">
            <mxPoint x="8" y="-46" as="offset" />
          </mxGeometry>
        </mxCell>
        <mxCell id="JTD2nMqXW6SRApvUT_TU-135" value="" style="endArrow=blockThin;html=1;labelPosition=left;verticalLabelPosition=middle;align=right;verticalAlign=middle;dashed=1;dashPattern=8 4;endFill=0;startArrow=oval;startFill=0;endSize=6;startSize=4;rounded=0;exitX=0.5;exitY=0;exitDx=0;exitDy=0;exitPerimeter=0;entryX=0.5;entryY=1;entryDx=0;entryDy=0;entryPerimeter=0;labelBackgroundColor=none;" parent="JTD2nMqXW6SRApvUT_TU-34" source="JTD2nMqXW6SRApvUT_TU-132" target="JTD2nMqXW6SRApvUT_TU-230" edge="1">
          <mxGeometry relative="1" as="geometry">
            <mxPoint x="2200" y="-110" as="sourcePoint" />
            <mxPoint x="2410" y="210" as="targetPoint" />
          </mxGeometry>
        </mxCell>
        <mxCell id="JTD2nMqXW6SRApvUT_TU-136" value="" style="shape=message;html=1;outlineConnect=0;labelPosition=left;verticalLabelPosition=middle;align=right;verticalAlign=middle;spacingRight=5;labelBackgroundColor=none;fillColor=#ffe6cc;strokeColor=#d79b00;" parent="JTD2nMqXW6SRApvUT_TU-135" vertex="1">
          <mxGeometry width="24" height="16" relative="1" as="geometry">
            <mxPoint x="10" y="27" as="offset" />
          </mxGeometry>
        </mxCell>
        <mxCell id="JTD2nMqXW6SRApvUT_TU-39" value="Discovery Sevice" style="swimlane;html=1;childLayout=stackLayout;resizeParent=1;resizeParentMax=0;horizontal=0;startSize=20;horizontalStack=0;whiteSpace=wrap;labelBackgroundColor=none;strokeWidth=3;" parent="1" vertex="1">
          <mxGeometry x="110" y="-110" width="4350" height="150" as="geometry" />
        </mxCell>
        <mxCell id="JTD2nMqXW6SRApvUT_TU-40" value="Discovery Service" style="swimlane;html=1;startSize=20;horizontal=0;labelBackgroundColor=none;swimlaneFillColor=none;strokeWidth=2;" parent="JTD2nMqXW6SRApvUT_TU-39" vertex="1">
          <mxGeometry x="20" width="4330" height="150" as="geometry" />
        </mxCell>
        <mxCell id="JTD2nMqXW6SRApvUT_TU-54" value="" style="points=[[0.145,0.145,0],[0.5,0,0],[0.855,0.145,0],[1,0.5,0],[0.855,0.855,0],[0.5,1,0],[0.145,0.855,0],[0,0.5,0]];shape=mxgraph.bpmn.event;html=1;verticalLabelPosition=bottom;labelBackgroundColor=none;verticalAlign=top;align=center;perimeter=ellipsePerimeter;outlineConnect=0;aspect=fixed;outline=standard;symbol=message;fillColor=#d5e8d4;strokeColor=#82b366;" parent="JTD2nMqXW6SRApvUT_TU-40" vertex="1">
          <mxGeometry x="465" y="50" width="50" height="50" as="geometry" />
        </mxCell>
        <mxCell id="JTD2nMqXW6SRApvUT_TU-64" value="Ermittlung der&lt;br&gt;Identity Provider&lt;div&gt;Liste&lt;/div&gt;" style="points=[[0.25,0,0],[0.5,0,0],[0.75,0,0],[1,0.25,0],[1,0.5,0],[1,0.75,0],[0.75,1,0],[0.5,1,0],[0.25,1,0],[0,0.75,0],[0,0.5,0],[0,0.25,0]];shape=mxgraph.bpmn.task;whiteSpace=wrap;rectStyle=rounded;size=10;html=1;container=1;expand=0;collapsible=0;taskMarker=abstract;labelBackgroundColor=none;fillColor=#d5e8d4;strokeColor=#82b366;" parent="JTD2nMqXW6SRApvUT_TU-40" vertex="1">
          <mxGeometry x="580" y="35" width="120" height="80" as="geometry" />
        </mxCell>
        <mxCell id="JTD2nMqXW6SRApvUT_TU-65" style="edgeStyle=orthogonalEdgeStyle;rounded=0;orthogonalLoop=1;jettySize=auto;html=1;entryX=0;entryY=0.5;entryDx=0;entryDy=0;entryPerimeter=0;exitX=1;exitY=0.5;exitDx=0;exitDy=0;exitPerimeter=0;labelBackgroundColor=none;" parent="JTD2nMqXW6SRApvUT_TU-40" source="JTD2nMqXW6SRApvUT_TU-54" target="JTD2nMqXW6SRApvUT_TU-64" edge="1">
          <mxGeometry relative="1" as="geometry">
            <mxPoint x="690" y="75" as="sourcePoint" />
          </mxGeometry>
        </mxCell>
        <mxCell id="JTD2nMqXW6SRApvUT_TU-66" value="Absenden der verfÃ¼gbaren IdPs" style="points=[[0.25,0,0],[0.5,0,0],[0.75,0,0],[1,0.25,0],[1,0.5,0],[1,0.75,0],[0.75,1,0],[0.5,1,0],[0.25,1,0],[0,0.75,0],[0,0.5,0],[0,0.25,0]];shape=mxgraph.bpmn.task;whiteSpace=wrap;rectStyle=rounded;size=10;html=1;container=1;expand=0;collapsible=0;taskMarker=send;labelBackgroundColor=none;fillColor=#d5e8d4;strokeColor=#82b366;" parent="JTD2nMqXW6SRApvUT_TU-40" vertex="1">
          <mxGeometry x="750" y="35" width="120" height="80" as="geometry" />
        </mxCell>
        <mxCell id="JTD2nMqXW6SRApvUT_TU-67" style="edgeStyle=orthogonalEdgeStyle;rounded=0;orthogonalLoop=1;jettySize=auto;html=1;entryX=0;entryY=0.5;entryDx=0;entryDy=0;entryPerimeter=0;labelBackgroundColor=none;" parent="JTD2nMqXW6SRApvUT_TU-40" source="JTD2nMqXW6SRApvUT_TU-64" target="JTD2nMqXW6SRApvUT_TU-66" edge="1">
          <mxGeometry relative="1" as="geometry" />
        </mxCell>
        <mxCell id="JTD2nMqXW6SRApvUT_TU-77" value="" style="points=[[0.145,0.145,0],[0.5,0,0],[0.855,0.145,0],[1,0.5,0],[0.855,0.855,0],[0.5,1,0],[0.145,0.855,0],[0,0.5,0]];shape=mxgraph.bpmn.event;html=1;verticalLabelPosition=bottom;labelBackgroundColor=none;verticalAlign=top;align=center;perimeter=ellipsePerimeter;outlineConnect=0;aspect=fixed;outline=standard;symbol=message;fillColor=#d5e8d4;strokeColor=#82b366;" parent="JTD2nMqXW6SRApvUT_TU-40" vertex="1">
          <mxGeometry x="1315" y="50" width="50" height="50" as="geometry" />
        </mxCell>
        <mxCell id="JTD2nMqXW6SRApvUT_TU-80" value="Redirect" style="points=[[0.25,0,0],[0.5,0,0],[0.75,0,0],[1,0.25,0],[1,0.5,0],[1,0.75,0],[0.75,1,0],[0.5,1,0],[0.25,1,0],[0,0.75,0],[0,0.5,0],[0,0.25,0]];shape=mxgraph.bpmn.task;whiteSpace=wrap;rectStyle=rounded;size=10;html=1;container=1;expand=0;collapsible=0;taskMarker=send;labelBackgroundColor=none;fillColor=#d5e8d4;strokeColor=#82b366;" parent="JTD2nMqXW6SRApvUT_TU-40" vertex="1">
          <mxGeometry x="1420" y="35" width="120" height="80" as="geometry" />
        </mxCell>
        <mxCell id="JTD2nMqXW6SRApvUT_TU-81" style="edgeStyle=orthogonalEdgeStyle;rounded=0;orthogonalLoop=1;jettySize=auto;html=1;entryX=0;entryY=0.5;entryDx=0;entryDy=0;entryPerimeter=0;labelBackgroundColor=none;" parent="JTD2nMqXW6SRApvUT_TU-40" source="JTD2nMqXW6SRApvUT_TU-77" target="JTD2nMqXW6SRApvUT_TU-80" edge="1">
          <mxGeometry relative="1" as="geometry" />
        </mxCell>
        <mxCell id="JTD2nMqXW6SRApvUT_TU-50" value="" style="endArrow=blockThin;html=1;labelPosition=left;verticalLabelPosition=middle;align=right;verticalAlign=middle;dashed=1;dashPattern=8 4;endFill=0;startArrow=oval;startFill=0;endSize=6;startSize=4;rounded=0;exitX=0.5;exitY=1;exitDx=0;exitDy=0;exitPerimeter=0;entryX=0.5;entryY=0;entryDx=0;entryDy=0;entryPerimeter=0;labelBackgroundColor=none;" parent="1" source="JTD2nMqXW6SRApvUT_TU-46" target="JTD2nMqXW6SRApvUT_TU-48" edge="1">
          <mxGeometry relative="1" as="geometry">
            <mxPoint x="510" y="-270" as="sourcePoint" />
            <mxPoint x="670" y="-270" as="targetPoint" />
          </mxGeometry>
        </mxCell>
        <mxCell id="JTD2nMqXW6SRApvUT_TU-51" value="" style="shape=message;html=1;outlineConnect=0;labelPosition=left;verticalLabelPosition=middle;align=right;verticalAlign=middle;spacingRight=5;labelBackgroundColor=none;fillColor=#d5e8d4;strokeColor=#82b366;" parent="JTD2nMqXW6SRApvUT_TU-50" vertex="1">
          <mxGeometry width="24" height="16" relative="1" as="geometry">
            <mxPoint x="8" y="-8" as="offset" />
          </mxGeometry>
        </mxCell>
        <mxCell id="JTD2nMqXW6SRApvUT_TU-55" value="" style="endArrow=blockThin;html=1;labelPosition=left;verticalLabelPosition=middle;align=right;verticalAlign=middle;dashed=1;dashPattern=8 4;endFill=0;startArrow=oval;startFill=0;endSize=6;startSize=4;rounded=0;exitX=0.5;exitY=1;exitDx=0;exitDy=0;exitPerimeter=0;labelBackgroundColor=none;" parent="1" source="JTD2nMqXW6SRApvUT_TU-52" target="JTD2nMqXW6SRApvUT_TU-54" edge="1">
          <mxGeometry relative="1" as="geometry">
            <mxPoint x="540" y="-120" as="sourcePoint" />
            <mxPoint x="540" y="-25" as="targetPoint" />
          </mxGeometry>
        </mxCell>
        <mxCell id="JTD2nMqXW6SRApvUT_TU-56" value="" style="shape=message;html=1;outlineConnect=0;labelPosition=left;verticalLabelPosition=middle;align=right;verticalAlign=middle;spacingRight=5;labelBackgroundColor=none;fillColor=#d5e8d4;strokeColor=#82b366;" parent="JTD2nMqXW6SRApvUT_TU-55" vertex="1">
          <mxGeometry width="24" height="16" relative="1" as="geometry">
            <mxPoint x="8" y="-12" as="offset" />
          </mxGeometry>
        </mxCell>
        <mxCell id="JTD2nMqXW6SRApvUT_TU-59" value="" style="edgeStyle=elbowEdgeStyle;fontSize=12;html=1;endFill=0;startFill=0;endSize=6;startSize=6;dashed=1;dashPattern=1 4;endArrow=none;startArrow=none;rounded=0;exitX=0;exitY=0;exitDx=140;exitDy=37.5;exitPerimeter=0;labelBackgroundColor=none;" parent="1" source="JTD2nMqXW6SRApvUT_TU-53" edge="1">
          <mxGeometry width="160" relative="1" as="geometry">
            <mxPoint x="500" y="-110" as="sourcePoint" />
            <mxPoint x="620" y="-60" as="targetPoint" />
            <Array as="points">
              <mxPoint x="620" y="-80" />
            </Array>
          </mxGeometry>
        </mxCell>
        <mxCell id="JTD2nMqXW6SRApvUT_TU-69" value="" style="endArrow=blockThin;html=1;labelPosition=left;verticalLabelPosition=middle;align=right;verticalAlign=middle;dashed=1;dashPattern=8 4;endFill=0;startArrow=oval;startFill=0;endSize=6;startSize=4;rounded=0;exitX=0.5;exitY=0;exitDx=0;exitDy=0;exitPerimeter=0;entryX=0.5;entryY=1;entryDx=0;entryDy=0;entryPerimeter=0;labelBackgroundColor=none;" parent="1" source="JTD2nMqXW6SRApvUT_TU-66" target="JTD2nMqXW6SRApvUT_TU-71" edge="1">
          <mxGeometry relative="1" as="geometry">
            <mxPoint x="590" y="-240" as="sourcePoint" />
            <mxPoint x="940" y="-470" as="targetPoint" />
          </mxGeometry>
        </mxCell>
        <mxCell id="JTD2nMqXW6SRApvUT_TU-70" value="" style="shape=message;html=1;outlineConnect=0;labelPosition=left;verticalLabelPosition=middle;align=right;verticalAlign=middle;spacingRight=5;labelBackgroundColor=none;fillColor=#d5e8d4;strokeColor=#82b366;" parent="JTD2nMqXW6SRApvUT_TU-69" vertex="1">
          <mxGeometry width="24" height="16" relative="1" as="geometry">
            <mxPoint x="8" y="182" as="offset" />
          </mxGeometry>
        </mxCell>
        <mxCell id="JTD2nMqXW6SRApvUT_TU-78" value="" style="endArrow=blockThin;html=1;labelPosition=left;verticalLabelPosition=middle;align=right;verticalAlign=middle;dashed=1;dashPattern=8 4;endFill=0;startArrow=oval;startFill=0;endSize=6;startSize=4;rounded=0;exitX=0.5;exitY=1;exitDx=0;exitDy=0;exitPerimeter=0;entryX=0.5;entryY=0;entryDx=0;entryDy=0;entryPerimeter=0;labelBackgroundColor=none;" parent="1" source="JTD2nMqXW6SRApvUT_TU-74" target="JTD2nMqXW6SRApvUT_TU-77" edge="1">
          <mxGeometry relative="1" as="geometry">
            <mxPoint x="1240" y="-240" as="sourcePoint" />
            <mxPoint x="1400" y="-240" as="targetPoint" />
          </mxGeometry>
        </mxCell>
        <mxCell id="JTD2nMqXW6SRApvUT_TU-79" value="" style="shape=message;html=1;outlineConnect=0;labelPosition=left;verticalLabelPosition=middle;align=right;verticalAlign=middle;spacingRight=5;labelBackgroundColor=none;fillColor=#d5e8d4;strokeColor=#82b366;" parent="JTD2nMqXW6SRApvUT_TU-78" vertex="1">
          <mxGeometry width="24" height="16" relative="1" as="geometry">
            <mxPoint x="10" y="-166" as="offset" />
          </mxGeometry>
        </mxCell>
        <mxCell id="JTD2nMqXW6SRApvUT_TU-83" value="" style="endArrow=blockThin;html=1;labelPosition=left;verticalLabelPosition=middle;align=right;verticalAlign=middle;dashed=1;dashPattern=8 4;endFill=0;startArrow=oval;startFill=0;endSize=6;startSize=4;rounded=0;exitX=0.5;exitY=0;exitDx=0;exitDy=0;exitPerimeter=0;labelBackgroundColor=none;" parent="1" source="JTD2nMqXW6SRApvUT_TU-80" target="JTD2nMqXW6SRApvUT_TU-82" edge="1">
          <mxGeometry relative="1" as="geometry">
            <mxPoint x="1610" y="-110" as="sourcePoint" />
            <mxPoint x="1650" y="10" as="targetPoint" />
          </mxGeometry>
        </mxCell>
        <mxCell id="JTD2nMqXW6SRApvUT_TU-84" value="" style="shape=message;html=1;outlineConnect=0;labelPosition=left;verticalLabelPosition=middle;align=right;verticalAlign=middle;spacingRight=5;labelBackgroundColor=none;fillColor=#d5e8d4;strokeColor=#82b366;" parent="JTD2nMqXW6SRApvUT_TU-83" vertex="1">
          <mxGeometry width="24" height="16" relative="1" as="geometry">
            <mxPoint x="-30" y="38" as="offset" />
          </mxGeometry>
        </mxCell>
        <mxCell id="JTD2nMqXW6SRApvUT_TU-89" value="" style="edgeStyle=elbowEdgeStyle;fontSize=12;html=1;endFill=0;startFill=0;endSize=6;startSize=6;dashed=1;dashPattern=1 4;endArrow=none;startArrow=none;rounded=0;exitX=0;exitY=0.5;exitDx=0;exitDy=0;exitPerimeter=0;labelBackgroundColor=none;" parent="1" source="JTD2nMqXW6SRApvUT_TU-86" edge="1">
          <mxGeometry width="160" relative="1" as="geometry">
            <mxPoint x="1550" y="16" as="sourcePoint" />
            <mxPoint x="1610" y="-264" as="targetPoint" />
            <Array as="points">
              <mxPoint x="1610" y="-194" />
            </Array>
          </mxGeometry>
        </mxCell>
        <mxCell id="JTD2nMqXW6SRApvUT_TU-97" value="" style="endArrow=blockThin;html=1;labelPosition=left;verticalLabelPosition=middle;align=right;verticalAlign=middle;dashed=1;dashPattern=8 4;endFill=0;startArrow=oval;startFill=0;endSize=6;startSize=4;rounded=0;exitX=0.5;exitY=1;exitDx=0;exitDy=0;exitPerimeter=0;entryX=0.5;entryY=0;entryDx=0;entryDy=0;entryPerimeter=0;labelBackgroundColor=none;" parent="1" source="JTD2nMqXW6SRApvUT_TU-94" target="JTD2nMqXW6SRApvUT_TU-96" edge="1">
          <mxGeometry relative="1" as="geometry">
            <mxPoint x="1820" y="-40" as="sourcePoint" />
            <mxPoint x="1980" y="-40" as="targetPoint" />
          </mxGeometry>
        </mxCell>
        <mxCell id="JTD2nMqXW6SRApvUT_TU-98" value="" style="shape=message;html=1;outlineConnect=0;labelPosition=left;verticalLabelPosition=middle;align=right;verticalAlign=middle;spacingRight=5;labelBackgroundColor=none;fillColor=#ffe6cc;strokeColor=#d79b00;" parent="JTD2nMqXW6SRApvUT_TU-97" vertex="1">
          <mxGeometry width="24" height="16" relative="1" as="geometry">
            <mxPoint x="-32" y="-143" as="offset" />
          </mxGeometry>
        </mxCell>
        <mxCell id="JTD2nMqXW6SRApvUT_TU-142" value="" style="endArrow=blockThin;html=1;labelPosition=left;verticalLabelPosition=middle;align=right;verticalAlign=middle;dashed=1;dashPattern=8 4;endFill=0;startArrow=oval;startFill=0;endSize=6;startSize=4;rounded=0;exitX=0.5;exitY=1;exitDx=0;exitDy=0;exitPerimeter=0;entryX=0.5;entryY=0;entryDx=0;entryDy=0;entryPerimeter=0;labelBackgroundColor=none;" parent="1" source="JTD2nMqXW6SRApvUT_TU-139" target="JTD2nMqXW6SRApvUT_TU-141" edge="1">
          <mxGeometry relative="1" as="geometry">
            <mxPoint x="2550" y="-180" as="sourcePoint" />
            <mxPoint x="2710" y="-180" as="targetPoint" />
          </mxGeometry>
        </mxCell>
        <mxCell id="JTD2nMqXW6SRApvUT_TU-143" value="" style="shape=message;html=1;outlineConnect=0;labelPosition=left;verticalLabelPosition=middle;align=right;verticalAlign=middle;spacingRight=5;labelBackgroundColor=none;fillColor=#e1d5e7;strokeColor=#9673a6;" parent="JTD2nMqXW6SRApvUT_TU-142" vertex="1">
          <mxGeometry width="24" height="16" relative="1" as="geometry">
            <mxPoint x="8" y="-256" as="offset" />
          </mxGeometry>
        </mxCell>
        <mxCell id="JTD2nMqXW6SRApvUT_TU-144" value="" style="group;labelBackgroundColor=none;" parent="1" vertex="1" connectable="0">
          <mxGeometry x="2660" y="-460" width="140" height="60" as="geometry" />
        </mxCell>
        <mxCell id="JTD2nMqXW6SRApvUT_TU-145" value="" style="shape=mxgraph.bpmn.data;labelPosition=center;verticalLabelPosition=bottom;align=center;verticalAlign=top;size=15;html=1;labelBackgroundColor=none;fillColor=#e1d5e7;strokeColor=#9673a6;" parent="JTD2nMqXW6SRApvUT_TU-144" vertex="1">
          <mxGeometry width="140" height="60" as="geometry" />
        </mxCell>
        <mxCell id="JTD2nMqXW6SRApvUT_TU-146" value="&lt;div&gt;Anmeldedaten&lt;/div&gt;&lt;div&gt;AuthN-Cookie&lt;br&gt;&lt;/div&gt;" style="text;html=1;align=center;verticalAlign=middle;resizable=0;points=[];autosize=1;strokeColor=none;fillColor=none;fontFamily=Courier New;labelBackgroundColor=none;" parent="JTD2nMqXW6SRApvUT_TU-144" vertex="1">
          <mxGeometry x="15" y="10" width="110" height="40" as="geometry" />
        </mxCell>
        <mxCell id="JTD2nMqXW6SRApvUT_TU-164" value="" style="endArrow=blockThin;html=1;labelPosition=left;verticalLabelPosition=middle;align=right;verticalAlign=middle;dashed=1;dashPattern=8 4;endFill=0;startArrow=oval;startFill=0;endSize=6;startSize=4;rounded=0;exitX=0.5;exitY=0;exitDx=0;exitDy=0;exitPerimeter=0;entryX=0.5;entryY=1;entryDx=0;entryDy=0;entryPerimeter=0;labelBackgroundColor=none;" parent="1" source="JTD2nMqXW6SRApvUT_TU-161" edge="1">
          <mxGeometry relative="1" as="geometry">
            <mxPoint x="3560" y="-30" as="sourcePoint" />
            <mxPoint x="3670" y="-250" as="targetPoint" />
          </mxGeometry>
        </mxCell>
        <mxCell id="JTD2nMqXW6SRApvUT_TU-165" value="" style="shape=message;html=1;outlineConnect=0;labelPosition=left;verticalLabelPosition=middle;align=right;verticalAlign=middle;spacingRight=5;labelBackgroundColor=none;fillColor=#e1d5e7;strokeColor=#9673a6;" parent="JTD2nMqXW6SRApvUT_TU-164" vertex="1">
          <mxGeometry width="24" height="16" relative="1" as="geometry">
            <mxPoint x="8" y="120" as="offset" />
          </mxGeometry>
        </mxCell>
        <mxCell id="JTD2nMqXW6SRApvUT_TU-180" value="" style="points=[[0.145,0.145,0],[0.5,0,0],[0.855,0.145,0],[1,0.5,0],[0.855,0.855,0],[0.5,1,0],[0.145,0.855,0],[0,0.5,0]];shape=mxgraph.bpmn.event;html=1;verticalLabelPosition=bottom;labelBackgroundColor=none;verticalAlign=top;align=center;perimeter=ellipsePerimeter;outlineConnect=0;aspect=fixed;outline=standard;symbol=message;fillColor=#e1d5e7;strokeColor=#9673a6;" parent="1" vertex="1">
          <mxGeometry x="3645" y="-300" width="50" height="50" as="geometry" />
        </mxCell>
        <mxCell id="JTD2nMqXW6SRApvUT_TU-182" value="" style="endArrow=blockThin;html=1;labelPosition=left;verticalLabelPosition=middle;align=right;verticalAlign=middle;dashed=1;dashPattern=8 4;endFill=0;startArrow=oval;startFill=0;endSize=6;startSize=4;rounded=0;exitX=0.5;exitY=0;exitDx=0;exitDy=0;exitPerimeter=0;entryX=0.5;entryY=1;entryDx=0;entryDy=0;entryPerimeter=0;labelBackgroundColor=none;" parent="1" source="JTD2nMqXW6SRApvUT_TU-177" target="JTD2nMqXW6SRApvUT_TU-181" edge="1">
          <mxGeometry relative="1" as="geometry">
            <mxPoint x="3890" y="-370" as="sourcePoint" />
            <mxPoint x="4050" y="-370" as="targetPoint" />
          </mxGeometry>
        </mxCell>
        <mxCell id="JTD2nMqXW6SRApvUT_TU-183" value="" style="shape=message;html=1;outlineConnect=0;labelPosition=left;verticalLabelPosition=middle;align=right;verticalAlign=middle;spacingRight=5;labelBackgroundColor=none;fillColor=#e1d5e7;strokeColor=#9673a6;" parent="JTD2nMqXW6SRApvUT_TU-182" vertex="1">
          <mxGeometry width="24" height="16" relative="1" as="geometry">
            <mxPoint x="8" y="35" as="offset" />
          </mxGeometry>
        </mxCell>
        <mxCell id="JTD2nMqXW6SRApvUT_TU-187" value="" style="edgeStyle=elbowEdgeStyle;fontSize=12;html=1;endFill=0;startFill=0;endSize=6;startSize=6;dashed=1;dashPattern=1 4;endArrow=none;startArrow=none;rounded=0;labelBackgroundColor=none;" parent="1" edge="1">
          <mxGeometry width="160" relative="1" as="geometry">
            <mxPoint x="3960" y="-360" as="sourcePoint" />
            <mxPoint x="3980" y="-490" as="targetPoint" />
            <Array as="points">
              <mxPoint x="3980" y="-420" />
            </Array>
          </mxGeometry>
        </mxCell>
        <mxCell id="JTD2nMqXW6SRApvUT_TU-214" value="" style="endArrow=blockThin;html=1;labelPosition=left;verticalLabelPosition=middle;align=right;verticalAlign=middle;dashed=1;dashPattern=8 4;endFill=0;startArrow=oval;startFill=0;endSize=6;startSize=4;rounded=0;exitX=1;exitY=0.5;exitDx=0;exitDy=0;exitPerimeter=0;entryX=0.5;entryY=0;entryDx=0;entryDy=0;entryPerimeter=0;labelBackgroundColor=none;" parent="1" source="JTD2nMqXW6SRApvUT_TU-205" target="JTD2nMqXW6SRApvUT_TU-207" edge="1">
          <mxGeometry relative="1" as="geometry">
            <mxPoint x="2465" y="-338" as="sourcePoint" />
            <mxPoint x="2625" y="-338" as="targetPoint" />
            <Array as="points">
              <mxPoint x="2360" y="-355" />
              <mxPoint x="2360" y="-570" />
              <mxPoint x="4120" y="-570" />
            </Array>
          </mxGeometry>
        </mxCell>
        <mxCell id="JTD2nMqXW6SRApvUT_TU-215" value="" style="shape=message;html=1;outlineConnect=0;labelPosition=left;verticalLabelPosition=middle;align=right;verticalAlign=middle;spacingRight=5;labelBackgroundColor=none;fillColor=#e1d5e7;strokeColor=#9673a6;" parent="JTD2nMqXW6SRApvUT_TU-214" vertex="1">
          <mxGeometry width="24" height="16" relative="1" as="geometry">
            <mxPoint x="-757" y="175" as="offset" />
          </mxGeometry>
        </mxCell>
        <mxCell id="JTD2nMqXW6SRApvUT_TU-61" value="" style="group;labelBackgroundColor=none;" parent="1" vertex="1" connectable="0">
          <mxGeometry x="430" y="-160" width="140" height="60" as="geometry" />
        </mxCell>
        <mxCell id="JTD2nMqXW6SRApvUT_TU-53" value="" style="shape=mxgraph.bpmn.data;labelPosition=center;verticalLabelPosition=bottom;align=center;verticalAlign=top;size=15;html=1;labelBackgroundColor=none;fillColor=#d5e8d4;strokeColor=#82b366;" parent="JTD2nMqXW6SRApvUT_TU-61" vertex="1">
          <mxGeometry width="140" height="60" as="geometry" />
        </mxCell>
        <mxCell id="JTD2nMqXW6SRApvUT_TU-60" value="&lt;div&gt;Set-Cookie&lt;/div&gt;&lt;div&gt;entityID&lt;/div&gt;&lt;div&gt;return URL&lt;br&gt;&lt;/div&gt;" style="text;html=1;align=center;verticalAlign=middle;resizable=0;points=[];autosize=1;fontFamily=Courier New;labelBackgroundColor=none;" parent="JTD2nMqXW6SRApvUT_TU-61" vertex="1">
          <mxGeometry x="20" width="100" height="60" as="geometry" />
        </mxCell>
        <mxCell id="JTD2nMqXW6SRApvUT_TU-217" value="" style="group;labelBackgroundColor=none;" parent="1" vertex="1" connectable="0">
          <mxGeometry x="1290" y="-462" width="140" height="65" as="geometry" />
        </mxCell>
        <mxCell id="JTD2nMqXW6SRApvUT_TU-218" value="" style="shape=mxgraph.bpmn.data;labelPosition=center;verticalLabelPosition=bottom;align=center;verticalAlign=top;size=15;html=1;labelBackgroundColor=none;fillColor=#d5e8d4;strokeColor=#82b366;" parent="JTD2nMqXW6SRApvUT_TU-217" vertex="1">
          <mxGeometry width="140" height="60" as="geometry" />
        </mxCell>
        <mxCell id="JTD2nMqXW6SRApvUT_TU-219" value="&lt;div&gt;entityID&lt;/div&gt;&lt;div&gt;Return-URL&lt;/div&gt;&lt;div&gt;Auth.-Protokoll&lt;/div&gt;&lt;div&gt;Target&lt;br&gt;&lt;/div&gt;" style="text;html=1;align=center;verticalAlign=middle;resizable=0;points=[];autosize=1;strokeColor=none;fillColor=none;fontFamily=Courier New;labelBackgroundColor=none;" parent="JTD2nMqXW6SRApvUT_TU-217" vertex="1">
          <mxGeometry x="5" y="-5" width="130" height="70" as="geometry" />
        </mxCell>
        <mxCell id="JTD2nMqXW6SRApvUT_TU-220" value="" style="edgeStyle=elbowEdgeStyle;fontSize=12;html=1;endFill=0;startFill=0;endSize=6;startSize=6;dashed=1;dashPattern=1 4;endArrow=none;startArrow=none;rounded=0;exitX=0;exitY=0;exitDx=140;exitDy=37.5;exitPerimeter=0;labelBackgroundColor=none;" parent="1" source="JTD2nMqXW6SRApvUT_TU-218" edge="1">
          <mxGeometry width="160" relative="1" as="geometry">
            <mxPoint x="1430" y="-492" as="sourcePoint" />
            <mxPoint x="1470" y="-60" as="targetPoint" />
            <Array as="points">
              <mxPoint x="1470" y="-382" />
            </Array>
          </mxGeometry>
        </mxCell>
        <mxCell id="JTD2nMqXW6SRApvUT_TU-233" value="" style="endArrow=blockThin;html=1;labelPosition=left;verticalLabelPosition=middle;align=right;verticalAlign=middle;dashed=1;dashPattern=8 4;endFill=0;startArrow=oval;startFill=0;endSize=6;startSize=4;rounded=0;exitX=0.5;exitY=0;exitDx=0;exitDy=0;exitPerimeter=0;entryX=0.5;entryY=1;entryDx=0;entryDy=0;entryPerimeter=0;labelBackgroundColor=none;" parent="1" source="JTD2nMqXW6SRApvUT_TU-231" target="JTD2nMqXW6SRApvUT_TU-134" edge="1">
          <mxGeometry relative="1" as="geometry">
            <mxPoint x="2510" y="100" as="sourcePoint" />
            <mxPoint x="2670" y="100" as="targetPoint" />
          </mxGeometry>
        </mxCell>
        <mxCell id="JTD2nMqXW6SRApvUT_TU-234" value="" style="shape=message;html=1;outlineConnect=0;labelPosition=left;verticalLabelPosition=middle;align=right;verticalAlign=middle;spacingRight=5;labelBackgroundColor=none;fillColor=#ffe6cc;strokeColor=#d79b00;" parent="JTD2nMqXW6SRApvUT_TU-233" vertex="1">
          <mxGeometry width="24" height="16" relative="1" as="geometry">
            <mxPoint x="8" y="240" as="offset" />
          </mxGeometry>
        </mxCell>
        <mxCell id="JTD2nMqXW6SRApvUT_TU-235" value="" style="group;labelBackgroundColor=none;" parent="1" vertex="1" connectable="0">
          <mxGeometry x="2350" y="25" width="145" height="60" as="geometry" />
        </mxCell>
        <mxCell id="JTD2nMqXW6SRApvUT_TU-236" value="" style="shape=mxgraph.bpmn.data;labelPosition=center;verticalLabelPosition=bottom;align=center;verticalAlign=top;size=15;html=1;labelBackgroundColor=none;fillColor=#ffe6cc;strokeColor=#d79b00;" parent="JTD2nMqXW6SRApvUT_TU-235" vertex="1">
          <mxGeometry width="140" height="60" as="geometry" />
        </mxCell>
        <mxCell id="JTD2nMqXW6SRApvUT_TU-237" value="AuthN-Cookie" style="text;html=1;align=center;verticalAlign=middle;resizable=0;points=[];autosize=1;strokeColor=none;fillColor=none;fontFamily=Courier New;labelBackgroundColor=none;" parent="JTD2nMqXW6SRApvUT_TU-235" vertex="1">
          <mxGeometry x="15" y="15" width="110" height="30" as="geometry" />
        </mxCell>
        <mxCell id="JTD2nMqXW6SRApvUT_TU-240" value="" style="edgeStyle=elbowEdgeStyle;fontSize=12;html=1;endFill=0;startFill=0;endSize=6;startSize=6;dashed=1;dashPattern=1 4;endArrow=none;startArrow=none;rounded=0;exitX=0.999;exitY=0.535;exitDx=0;exitDy=0;exitPerimeter=0;entryX=0.5;entryY=0;entryDx=0;entryDy=0;entryPerimeter=0;labelBackgroundColor=none;" parent="1" source="JTD2nMqXW6SRApvUT_TU-236" target="JTD2nMqXW6SRApvUT_TU-231" edge="1">
          <mxGeometry width="160" relative="1" as="geometry">
            <mxPoint x="2500" y="200" as="sourcePoint" />
            <mxPoint x="2660" y="200" as="targetPoint" />
            <Array as="points">
              <mxPoint x="2520" y="80" />
            </Array>
          </mxGeometry>
        </mxCell>
        <mxCell id="JTD2nMqXW6SRApvUT_TU-242" value="" style="group;labelBackgroundColor=none;" parent="1" vertex="1" connectable="0">
          <mxGeometry x="3510" y="20" width="145" height="60" as="geometry" />
        </mxCell>
        <mxCell id="JTD2nMqXW6SRApvUT_TU-243" value="" style="shape=mxgraph.bpmn.data;labelPosition=center;verticalLabelPosition=bottom;align=center;verticalAlign=top;size=15;html=1;labelBackgroundColor=none;fillColor=#e1d5e7;strokeColor=#9673a6;" parent="JTD2nMqXW6SRApvUT_TU-242" vertex="1">
          <mxGeometry width="140" height="60" as="geometry" />
        </mxCell>
        <mxCell id="JTD2nMqXW6SRApvUT_TU-244" value="&lt;div&gt;SAMLResponse&lt;/div&gt;&lt;div&gt;shibstate-Cookie&lt;br&gt;&lt;/div&gt;" style="text;html=1;align=center;verticalAlign=middle;resizable=0;points=[];autosize=1;strokeColor=none;fillColor=none;fontFamily=Courier New;labelBackgroundColor=none;" parent="JTD2nMqXW6SRApvUT_TU-242" vertex="1">
          <mxGeometry y="10" width="140" height="40" as="geometry" />
        </mxCell>
        <mxCell id="JTD2nMqXW6SRApvUT_TU-174" value="" style="edgeStyle=elbowEdgeStyle;fontSize=12;html=1;endFill=0;startFill=0;endSize=6;startSize=6;dashed=1;dashPattern=1 4;endArrow=none;startArrow=none;rounded=0;exitX=1.001;exitY=0.563;exitDx=0;exitDy=0;exitPerimeter=0;entryX=0.5;entryY=1;entryDx=0;entryDy=0;entryPerimeter=0;labelBackgroundColor=none;" parent="1" source="JTD2nMqXW6SRApvUT_TU-244" target="JTD2nMqXW6SRApvUT_TU-180" edge="1">
          <mxGeometry width="160" relative="1" as="geometry">
            <mxPoint x="3649.3" y="-36.960000000000036" as="sourcePoint" />
            <mxPoint x="3675" y="-343" as="targetPoint" />
            <Array as="points">
              <mxPoint x="3670" y="-70" />
            </Array>
          </mxGeometry>
        </mxCell>
        <mxCell id="JTD2nMqXW6SRApvUT_TU-85" value="" style="group;labelBackgroundColor=none;" parent="1" vertex="1" connectable="0">
          <mxGeometry x="1635" y="-154" width="140" height="60" as="geometry" />
        </mxCell>
        <mxCell id="JTD2nMqXW6SRApvUT_TU-86" value="" style="shape=mxgraph.bpmn.data;labelPosition=center;verticalLabelPosition=bottom;align=center;verticalAlign=top;size=15;html=1;labelBackgroundColor=none;fillColor=#d5e8d4;strokeColor=#82b366;" parent="JTD2nMqXW6SRApvUT_TU-85" vertex="1">
          <mxGeometry width="140" height="60" as="geometry" />
        </mxCell>
        <mxCell id="JTD2nMqXW6SRApvUT_TU-87" value="&lt;div&gt;Auth.-Protokoll&lt;/div&gt;&lt;div&gt;Target&lt;/div&gt;&lt;div&gt;entityID&lt;br&gt;&lt;/div&gt;" style="text;html=1;align=center;verticalAlign=middle;resizable=0;points=[];autosize=1;strokeColor=none;fillColor=none;fontFamily=Courier New;labelBackgroundColor=none;" parent="JTD2nMqXW6SRApvUT_TU-85" vertex="1">
          <mxGeometry x="5" width="130" height="60" as="geometry" />
        </mxCell>
        <mxCell id="mQIjWDaoDwh8q7IW5GbV-71" value="Ressource" style="swimlane;html=1;childLayout=stackLayout;resizeParent=1;resizeParentMax=0;horizontal=0;startSize=20;horizontalStack=0;whiteSpace=wrap;labelBackgroundColor=none;strokeWidth=3;" parent="1" vertex="1">
          <mxGeometry x="180" y="-2870" width="1090" height="250" as="geometry" />
        </mxCell>
        <mxCell id="mQIjWDaoDwh8q7IW5GbV-72" value="Service Provider" style="swimlane;html=1;startSize=20;horizontal=0;fillColor=default;swimlaneFillColor=none;labelBackgroundColor=none;strokeWidth=2;" parent="mQIjWDaoDwh8q7IW5GbV-71" vertex="1">
          <mxGeometry x="20" width="1070" height="250" as="geometry" />
        </mxCell>
        <mxCell id="mQIjWDaoDwh8q7IW5GbV-73" value="PrÃ¼fung Cookies auf&lt;font face=&quot;Courier New&quot;&gt; shibsession&lt;/font&gt;" style="points=[[0.25,0,0],[0.5,0,0],[0.75,0,0],[1,0.25,0],[1,0.5,0],[1,0.75,0],[0.75,1,0],[0.5,1,0],[0.25,1,0],[0,0.75,0],[0,0.5,0],[0,0.25,0]];shape=mxgraph.bpmn.task;whiteSpace=wrap;rectStyle=rounded;size=10;html=1;container=1;expand=0;collapsible=0;taskMarker=abstract;labelBackgroundColor=none;fillColor=#d5e8d4;strokeColor=#82b366;" parent="mQIjWDaoDwh8q7IW5GbV-72" vertex="1">
          <mxGeometry x="200" y="15" width="120" height="80" as="geometry" />
        </mxCell>
        <mxCell id="mQIjWDaoDwh8q7IW5GbV-74" value="" style="points=[[0.25,0.25,0],[0.5,0,0],[0.75,0.25,0],[1,0.5,0],[0.75,0.75,0],[0.5,1,0],[0.25,0.75,0],[0,0.5,0]];shape=mxgraph.bpmn.gateway2;html=1;verticalLabelPosition=bottom;labelBackgroundColor=none;verticalAlign=top;align=center;perimeter=rhombusPerimeter;outlineConnect=0;outline=none;symbol=none;gwType=exclusive;fillColor=#d5e8d4;strokeColor=#82b366;" parent="mQIjWDaoDwh8q7IW5GbV-72" vertex="1">
          <mxGeometry x="365" y="30" width="50" height="50" as="geometry" />
        </mxCell>
        <mxCell id="mQIjWDaoDwh8q7IW5GbV-76" style="edgeStyle=orthogonalEdgeStyle;rounded=0;orthogonalLoop=1;jettySize=auto;html=1;entryX=0.5;entryY=0;entryDx=0;entryDy=0;entryPerimeter=0;verticalAlign=middle;labelBackgroundColor=none;" parent="mQIjWDaoDwh8q7IW5GbV-72" source="mQIjWDaoDwh8q7IW5GbV-74" target="mQIjWDaoDwh8q7IW5GbV-80" edge="1">
          <mxGeometry relative="1" as="geometry">
            <mxPoint x="390" y="140" as="targetPoint" />
          </mxGeometry>
        </mxCell>
        <mxCell id="mQIjWDaoDwh8q7IW5GbV-77" value="&lt;div&gt;keine aktive&lt;/div&gt;&lt;div&gt;Shibboleth-Session&lt;/div&gt;" style="edgeLabel;html=1;align=center;verticalAlign=middle;resizable=0;points=[];labelBackgroundColor=default;" parent="mQIjWDaoDwh8q7IW5GbV-76" vertex="1" connectable="0">
          <mxGeometry x="0.15" y="2" relative="1" as="geometry">
            <mxPoint x="-2" y="-10" as="offset" />
          </mxGeometry>
        </mxCell>
        <mxCell id="mQIjWDaoDwh8q7IW5GbV-78" value="" style="points=[[0.145,0.145,0],[0.5,0,0],[0.855,0.145,0],[1,0.5,0],[0.855,0.855,0],[0.5,1,0],[0.145,0.855,0],[0,0.5,0]];shape=mxgraph.bpmn.event;html=1;verticalLabelPosition=bottom;labelBackgroundColor=none;verticalAlign=top;align=center;perimeter=ellipsePerimeter;outlineConnect=0;aspect=fixed;outline=standard;symbol=message;fillColor=#d5e8d4;strokeColor=#82b366;" parent="mQIjWDaoDwh8q7IW5GbV-72" vertex="1">
          <mxGeometry x="105" y="30" width="50" height="50" as="geometry" />
        </mxCell>
        <mxCell id="mQIjWDaoDwh8q7IW5GbV-79" style="edgeStyle=orthogonalEdgeStyle;rounded=0;orthogonalLoop=1;jettySize=auto;html=1;entryX=0;entryY=0.5;entryDx=0;entryDy=0;entryPerimeter=0;labelBackgroundColor=none;" parent="mQIjWDaoDwh8q7IW5GbV-72" source="mQIjWDaoDwh8q7IW5GbV-78" target="mQIjWDaoDwh8q7IW5GbV-73" edge="1">
          <mxGeometry relative="1" as="geometry" />
        </mxCell>
        <mxCell id="mQIjWDaoDwh8q7IW5GbV-80" value="Redirect" style="points=[[0.25,0,0],[0.5,0,0],[0.75,0,0],[1,0.25,0],[1,0.5,0],[1,0.75,0],[0.75,1,0],[0.5,1,0],[0.25,1,0],[0,0.75,0],[0,0.5,0],[0,0.25,0]];shape=mxgraph.bpmn.task;whiteSpace=wrap;rectStyle=rounded;size=10;html=1;container=1;expand=0;collapsible=0;taskMarker=send;labelBackgroundColor=none;fillColor=#d5e8d4;strokeColor=#82b366;" parent="mQIjWDaoDwh8q7IW5GbV-72" vertex="1">
          <mxGeometry x="330" y="150" width="120" height="80" as="geometry" />
        </mxCell>
        <mxCell id="mQIjWDaoDwh8q7IW5GbV-81" style="edgeStyle=orthogonalEdgeStyle;rounded=0;orthogonalLoop=1;jettySize=auto;html=1;entryX=0;entryY=0.5;entryDx=0;entryDy=0;entryPerimeter=0;exitX=1;exitY=0.5;exitDx=0;exitDy=0;exitPerimeter=0;labelBackgroundColor=none;" parent="mQIjWDaoDwh8q7IW5GbV-72" source="mQIjWDaoDwh8q7IW5GbV-403" edge="1">
          <mxGeometry relative="1" as="geometry">
            <mxPoint x="475" y="-109" as="sourcePoint" />
            <mxPoint x="570" y="55" as="targetPoint" />
          </mxGeometry>
        </mxCell>
        <mxCell id="mQIjWDaoDwh8q7IW5GbV-83" style="edgeStyle=orthogonalEdgeStyle;rounded=0;orthogonalLoop=1;jettySize=auto;html=1;labelBackgroundColor=none;entryX=0.5;entryY=1;entryDx=0;entryDy=0;entryPerimeter=0;" parent="mQIjWDaoDwh8q7IW5GbV-72" source="mQIjWDaoDwh8q7IW5GbV-84" target="mQIjWDaoDwh8q7IW5GbV-404" edge="1">
          <mxGeometry relative="1" as="geometry">
            <mxPoint x="950" y="120" as="targetPoint" />
          </mxGeometry>
        </mxCell>
        <mxCell id="mQIjWDaoDwh8q7IW5GbV-84" value="" style="points=[[0.145,0.145,0],[0.5,0,0],[0.855,0.145,0],[1,0.5,0],[0.855,0.855,0],[0.5,1,0],[0.145,0.855,0],[0,0.5,0]];shape=mxgraph.bpmn.event;html=1;verticalLabelPosition=bottom;labelBackgroundColor=none;verticalAlign=top;align=center;perimeter=ellipsePerimeter;outlineConnect=0;aspect=fixed;outline=standard;symbol=message;fillColor=#ffe6cc;strokeColor=#d79b00;" parent="mQIjWDaoDwh8q7IW5GbV-72" vertex="1">
          <mxGeometry x="835" y="165" width="50" height="50" as="geometry" />
        </mxCell>
        <mxCell id="mQIjWDaoDwh8q7IW5GbV-404" value="Phase 2" style="points=[[0.145,0.145,0],[0.5,0,0],[0.855,0.145,0],[1,0.5,0],[0.855,0.855,0],[0.5,1,0],[0.145,0.855,0],[0,0.5,0]];shape=mxgraph.bpmn.event;html=1;verticalLabelPosition=top;labelBackgroundColor=none;verticalAlign=bottom;align=center;perimeter=ellipsePerimeter;outlineConnect=0;aspect=fixed;outline=end;symbol=terminate2;fillColor=#ffe6cc;strokeColor=#d79b00;labelPosition=center;" parent="mQIjWDaoDwh8q7IW5GbV-72" vertex="1">
          <mxGeometry x="835" y="80" width="50" height="50" as="geometry" />
        </mxCell>
        <mxCell id="mQIjWDaoDwh8q7IW5GbV-716" value="" style="edgeStyle=orthogonalEdgeStyle;rounded=0;orthogonalLoop=1;jettySize=auto;html=1;entryX=0;entryY=0.5;entryDx=0;entryDy=0;entryPerimeter=0;exitX=1;exitY=0.5;exitDx=0;exitDy=0;exitPerimeter=0;labelBackgroundColor=none;" parent="mQIjWDaoDwh8q7IW5GbV-72" source="mQIjWDaoDwh8q7IW5GbV-74" target="mQIjWDaoDwh8q7IW5GbV-403" edge="1">
          <mxGeometry relative="1" as="geometry">
            <mxPoint x="615" y="-2835" as="sourcePoint" />
            <mxPoint x="770" y="-2835" as="targetPoint" />
          </mxGeometry>
        </mxCell>
        <mxCell id="mQIjWDaoDwh8q7IW5GbV-717" value="&lt;div&gt;aktive Shibboleth-&lt;/div&gt;&lt;div&gt;Session&lt;/div&gt;" style="edgeLabel;html=1;align=center;verticalAlign=middle;resizable=0;points=[];labelBackgroundColor=none;" parent="mQIjWDaoDwh8q7IW5GbV-716" vertex="1" connectable="0">
          <mxGeometry x="-0.1962" relative="1" as="geometry">
            <mxPoint x="4" y="1" as="offset" />
          </mxGeometry>
        </mxCell>
        <mxCell id="mQIjWDaoDwh8q7IW5GbV-403" value="Phase 3" style="points=[[0.145,0.145,0],[0.5,0,0],[0.855,0.145,0],[1,0.5,0],[0.855,0.855,0],[0.5,1,0],[0.145,0.855,0],[0,0.5,0]];shape=mxgraph.bpmn.event;html=1;verticalLabelPosition=bottom;labelBackgroundColor=none;verticalAlign=top;align=center;perimeter=ellipsePerimeter;outlineConnect=0;aspect=fixed;outline=end;symbol=terminate2;fillColor=#e1d5e7;strokeColor=#9673a6;" parent="mQIjWDaoDwh8q7IW5GbV-72" vertex="1">
          <mxGeometry x="520" y="30" width="50" height="50" as="geometry" />
        </mxCell>
        <mxCell id="mQIjWDaoDwh8q7IW5GbV-720" style="edgeStyle=orthogonalEdgeStyle;rounded=0;orthogonalLoop=1;jettySize=auto;html=1;entryX=0;entryY=0.5;entryDx=0;entryDy=0;entryPerimeter=0;" parent="mQIjWDaoDwh8q7IW5GbV-72" source="mQIjWDaoDwh8q7IW5GbV-73" target="mQIjWDaoDwh8q7IW5GbV-74" edge="1">
          <mxGeometry relative="1" as="geometry" />
        </mxCell>
        <mxCell id="mQIjWDaoDwh8q7IW5GbV-107" value="Benutzer:in" style="swimlane;html=1;childLayout=stackLayout;resizeParent=1;resizeParentMax=0;horizontal=0;startSize=20;horizontalStack=0;whiteSpace=wrap;swimlaneFillColor=none;fillColor=none;strokeColor=#000000;labelBackgroundColor=none;strokeWidth=3;" parent="1" vertex="1">
          <mxGeometry x="180" y="-3150" width="1090" height="240" as="geometry" />
        </mxCell>
        <mxCell id="mQIjWDaoDwh8q7IW5GbV-108" value="Benutzer:in" style="swimlane;html=1;startSize=20;horizontal=0;labelBackgroundColor=none;strokeWidth=2;" parent="mQIjWDaoDwh8q7IW5GbV-107" vertex="1">
          <mxGeometry x="20" width="1070" height="240" as="geometry" />
        </mxCell>
        <mxCell id="mQIjWDaoDwh8q7IW5GbV-109" style="edgeStyle=orthogonalEdgeStyle;rounded=0;orthogonalLoop=1;jettySize=auto;html=1;labelBackgroundColor=none;entryX=0.5;entryY=0;entryDx=0;entryDy=0;entryPerimeter=0;" parent="mQIjWDaoDwh8q7IW5GbV-108" source="mQIjWDaoDwh8q7IW5GbV-110" target="mQIjWDaoDwh8q7IW5GbV-111" edge="1">
          <mxGeometry relative="1" as="geometry">
            <mxPoint x="70" y="55" as="targetPoint" />
          </mxGeometry>
        </mxCell>
        <mxCell id="mQIjWDaoDwh8q7IW5GbV-110" value="" style="points=[[0.145,0.145,0],[0.5,0,0],[0.855,0.145,0],[1,0.5,0],[0.855,0.855,0],[0.5,1,0],[0.145,0.855,0],[0,0.5,0]];shape=mxgraph.bpmn.event;html=1;verticalLabelPosition=bottom;labelBackgroundColor=none;verticalAlign=top;align=center;perimeter=ellipsePerimeter;outlineConnect=0;aspect=fixed;outline=standard;symbol=general;fillColor=#d5e8d4;strokeColor=#82b366;" parent="mQIjWDaoDwh8q7IW5GbV-108" vertex="1">
          <mxGeometry x="105" y="30" width="50" height="50" as="geometry" />
        </mxCell>
        <mxCell id="mQIjWDaoDwh8q7IW5GbV-111" value="Anfrage der geschÃ¼tzten Ressource" style="points=[[0.25,0,0],[0.5,0,0],[0.75,0,0],[1,0.25,0],[1,0.5,0],[1,0.75,0],[0.75,1,0],[0.5,1,0],[0.25,1,0],[0,0.75,0],[0,0.5,0],[0,0.25,0]];shape=mxgraph.bpmn.task;whiteSpace=wrap;rectStyle=rounded;size=10;html=1;container=1;expand=0;collapsible=0;taskMarker=send;labelBackgroundColor=none;fillColor=#d5e8d4;strokeColor=#82b366;" parent="mQIjWDaoDwh8q7IW5GbV-108" vertex="1">
          <mxGeometry x="70" y="140" width="120" height="80" as="geometry" />
        </mxCell>
        <mxCell id="mQIjWDaoDwh8q7IW5GbV-112" style="edgeStyle=orthogonalEdgeStyle;rounded=0;orthogonalLoop=1;jettySize=auto;html=1;labelBackgroundColor=none;" parent="mQIjWDaoDwh8q7IW5GbV-108" source="mQIjWDaoDwh8q7IW5GbV-113" target="mQIjWDaoDwh8q7IW5GbV-117" edge="1">
          <mxGeometry relative="1" as="geometry" />
        </mxCell>
        <mxCell id="mQIjWDaoDwh8q7IW5GbV-113" value="Darstellung der mÃ¶glichen IdPs" style="points=[[0.25,0,0],[0.5,0,0],[0.75,0,0],[1,0.25,0],[1,0.5,0],[1,0.75,0],[0.75,1,0],[0.5,1,0],[0.25,1,0],[0,0.75,0],[0,0.5,0],[0,0.25,0]];shape=mxgraph.bpmn.task;whiteSpace=wrap;rectStyle=rounded;size=10;html=1;container=1;expand=0;collapsible=0;taskMarker=abstract;labelBackgroundColor=none;fillColor=#d5e8d4;strokeColor=#82b366;" parent="mQIjWDaoDwh8q7IW5GbV-108" vertex="1">
          <mxGeometry x="549" y="15" width="120" height="80" as="geometry" />
        </mxCell>
        <mxCell id="mQIjWDaoDwh8q7IW5GbV-114" value="" style="points=[[0.145,0.145,0],[0.5,0,0],[0.855,0.145,0],[1,0.5,0],[0.855,0.855,0],[0.5,1,0],[0.145,0.855,0],[0,0.5,0]];shape=mxgraph.bpmn.event;html=1;verticalLabelPosition=bottom;labelBackgroundColor=none;verticalAlign=top;align=center;perimeter=ellipsePerimeter;outlineConnect=0;aspect=fixed;outline=standard;symbol=message;fillColor=#d5e8d4;strokeColor=#82b366;" parent="mQIjWDaoDwh8q7IW5GbV-108" vertex="1">
          <mxGeometry x="584" y="155" width="50" height="50" as="geometry" />
        </mxCell>
        <mxCell id="mQIjWDaoDwh8q7IW5GbV-115" style="edgeStyle=orthogonalEdgeStyle;rounded=0;orthogonalLoop=1;jettySize=auto;html=1;entryX=0.5;entryY=1;entryDx=0;entryDy=0;entryPerimeter=0;labelBackgroundColor=none;" parent="mQIjWDaoDwh8q7IW5GbV-108" source="mQIjWDaoDwh8q7IW5GbV-114" target="mQIjWDaoDwh8q7IW5GbV-113" edge="1">
          <mxGeometry relative="1" as="geometry" />
        </mxCell>
        <mxCell id="mQIjWDaoDwh8q7IW5GbV-116" style="edgeStyle=orthogonalEdgeStyle;rounded=0;orthogonalLoop=1;jettySize=auto;html=1;labelBackgroundColor=none;" parent="mQIjWDaoDwh8q7IW5GbV-108" source="mQIjWDaoDwh8q7IW5GbV-117" edge="1">
          <mxGeometry relative="1" as="geometry">
            <mxPoint x="760" y="140" as="targetPoint" />
          </mxGeometry>
        </mxCell>
        <mxCell id="mQIjWDaoDwh8q7IW5GbV-117" value="Auswahl des IdP" style="points=[[0.25,0,0],[0.5,0,0],[0.75,0,0],[1,0.25,0],[1,0.5,0],[1,0.75,0],[0.75,1,0],[0.5,1,0],[0.25,1,0],[0,0.75,0],[0,0.5,0],[0,0.25,0]];shape=mxgraph.bpmn.task;whiteSpace=wrap;rectStyle=rounded;size=10;html=1;container=1;expand=0;collapsible=0;taskMarker=abstract;labelBackgroundColor=none;fillColor=#d5e8d4;strokeColor=#82b366;" parent="mQIjWDaoDwh8q7IW5GbV-108" vertex="1">
          <mxGeometry x="700" y="15" width="120" height="80" as="geometry" />
        </mxCell>
        <mxCell id="mQIjWDaoDwh8q7IW5GbV-118" value="Absenden des ausgewÃ¤hlten IdP" style="points=[[0.25,0,0],[0.5,0,0],[0.75,0,0],[1,0.25,0],[1,0.5,0],[1,0.75,0],[0.75,1,0],[0.5,1,0],[0.25,1,0],[0,0.75,0],[0,0.5,0],[0,0.25,0]];shape=mxgraph.bpmn.task;whiteSpace=wrap;rectStyle=rounded;size=10;html=1;container=1;expand=0;collapsible=0;taskMarker=send;labelBackgroundColor=none;fillColor=#d5e8d4;strokeColor=#82b366;" parent="mQIjWDaoDwh8q7IW5GbV-108" vertex="1">
          <mxGeometry x="700" y="140" width="120" height="80" as="geometry" />
        </mxCell>
        <mxCell id="mQIjWDaoDwh8q7IW5GbV-179" value="Discovery Sevice" style="swimlane;html=1;childLayout=stackLayout;resizeParent=1;resizeParentMax=0;horizontal=0;startSize=20;horizontalStack=0;whiteSpace=wrap;labelBackgroundColor=none;strokeWidth=3;" parent="1" vertex="1">
          <mxGeometry x="180" y="-2580" width="1090" height="260" as="geometry" />
        </mxCell>
        <mxCell id="mQIjWDaoDwh8q7IW5GbV-180" value="Discovery Service" style="swimlane;html=1;startSize=20;horizontal=0;labelBackgroundColor=none;swimlaneFillColor=none;strokeWidth=2;" parent="mQIjWDaoDwh8q7IW5GbV-179" vertex="1">
          <mxGeometry x="20" width="1070" height="260" as="geometry" />
        </mxCell>
        <mxCell id="mQIjWDaoDwh8q7IW5GbV-181" value="" style="points=[[0.145,0.145,0],[0.5,0,0],[0.855,0.145,0],[1,0.5,0],[0.855,0.855,0],[0.5,1,0],[0.145,0.855,0],[0,0.5,0]];shape=mxgraph.bpmn.event;html=1;verticalLabelPosition=bottom;labelBackgroundColor=none;verticalAlign=top;align=center;perimeter=ellipsePerimeter;outlineConnect=0;aspect=fixed;outline=standard;symbol=message;fillColor=#d5e8d4;strokeColor=#82b366;" parent="mQIjWDaoDwh8q7IW5GbV-180" vertex="1">
          <mxGeometry x="365" y="50" width="50" height="50" as="geometry" />
        </mxCell>
        <mxCell id="mQIjWDaoDwh8q7IW5GbV-182" value="Ermittlung der&lt;br&gt;Identity Provider&lt;div&gt;Liste&lt;/div&gt;" style="points=[[0.25,0,0],[0.5,0,0],[0.75,0,0],[1,0.25,0],[1,0.5,0],[1,0.75,0],[0.75,1,0],[0.5,1,0],[0.25,1,0],[0,0.75,0],[0,0.5,0],[0,0.25,0]];shape=mxgraph.bpmn.task;whiteSpace=wrap;rectStyle=rounded;size=10;html=1;container=1;expand=0;collapsible=0;taskMarker=abstract;labelBackgroundColor=none;fillColor=#d5e8d4;strokeColor=#82b366;" parent="mQIjWDaoDwh8q7IW5GbV-180" vertex="1">
          <mxGeometry x="460" y="35" width="120" height="80" as="geometry" />
        </mxCell>
        <mxCell id="mQIjWDaoDwh8q7IW5GbV-183" style="edgeStyle=orthogonalEdgeStyle;rounded=0;orthogonalLoop=1;jettySize=auto;html=1;entryX=0;entryY=0.5;entryDx=0;entryDy=0;entryPerimeter=0;exitX=1;exitY=0.5;exitDx=0;exitDy=0;exitPerimeter=0;labelBackgroundColor=none;" parent="mQIjWDaoDwh8q7IW5GbV-180" source="mQIjWDaoDwh8q7IW5GbV-181" target="mQIjWDaoDwh8q7IW5GbV-182" edge="1">
          <mxGeometry relative="1" as="geometry">
            <mxPoint x="590" y="75" as="sourcePoint" />
          </mxGeometry>
        </mxCell>
        <mxCell id="mQIjWDaoDwh8q7IW5GbV-184" value="Absenden der verfÃ¼gbaren IdPs" style="points=[[0.25,0,0],[0.5,0,0],[0.75,0,0],[1,0.25,0],[1,0.5,0],[1,0.75,0],[0.75,1,0],[0.5,1,0],[0.25,1,0],[0,0.75,0],[0,0.5,0],[0,0.25,0]];shape=mxgraph.bpmn.task;whiteSpace=wrap;rectStyle=rounded;size=10;html=1;container=1;expand=0;collapsible=0;taskMarker=send;labelBackgroundColor=none;fillColor=#d5e8d4;strokeColor=#82b366;" parent="mQIjWDaoDwh8q7IW5GbV-180" vertex="1">
          <mxGeometry x="460" y="160" width="120" height="80" as="geometry" />
        </mxCell>
        <mxCell id="mQIjWDaoDwh8q7IW5GbV-185" style="edgeStyle=orthogonalEdgeStyle;rounded=0;orthogonalLoop=1;jettySize=auto;html=1;labelBackgroundColor=none;" parent="mQIjWDaoDwh8q7IW5GbV-180" source="mQIjWDaoDwh8q7IW5GbV-182" target="mQIjWDaoDwh8q7IW5GbV-184" edge="1">
          <mxGeometry relative="1" as="geometry" />
        </mxCell>
        <mxCell id="mQIjWDaoDwh8q7IW5GbV-186" value="" style="points=[[0.145,0.145,0],[0.5,0,0],[0.855,0.145,0],[1,0.5,0],[0.855,0.855,0],[0.5,1,0],[0.145,0.855,0],[0,0.5,0]];shape=mxgraph.bpmn.event;html=1;verticalLabelPosition=bottom;labelBackgroundColor=none;verticalAlign=top;align=center;perimeter=ellipsePerimeter;outlineConnect=0;aspect=fixed;outline=standard;symbol=message;fillColor=#d5e8d4;strokeColor=#82b366;" parent="mQIjWDaoDwh8q7IW5GbV-180" vertex="1">
          <mxGeometry x="735" y="50" width="50" height="50" as="geometry" />
        </mxCell>
        <mxCell id="mQIjWDaoDwh8q7IW5GbV-187" value="Redirect" style="points=[[0.25,0,0],[0.5,0,0],[0.75,0,0],[1,0.25,0],[1,0.5,0],[1,0.75,0],[0.75,1,0],[0.5,1,0],[0.25,1,0],[0,0.75,0],[0,0.5,0],[0,0.25,0]];shape=mxgraph.bpmn.task;whiteSpace=wrap;rectStyle=rounded;size=10;html=1;container=1;expand=0;collapsible=0;taskMarker=send;labelBackgroundColor=none;fillColor=#d5e8d4;strokeColor=#82b366;" parent="mQIjWDaoDwh8q7IW5GbV-180" vertex="1">
          <mxGeometry x="700" y="160" width="120" height="80" as="geometry" />
        </mxCell>
        <mxCell id="mQIjWDaoDwh8q7IW5GbV-188" style="edgeStyle=orthogonalEdgeStyle;rounded=0;orthogonalLoop=1;jettySize=auto;html=1;entryX=0.5;entryY=0;entryDx=0;entryDy=0;entryPerimeter=0;labelBackgroundColor=none;" parent="mQIjWDaoDwh8q7IW5GbV-180" source="mQIjWDaoDwh8q7IW5GbV-186" target="mQIjWDaoDwh8q7IW5GbV-187" edge="1">
          <mxGeometry relative="1" as="geometry" />
        </mxCell>
        <mxCell id="mQIjWDaoDwh8q7IW5GbV-233" value="" style="group;labelBackgroundColor=none;" parent="mQIjWDaoDwh8q7IW5GbV-180" vertex="1" connectable="0">
          <mxGeometry x="880" y="90" width="140" height="60" as="geometry" />
        </mxCell>
        <mxCell id="mQIjWDaoDwh8q7IW5GbV-234" value="" style="shape=mxgraph.bpmn.data;labelPosition=center;verticalLabelPosition=bottom;align=center;verticalAlign=top;size=15;html=1;labelBackgroundColor=none;fillColor=#d5e8d4;strokeColor=#82b366;" parent="mQIjWDaoDwh8q7IW5GbV-233" vertex="1">
          <mxGeometry width="140" height="60" as="geometry" />
        </mxCell>
        <mxCell id="mQIjWDaoDwh8q7IW5GbV-235" value="&lt;div&gt;Auth.-Protokoll&lt;/div&gt;&lt;div&gt;Target&lt;/div&gt;&lt;div&gt;entityID&lt;br&gt;&lt;/div&gt;" style="text;html=1;align=center;verticalAlign=middle;resizable=0;points=[];autosize=1;strokeColor=none;fillColor=none;fontFamily=Courier New;labelBackgroundColor=none;" parent="mQIjWDaoDwh8q7IW5GbV-233" vertex="1">
          <mxGeometry x="5" width="130" height="60" as="geometry" />
        </mxCell>
        <mxCell id="mQIjWDaoDwh8q7IW5GbV-189" value="" style="endArrow=blockThin;html=1;labelPosition=left;verticalLabelPosition=middle;align=right;verticalAlign=middle;dashed=1;dashPattern=8 4;endFill=0;startArrow=oval;startFill=0;endSize=6;startSize=4;rounded=0;exitX=0.5;exitY=1;exitDx=0;exitDy=0;exitPerimeter=0;entryX=0.5;entryY=0;entryDx=0;entryDy=0;entryPerimeter=0;labelBackgroundColor=none;" parent="1" source="mQIjWDaoDwh8q7IW5GbV-111" target="mQIjWDaoDwh8q7IW5GbV-78" edge="1">
          <mxGeometry relative="1" as="geometry">
            <mxPoint x="500" y="-2730" as="sourcePoint" />
            <mxPoint x="660" y="-2730" as="targetPoint" />
          </mxGeometry>
        </mxCell>
        <mxCell id="mQIjWDaoDwh8q7IW5GbV-190" value="" style="shape=message;html=1;outlineConnect=0;labelPosition=left;verticalLabelPosition=middle;align=right;verticalAlign=middle;spacingRight=5;labelBackgroundColor=none;fillColor=#d5e8d4;strokeColor=#82b366;" parent="mQIjWDaoDwh8q7IW5GbV-189" vertex="1">
          <mxGeometry width="24" height="16" relative="1" as="geometry">
            <mxPoint x="8" y="-11" as="offset" />
          </mxGeometry>
        </mxCell>
        <mxCell id="mQIjWDaoDwh8q7IW5GbV-191" value="" style="endArrow=blockThin;html=1;labelPosition=left;verticalLabelPosition=middle;align=right;verticalAlign=middle;dashed=1;dashPattern=8 4;endFill=0;startArrow=oval;startFill=0;endSize=6;startSize=4;rounded=0;exitX=0.5;exitY=1;exitDx=0;exitDy=0;exitPerimeter=0;labelBackgroundColor=none;" parent="1" source="mQIjWDaoDwh8q7IW5GbV-80" target="mQIjWDaoDwh8q7IW5GbV-181" edge="1">
          <mxGeometry relative="1" as="geometry">
            <mxPoint x="510" y="-2600" as="sourcePoint" />
            <mxPoint x="510" y="-2505" as="targetPoint" />
          </mxGeometry>
        </mxCell>
        <mxCell id="mQIjWDaoDwh8q7IW5GbV-192" value="" style="shape=message;html=1;outlineConnect=0;labelPosition=left;verticalLabelPosition=middle;align=right;verticalAlign=middle;spacingRight=5;labelBackgroundColor=none;fillColor=#d5e8d4;strokeColor=#82b366;" parent="mQIjWDaoDwh8q7IW5GbV-191" vertex="1">
          <mxGeometry width="24" height="16" relative="1" as="geometry">
            <mxPoint x="6" y="-23" as="offset" />
          </mxGeometry>
        </mxCell>
        <mxCell id="mQIjWDaoDwh8q7IW5GbV-193" value="" style="edgeStyle=elbowEdgeStyle;fontSize=12;html=1;endFill=0;startFill=0;endSize=6;startSize=6;dashed=1;dashPattern=1 4;endArrow=none;startArrow=none;rounded=0;exitX=0;exitY=0;exitDx=140;exitDy=37.5;exitPerimeter=0;labelBackgroundColor=none;" parent="1" edge="1">
          <mxGeometry width="160" relative="1" as="geometry">
            <mxPoint x="540" y="-2599.5" as="sourcePoint" />
            <mxPoint x="590" y="-2599" as="targetPoint" />
            <Array as="points">
              <mxPoint x="590" y="-2566" />
            </Array>
          </mxGeometry>
        </mxCell>
        <mxCell id="mQIjWDaoDwh8q7IW5GbV-194" value="" style="endArrow=blockThin;html=1;labelPosition=left;verticalLabelPosition=middle;align=right;verticalAlign=middle;dashed=1;dashPattern=8 4;endFill=0;startArrow=oval;startFill=0;endSize=6;startSize=4;rounded=0;exitX=1;exitY=0.5;exitDx=0;exitDy=0;exitPerimeter=0;labelBackgroundColor=none;entryX=0.5;entryY=1;entryDx=0;entryDy=0;entryPerimeter=0;" parent="1" source="mQIjWDaoDwh8q7IW5GbV-184" target="mQIjWDaoDwh8q7IW5GbV-114" edge="1">
          <mxGeometry relative="1" as="geometry">
            <mxPoint x="560" y="-2720" as="sourcePoint" />
            <mxPoint x="800" y="-2980" as="targetPoint" />
            <Array as="points">
              <mxPoint x="809" y="-2380" />
            </Array>
          </mxGeometry>
        </mxCell>
        <mxCell id="mQIjWDaoDwh8q7IW5GbV-195" value="" style="shape=message;html=1;outlineConnect=0;labelPosition=left;verticalLabelPosition=middle;align=right;verticalAlign=middle;spacingRight=5;labelBackgroundColor=none;fillColor=#d5e8d4;strokeColor=#82b366;" parent="mQIjWDaoDwh8q7IW5GbV-194" vertex="1">
          <mxGeometry width="24" height="16" relative="1" as="geometry">
            <mxPoint x="8" y="182" as="offset" />
          </mxGeometry>
        </mxCell>
        <mxCell id="mQIjWDaoDwh8q7IW5GbV-196" value="" style="endArrow=blockThin;html=1;labelPosition=left;verticalLabelPosition=middle;align=right;verticalAlign=middle;dashed=1;dashPattern=8 4;endFill=0;startArrow=oval;startFill=0;endSize=6;startSize=4;rounded=0;exitX=0.5;exitY=1;exitDx=0;exitDy=0;exitPerimeter=0;entryX=0.5;entryY=0;entryDx=0;entryDy=0;entryPerimeter=0;labelBackgroundColor=none;" parent="1" source="mQIjWDaoDwh8q7IW5GbV-118" target="mQIjWDaoDwh8q7IW5GbV-186" edge="1">
          <mxGeometry relative="1" as="geometry">
            <mxPoint x="970" y="-2720" as="sourcePoint" />
            <mxPoint x="1130" y="-2720" as="targetPoint" />
          </mxGeometry>
        </mxCell>
        <mxCell id="mQIjWDaoDwh8q7IW5GbV-197" value="" style="shape=message;html=1;outlineConnect=0;labelPosition=left;verticalLabelPosition=middle;align=right;verticalAlign=middle;spacingRight=5;labelBackgroundColor=none;fillColor=#d5e8d4;strokeColor=#82b366;" parent="mQIjWDaoDwh8q7IW5GbV-196" vertex="1">
          <mxGeometry width="24" height="16" relative="1" as="geometry">
            <mxPoint x="-33" y="-168" as="offset" />
          </mxGeometry>
        </mxCell>
        <mxCell id="mQIjWDaoDwh8q7IW5GbV-198" value="" style="endArrow=blockThin;html=1;labelPosition=left;verticalLabelPosition=middle;align=right;verticalAlign=middle;dashed=1;dashPattern=8 4;endFill=0;startArrow=oval;startFill=0;endSize=6;startSize=4;rounded=0;exitX=1;exitY=0.5;exitDx=0;exitDy=0;exitPerimeter=0;labelBackgroundColor=none;" parent="1" source="mQIjWDaoDwh8q7IW5GbV-187" target="mQIjWDaoDwh8q7IW5GbV-84" edge="1">
          <mxGeometry relative="1" as="geometry">
            <mxPoint x="1260" y="-2590" as="sourcePoint" />
            <mxPoint x="1300" y="-2470" as="targetPoint" />
            <Array as="points">
              <mxPoint x="1060" y="-2380" />
            </Array>
          </mxGeometry>
        </mxCell>
        <mxCell id="mQIjWDaoDwh8q7IW5GbV-199" value="" style="shape=message;html=1;outlineConnect=0;labelPosition=left;verticalLabelPosition=middle;align=right;verticalAlign=middle;spacingRight=5;labelBackgroundColor=none;fillColor=#d5e8d4;strokeColor=#82b366;" parent="mQIjWDaoDwh8q7IW5GbV-198" vertex="1">
          <mxGeometry width="24" height="16" relative="1" as="geometry">
            <mxPoint x="-38" y="30" as="offset" />
          </mxGeometry>
        </mxCell>
        <mxCell id="mQIjWDaoDwh8q7IW5GbV-216" value="" style="group;labelBackgroundColor=none;" parent="1" vertex="1" connectable="0">
          <mxGeometry x="400" y="-2631" width="140" height="60" as="geometry" />
        </mxCell>
        <mxCell id="mQIjWDaoDwh8q7IW5GbV-217" value="" style="shape=mxgraph.bpmn.data;labelPosition=center;verticalLabelPosition=bottom;align=center;verticalAlign=top;size=15;html=1;labelBackgroundColor=none;fillColor=#d5e8d4;strokeColor=#82b366;" parent="mQIjWDaoDwh8q7IW5GbV-216" vertex="1">
          <mxGeometry width="140" height="60" as="geometry" />
        </mxCell>
        <mxCell id="mQIjWDaoDwh8q7IW5GbV-218" value="&lt;div&gt;Set-Cookie&lt;/div&gt;&lt;div&gt;entityID&lt;/div&gt;&lt;div&gt;return URL&lt;br&gt;&lt;/div&gt;" style="text;html=1;align=center;verticalAlign=middle;resizable=0;points=[];autosize=1;fontFamily=Courier New;labelBackgroundColor=none;" parent="mQIjWDaoDwh8q7IW5GbV-216" vertex="1">
          <mxGeometry x="20" width="100" height="60" as="geometry" />
        </mxCell>
        <mxCell id="mQIjWDaoDwh8q7IW5GbV-222" value="" style="edgeStyle=elbowEdgeStyle;fontSize=12;html=1;endFill=0;startFill=0;endSize=6;startSize=6;dashed=1;dashPattern=1 4;endArrow=none;startArrow=none;rounded=0;exitX=0;exitY=0.5;exitDx=0;exitDy=0;exitPerimeter=0;labelBackgroundColor=none;" parent="1" source="mQIjWDaoDwh8q7IW5GbV-220" edge="1">
          <mxGeometry width="160" relative="1" as="geometry">
            <mxPoint x="1080" y="-2842" as="sourcePoint" />
            <mxPoint x="960" y="-2890" as="targetPoint" />
            <Array as="points" />
          </mxGeometry>
        </mxCell>
        <mxCell id="mQIjWDaoDwh8q7IW5GbV-238" value="Ressource" style="swimlane;html=1;childLayout=stackLayout;resizeParent=1;resizeParentMax=0;horizontal=0;startSize=20;horizontalStack=0;whiteSpace=wrap;labelBackgroundColor=none;strokeWidth=3;" parent="1" vertex="1">
          <mxGeometry x="170" y="-2000" width="1150" height="230" as="geometry" />
        </mxCell>
        <mxCell id="mQIjWDaoDwh8q7IW5GbV-239" value="Service Provider" style="swimlane;html=1;startSize=20;horizontal=0;fillColor=default;swimlaneFillColor=none;labelBackgroundColor=none;strokeWidth=2;" parent="mQIjWDaoDwh8q7IW5GbV-238" vertex="1">
          <mxGeometry x="20" width="1130" height="230" as="geometry" />
        </mxCell>
        <mxCell id="mQIjWDaoDwh8q7IW5GbV-250" style="edgeStyle=orthogonalEdgeStyle;rounded=0;orthogonalLoop=1;jettySize=auto;html=1;labelBackgroundColor=none;" parent="mQIjWDaoDwh8q7IW5GbV-239" source="mQIjWDaoDwh8q7IW5GbV-251" target="mQIjWDaoDwh8q7IW5GbV-253" edge="1">
          <mxGeometry relative="1" as="geometry" />
        </mxCell>
        <mxCell id="mQIjWDaoDwh8q7IW5GbV-251" value="" style="points=[[0.145,0.145,0],[0.5,0,0],[0.855,0.145,0],[1,0.5,0],[0.855,0.855,0],[0.5,1,0],[0.145,0.855,0],[0,0.5,0]];shape=mxgraph.bpmn.event;html=1;verticalLabelPosition=bottom;labelBackgroundColor=none;verticalAlign=top;align=center;perimeter=ellipsePerimeter;outlineConnect=0;aspect=fixed;outline=standard;symbol=message;fillColor=#ffe6cc;strokeColor=#d79b00;" parent="mQIjWDaoDwh8q7IW5GbV-239" vertex="1">
          <mxGeometry x="221" y="30" width="50" height="50" as="geometry" />
        </mxCell>
        <mxCell id="mQIjWDaoDwh8q7IW5GbV-252" style="edgeStyle=orthogonalEdgeStyle;rounded=0;orthogonalLoop=1;jettySize=auto;html=1;labelBackgroundColor=none;" parent="mQIjWDaoDwh8q7IW5GbV-239" source="mQIjWDaoDwh8q7IW5GbV-253" target="mQIjWDaoDwh8q7IW5GbV-254" edge="1">
          <mxGeometry relative="1" as="geometry" />
        </mxCell>
        <mxCell id="mQIjWDaoDwh8q7IW5GbV-253" value="Erstellung Authentifizierungs-anfrage" style="points=[[0.25,0,0],[0.5,0,0],[0.75,0,0],[1,0.25,0],[1,0.5,0],[1,0.75,0],[0.75,1,0],[0.5,1,0],[0.25,1,0],[0,0.75,0],[0,0.5,0],[0,0.25,0]];shape=mxgraph.bpmn.task;whiteSpace=wrap;rectStyle=rounded;size=10;html=1;container=1;expand=0;collapsible=0;taskMarker=abstract;labelBackgroundColor=none;fillColor=#ffe6cc;strokeColor=#d79b00;" parent="mQIjWDaoDwh8q7IW5GbV-239" vertex="1">
          <mxGeometry x="310" y="15" width="120" height="80" as="geometry" />
        </mxCell>
        <mxCell id="mQIjWDaoDwh8q7IW5GbV-254" value="&lt;div&gt;Auth.-Request&lt;/div&gt;" style="points=[[0.25,0,0],[0.5,0,0],[0.75,0,0],[1,0.25,0],[1,0.5,0],[1,0.75,0],[0.75,1,0],[0.5,1,0],[0.25,1,0],[0,0.75,0],[0,0.5,0],[0,0.25,0]];shape=mxgraph.bpmn.task;whiteSpace=wrap;rectStyle=rounded;size=10;html=1;container=1;expand=0;collapsible=0;taskMarker=send;labelBackgroundColor=none;fillColor=#ffe6cc;strokeColor=#d79b00;" parent="mQIjWDaoDwh8q7IW5GbV-239" vertex="1">
          <mxGeometry x="310" y="130" width="120" height="80" as="geometry" />
        </mxCell>
        <mxCell id="mQIjWDaoDwh8q7IW5GbV-258" value="" style="edgeStyle=elbowEdgeStyle;fontSize=12;html=1;endFill=0;startFill=0;endSize=6;startSize=6;dashed=1;dashPattern=1 4;endArrow=none;startArrow=none;rounded=0;exitX=0;exitY=0.5;exitDx=0;exitDy=0;exitPerimeter=0;labelBackgroundColor=none;" parent="mQIjWDaoDwh8q7IW5GbV-239" edge="1">
          <mxGeometry width="160" relative="1" as="geometry">
            <mxPoint x="400" y="250.68" as="sourcePoint" />
            <mxPoint x="370" y="250.68" as="targetPoint" />
          </mxGeometry>
        </mxCell>
        <mxCell id="mQIjWDaoDwh8q7IW5GbV-274" value="Benutzer:in" style="swimlane;html=1;childLayout=stackLayout;resizeParent=1;resizeParentMax=0;horizontal=0;startSize=20;horizontalStack=0;whiteSpace=wrap;swimlaneFillColor=none;fillColor=none;strokeColor=#000000;labelBackgroundColor=none;strokeWidth=3;" parent="1" vertex="1">
          <mxGeometry x="170" y="-2140" width="1150" height="110" as="geometry" />
        </mxCell>
        <mxCell id="mQIjWDaoDwh8q7IW5GbV-275" value="Benutzer:in" style="swimlane;html=1;startSize=20;horizontal=0;labelBackgroundColor=none;strokeWidth=2;" parent="mQIjWDaoDwh8q7IW5GbV-274" vertex="1">
          <mxGeometry x="20" width="1130" height="110" as="geometry" />
        </mxCell>
        <mxCell id="mQIjWDaoDwh8q7IW5GbV-286" style="edgeStyle=orthogonalEdgeStyle;rounded=0;orthogonalLoop=1;jettySize=auto;html=1;labelBackgroundColor=none;" parent="mQIjWDaoDwh8q7IW5GbV-275" source="mQIjWDaoDwh8q7IW5GbV-287" edge="1">
          <mxGeometry relative="1" as="geometry">
            <mxPoint x="1036" y="45" as="targetPoint" />
          </mxGeometry>
        </mxCell>
        <mxCell id="mQIjWDaoDwh8q7IW5GbV-287" value="" style="points=[[0.145,0.145,0],[0.5,0,0],[0.855,0.145,0],[1,0.5,0],[0.855,0.855,0],[0.5,1,0],[0.145,0.855,0],[0,0.5,0]];shape=mxgraph.bpmn.event;html=1;verticalLabelPosition=bottom;labelBackgroundColor=none;verticalAlign=top;align=center;perimeter=ellipsePerimeter;outlineConnect=0;aspect=fixed;outline=standard;symbol=message;fillColor=#e1d5e7;strokeColor=#9673a6;" parent="mQIjWDaoDwh8q7IW5GbV-275" vertex="1">
          <mxGeometry x="931" y="20" width="50" height="50" as="geometry" />
        </mxCell>
        <mxCell id="mQIjWDaoDwh8q7IW5GbV-411" value="Phase 3" style="points=[[0.145,0.145,0],[0.5,0,0],[0.855,0.145,0],[1,0.5,0],[0.855,0.855,0],[0.5,1,0],[0.145,0.855,0],[0,0.5,0]];shape=mxgraph.bpmn.event;html=1;verticalLabelPosition=bottom;labelBackgroundColor=none;verticalAlign=top;align=center;perimeter=ellipsePerimeter;outlineConnect=0;aspect=fixed;outline=end;symbol=terminate2;fillColor=#e1d5e7;strokeColor=#9673a6;" parent="mQIjWDaoDwh8q7IW5GbV-275" vertex="1">
          <mxGeometry x="1036" y="20" width="50" height="50" as="geometry" />
        </mxCell>
        <mxCell id="mQIjWDaoDwh8q7IW5GbV-298" value="Home Organisation" style="swimlane;html=1;childLayout=stackLayout;resizeParent=1;resizeParentMax=0;horizontal=0;startSize=20;horizontalStack=0;whiteSpace=wrap;labelBackgroundColor=none;swimlaneFillColor=none;strokeWidth=3;" parent="1" vertex="1">
          <mxGeometry x="170" y="-1540" width="1150" height="410" as="geometry" />
        </mxCell>
        <mxCell id="mQIjWDaoDwh8q7IW5GbV-299" value="Identity Provider" style="swimlane;html=1;startSize=20;horizontal=0;labelBackgroundColor=none;swimlaneFillColor=none;strokeWidth=2;" parent="mQIjWDaoDwh8q7IW5GbV-298" vertex="1">
          <mxGeometry x="20" width="1130" height="250" as="geometry" />
        </mxCell>
        <mxCell id="mQIjWDaoDwh8q7IW5GbV-300" style="edgeStyle=orthogonalEdgeStyle;rounded=0;orthogonalLoop=1;jettySize=auto;html=1;labelBackgroundColor=none;" parent="mQIjWDaoDwh8q7IW5GbV-299" source="mQIjWDaoDwh8q7IW5GbV-301" target="mQIjWDaoDwh8q7IW5GbV-303" edge="1">
          <mxGeometry relative="1" as="geometry" />
        </mxCell>
        <mxCell id="mQIjWDaoDwh8q7IW5GbV-301" value="" style="points=[[0.145,0.145,0],[0.5,0,0],[0.855,0.145,0],[1,0.5,0],[0.855,0.855,0],[0.5,1,0],[0.145,0.855,0],[0,0.5,0]];shape=mxgraph.bpmn.event;html=1;verticalLabelPosition=bottom;labelBackgroundColor=none;verticalAlign=top;align=center;perimeter=ellipsePerimeter;outlineConnect=0;aspect=fixed;outline=standard;symbol=message;fillColor=#ffe6cc;strokeColor=#d79b00;" parent="mQIjWDaoDwh8q7IW5GbV-299" vertex="1">
          <mxGeometry x="345" y="30" width="50" height="50" as="geometry" />
        </mxCell>
        <mxCell id="mQIjWDaoDwh8q7IW5GbV-302" style="edgeStyle=orthogonalEdgeStyle;rounded=0;orthogonalLoop=1;jettySize=auto;html=1;labelBackgroundColor=none;" parent="mQIjWDaoDwh8q7IW5GbV-299" source="mQIjWDaoDwh8q7IW5GbV-303" target="mQIjWDaoDwh8q7IW5GbV-304" edge="1">
          <mxGeometry relative="1" as="geometry" />
        </mxCell>
        <mxCell id="mQIjWDaoDwh8q7IW5GbV-303" value="PrÃ¼fen der Auth-Request" style="points=[[0.25,0,0],[0.5,0,0],[0.75,0,0],[1,0.25,0],[1,0.5,0],[1,0.75,0],[0.75,1,0],[0.5,1,0],[0.25,1,0],[0,0.75,0],[0,0.5,0],[0,0.25,0]];shape=mxgraph.bpmn.task;whiteSpace=wrap;rectStyle=rounded;size=10;html=1;container=1;expand=0;collapsible=0;taskMarker=abstract;labelBackgroundColor=none;fillColor=#ffe6cc;strokeColor=#d79b00;" parent="mQIjWDaoDwh8q7IW5GbV-299" vertex="1">
          <mxGeometry x="446" y="15" width="120" height="80" as="geometry" />
        </mxCell>
        <mxCell id="mQIjWDaoDwh8q7IW5GbV-409" style="edgeStyle=orthogonalEdgeStyle;rounded=0;orthogonalLoop=1;jettySize=auto;html=1;" parent="mQIjWDaoDwh8q7IW5GbV-299" source="mQIjWDaoDwh8q7IW5GbV-304" target="mQIjWDaoDwh8q7IW5GbV-408" edge="1">
          <mxGeometry relative="1" as="geometry" />
        </mxCell>
        <mxCell id="mQIjWDaoDwh8q7IW5GbV-410" value="&lt;div&gt;Benutzer:in bereits&lt;/div&gt;&lt;div&gt;authentifiziert&lt;br&gt;&lt;/div&gt;" style="edgeLabel;html=1;align=center;verticalAlign=middle;resizable=0;points=[];labelBackgroundColor=none;" parent="mQIjWDaoDwh8q7IW5GbV-409" vertex="1" connectable="0">
          <mxGeometry x="0.1282" relative="1" as="geometry">
            <mxPoint x="-13" as="offset" />
          </mxGeometry>
        </mxCell>
        <mxCell id="mQIjWDaoDwh8q7IW5GbV-304" value="" style="points=[[0.25,0.25,0],[0.5,0,0],[0.75,0.25,0],[1,0.5,0],[0.75,0.75,0],[0.5,1,0],[0.25,0.75,0],[0,0.5,0]];shape=mxgraph.bpmn.gateway2;html=1;verticalLabelPosition=bottom;labelBackgroundColor=none;verticalAlign=top;align=center;perimeter=rhombusPerimeter;outlineConnect=0;outline=none;symbol=none;gwType=exclusive;fillColor=#ffe6cc;strokeColor=#d79b00;" parent="mQIjWDaoDwh8q7IW5GbV-299" vertex="1">
          <mxGeometry x="626" y="30" width="50" height="50" as="geometry" />
        </mxCell>
        <mxCell id="mQIjWDaoDwh8q7IW5GbV-305" value="&lt;div&gt;&lt;span style=&quot;background-color: light-dark(#ffffff, var(--ge-dark-color, #121212));&quot;&gt;Benutzer:in &lt;i&gt;nicht&lt;/i&gt;&lt;/span&gt;&lt;/div&gt;&lt;div&gt;&lt;span style=&quot;background-color: light-dark(#ffffff, var(--ge-dark-color, #121212));&quot;&gt;angemeldet&lt;/span&gt;&lt;/div&gt;" style="edgeStyle=orthogonalEdgeStyle;rounded=0;orthogonalLoop=1;jettySize=auto;html=1;entryX=0.5;entryY=0;entryDx=0;entryDy=0;entryPerimeter=0;labelBackgroundColor=none;" parent="mQIjWDaoDwh8q7IW5GbV-299" source="mQIjWDaoDwh8q7IW5GbV-304" target="mQIjWDaoDwh8q7IW5GbV-306" edge="1">
          <mxGeometry relative="1" as="geometry">
            <mxPoint x="651.0000000000005" y="139.99999999999977" as="targetPoint" />
          </mxGeometry>
        </mxCell>
        <mxCell id="mQIjWDaoDwh8q7IW5GbV-306" value="&lt;div&gt;Redirect&lt;/div&gt;" style="points=[[0.25,0,0],[0.5,0,0],[0.75,0,0],[1,0.25,0],[1,0.5,0],[1,0.75,0],[0.75,1,0],[0.5,1,0],[0.25,1,0],[0,0.75,0],[0,0.5,0],[0,0.25,0]];shape=mxgraph.bpmn.task;whiteSpace=wrap;rectStyle=rounded;size=10;html=1;container=1;expand=0;collapsible=0;taskMarker=send;labelBackgroundColor=none;fillColor=#ffe6cc;strokeColor=#d79b00;" parent="mQIjWDaoDwh8q7IW5GbV-299" vertex="1">
          <mxGeometry x="591" y="150" width="120" height="80" as="geometry" />
        </mxCell>
        <mxCell id="mQIjWDaoDwh8q7IW5GbV-325" style="edgeStyle=orthogonalEdgeStyle;rounded=0;orthogonalLoop=1;jettySize=auto;html=1;labelBackgroundColor=none;" parent="mQIjWDaoDwh8q7IW5GbV-299" source="mQIjWDaoDwh8q7IW5GbV-326" target="mQIjWDaoDwh8q7IW5GbV-327" edge="1">
          <mxGeometry relative="1" as="geometry" />
        </mxCell>
        <mxCell id="mQIjWDaoDwh8q7IW5GbV-326" value="" style="points=[[0.145,0.145,0],[0.5,0,0],[0.855,0.145,0],[1,0.5,0],[0.855,0.855,0],[0.5,1,0],[0.145,0.855,0],[0,0.5,0]];shape=mxgraph.bpmn.event;html=1;verticalLabelPosition=bottom;labelBackgroundColor=none;verticalAlign=top;align=center;perimeter=ellipsePerimeter;outlineConnect=0;aspect=fixed;outline=standard;symbol=message;fillColor=#ffe6cc;strokeColor=#d79b00;" parent="mQIjWDaoDwh8q7IW5GbV-299" vertex="1">
          <mxGeometry x="931" y="140" width="50" height="50" as="geometry" />
        </mxCell>
        <mxCell id="mQIjWDaoDwh8q7IW5GbV-327" value="&lt;div&gt;Redirect zu spezifischer Anmeldeseite&lt;br&gt;&lt;/div&gt;" style="points=[[0.25,0,0],[0.5,0,0],[0.75,0,0],[1,0.25,0],[1,0.5,0],[1,0.75,0],[0.75,1,0],[0.5,1,0],[0.25,1,0],[0,0.75,0],[0,0.5,0],[0,0.25,0]];shape=mxgraph.bpmn.task;whiteSpace=wrap;rectStyle=rounded;size=10;html=1;container=1;expand=0;collapsible=0;taskMarker=send;labelBackgroundColor=none;fillColor=#ffe6cc;strokeColor=#d79b00;" parent="mQIjWDaoDwh8q7IW5GbV-299" vertex="1">
          <mxGeometry x="896" y="15" width="120" height="80" as="geometry" />
        </mxCell>
        <mxCell id="mQIjWDaoDwh8q7IW5GbV-408" value="Phase 3" style="points=[[0.145,0.145,0],[0.5,0,0],[0.855,0.145,0],[1,0.5,0],[0.855,0.855,0],[0.5,1,0],[0.145,0.855,0],[0,0.5,0]];shape=mxgraph.bpmn.event;html=1;verticalLabelPosition=bottom;labelBackgroundColor=none;verticalAlign=top;align=center;perimeter=ellipsePerimeter;outlineConnect=0;aspect=fixed;outline=end;symbol=terminate2;fillColor=#e1d5e7;strokeColor=#9673a6;" parent="mQIjWDaoDwh8q7IW5GbV-299" vertex="1">
          <mxGeometry x="806" y="30" width="50" height="50" as="geometry" />
        </mxCell>
        <mxCell id="mQIjWDaoDwh8q7IW5GbV-328" value="Login-Handler" style="swimlane;html=1;startSize=20;horizontal=0;labelBackgroundColor=none;strokeWidth=2;" parent="mQIjWDaoDwh8q7IW5GbV-298" vertex="1">
          <mxGeometry x="20" y="250" width="1130" height="160" as="geometry" />
        </mxCell>
        <mxCell id="mQIjWDaoDwh8q7IW5GbV-329" style="edgeStyle=orthogonalEdgeStyle;rounded=0;orthogonalLoop=1;jettySize=auto;html=1;labelBackgroundColor=none;" parent="mQIjWDaoDwh8q7IW5GbV-328" source="mQIjWDaoDwh8q7IW5GbV-330" target="mQIjWDaoDwh8q7IW5GbV-335" edge="1">
          <mxGeometry relative="1" as="geometry" />
        </mxCell>
        <mxCell id="mQIjWDaoDwh8q7IW5GbV-330" value="" style="points=[[0.145,0.145,0],[0.5,0,0],[0.855,0.145,0],[1,0.5,0],[0.855,0.855,0],[0.5,1,0],[0.145,0.855,0],[0,0.5,0]];shape=mxgraph.bpmn.event;html=1;verticalLabelPosition=bottom;labelBackgroundColor=none;verticalAlign=top;align=center;perimeter=ellipsePerimeter;outlineConnect=0;aspect=fixed;outline=standard;symbol=message;fillColor=#ffe6cc;strokeColor=#d79b00;" parent="mQIjWDaoDwh8q7IW5GbV-328" vertex="1">
          <mxGeometry x="626" y="70" width="50" height="50" as="geometry" />
        </mxCell>
        <mxCell id="mQIjWDaoDwh8q7IW5GbV-331" value="" style="group;labelBackgroundColor=none;" parent="mQIjWDaoDwh8q7IW5GbV-328" vertex="1" connectable="0">
          <mxGeometry x="476" width="145" height="60" as="geometry" />
        </mxCell>
        <mxCell id="mQIjWDaoDwh8q7IW5GbV-332" value="" style="shape=mxgraph.bpmn.data;labelPosition=center;verticalLabelPosition=bottom;align=center;verticalAlign=top;size=15;html=1;labelBackgroundColor=none;fillColor=#ffe6cc;strokeColor=#d79b00;" parent="mQIjWDaoDwh8q7IW5GbV-331" vertex="1">
          <mxGeometry width="140" height="60" as="geometry" />
        </mxCell>
        <mxCell id="mQIjWDaoDwh8q7IW5GbV-333" value="&lt;div&gt;SetCookie (AuthN)&lt;br&gt;&lt;/div&gt;&lt;div&gt;Location&lt;br&gt;&lt;/div&gt;" style="text;html=1;align=center;verticalAlign=middle;resizable=0;points=[];autosize=1;strokeColor=none;fillColor=none;fontFamily=Courier New;labelBackgroundColor=none;" parent="mQIjWDaoDwh8q7IW5GbV-331" vertex="1">
          <mxGeometry x="-5" y="10" width="150" height="40" as="geometry" />
        </mxCell>
        <mxCell id="mQIjWDaoDwh8q7IW5GbV-334" value="" style="edgeStyle=elbowEdgeStyle;fontSize=12;html=1;endFill=0;startFill=0;endSize=6;startSize=6;dashed=1;dashPattern=1 4;endArrow=none;startArrow=none;rounded=0;exitX=0;exitY=0;exitDx=140;exitDy=37.5;exitPerimeter=0;labelBackgroundColor=none;" parent="mQIjWDaoDwh8q7IW5GbV-328" source="mQIjWDaoDwh8q7IW5GbV-332" edge="1">
          <mxGeometry width="160" relative="1" as="geometry">
            <mxPoint x="686" y="40" as="sourcePoint" />
            <mxPoint x="650" y="38" as="targetPoint" />
          </mxGeometry>
        </mxCell>
        <mxCell id="mQIjWDaoDwh8q7IW5GbV-335" value="Ermittlung der spezifischen Anmeldeseite" style="points=[[0.25,0,0],[0.5,0,0],[0.75,0,0],[1,0.25,0],[1,0.5,0],[1,0.75,0],[0.75,1,0],[0.5,1,0],[0.25,1,0],[0,0.75,0],[0,0.5,0],[0,0.25,0]];shape=mxgraph.bpmn.task;whiteSpace=wrap;rectStyle=rounded;size=10;html=1;container=1;expand=0;collapsible=0;taskMarker=abstract;labelBackgroundColor=none;fillColor=#ffe6cc;strokeColor=#d79b00;" parent="mQIjWDaoDwh8q7IW5GbV-328" vertex="1">
          <mxGeometry x="726" y="55" width="120" height="80" as="geometry" />
        </mxCell>
        <mxCell id="mQIjWDaoDwh8q7IW5GbV-336" value="&lt;div&gt;Redirect zur Anmeldeseite&lt;br&gt;&lt;/div&gt;" style="points=[[0.25,0,0],[0.5,0,0],[0.75,0,0],[1,0.25,0],[1,0.5,0],[1,0.75,0],[0.75,1,0],[0.5,1,0],[0.25,1,0],[0,0.75,0],[0,0.5,0],[0,0.25,0]];shape=mxgraph.bpmn.task;whiteSpace=wrap;rectStyle=rounded;size=10;html=1;container=1;expand=0;collapsible=0;taskMarker=send;labelBackgroundColor=none;fillColor=#ffe6cc;strokeColor=#d79b00;" parent="mQIjWDaoDwh8q7IW5GbV-328" vertex="1">
          <mxGeometry x="896" y="55" width="120" height="80" as="geometry" />
        </mxCell>
        <mxCell id="mQIjWDaoDwh8q7IW5GbV-337" style="edgeStyle=orthogonalEdgeStyle;rounded=0;orthogonalLoop=1;jettySize=auto;html=1;entryX=0;entryY=0.5;entryDx=0;entryDy=0;entryPerimeter=0;labelBackgroundColor=none;" parent="mQIjWDaoDwh8q7IW5GbV-328" source="mQIjWDaoDwh8q7IW5GbV-335" target="mQIjWDaoDwh8q7IW5GbV-336" edge="1">
          <mxGeometry relative="1" as="geometry" />
        </mxCell>
        <mxCell id="mQIjWDaoDwh8q7IW5GbV-338" value="" style="group;labelBackgroundColor=none;" parent="mQIjWDaoDwh8q7IW5GbV-328" vertex="1" connectable="0">
          <mxGeometry x="786" y="-20" width="145" height="60" as="geometry" />
        </mxCell>
        <mxCell id="mQIjWDaoDwh8q7IW5GbV-339" value="" style="shape=mxgraph.bpmn.data;labelPosition=center;verticalLabelPosition=bottom;align=center;verticalAlign=top;size=15;html=1;labelBackgroundColor=none;fillColor=#ffe6cc;strokeColor=#d79b00;" parent="mQIjWDaoDwh8q7IW5GbV-338" vertex="1">
          <mxGeometry width="140" height="60" as="geometry" />
        </mxCell>
        <mxCell id="mQIjWDaoDwh8q7IW5GbV-340" value="AuthN-Cookie" style="text;html=1;align=center;verticalAlign=middle;resizable=0;points=[];autosize=1;strokeColor=none;fillColor=none;fontFamily=Courier New;labelBackgroundColor=none;" parent="mQIjWDaoDwh8q7IW5GbV-338" vertex="1">
          <mxGeometry x="15" y="15" width="110" height="30" as="geometry" />
        </mxCell>
        <mxCell id="mQIjWDaoDwh8q7IW5GbV-341" value="" style="edgeStyle=elbowEdgeStyle;fontSize=12;html=1;endFill=0;startFill=0;endSize=6;startSize=6;dashed=1;dashPattern=1 4;endArrow=none;startArrow=none;rounded=0;exitX=0;exitY=0;exitDx=140;exitDy=37.5;exitPerimeter=0;entryX=0.5;entryY=0;entryDx=0;entryDy=0;entryPerimeter=0;labelBackgroundColor=none;" parent="mQIjWDaoDwh8q7IW5GbV-328" source="mQIjWDaoDwh8q7IW5GbV-339" target="mQIjWDaoDwh8q7IW5GbV-336" edge="1">
          <mxGeometry width="160" relative="1" as="geometry">
            <mxPoint x="806" as="sourcePoint" />
            <mxPoint x="956" y="60" as="targetPoint" />
            <Array as="points">
              <mxPoint x="956" y="30" />
            </Array>
          </mxGeometry>
        </mxCell>
        <mxCell id="mQIjWDaoDwh8q7IW5GbV-342" value="" style="endArrow=blockThin;html=1;labelPosition=left;verticalLabelPosition=middle;align=right;verticalAlign=middle;dashed=1;dashPattern=8 4;endFill=0;startArrow=oval;startFill=0;endSize=6;startSize=4;rounded=0;exitX=0.5;exitY=1;exitDx=0;exitDy=0;exitPerimeter=0;entryX=0.5;entryY=0;entryDx=0;entryDy=0;entryPerimeter=0;labelBackgroundColor=none;" parent="mQIjWDaoDwh8q7IW5GbV-298" source="mQIjWDaoDwh8q7IW5GbV-306" target="mQIjWDaoDwh8q7IW5GbV-330" edge="1">
          <mxGeometry relative="1" as="geometry">
            <mxPoint x="456" y="200" as="sourcePoint" />
            <mxPoint x="616" y="200" as="targetPoint" />
          </mxGeometry>
        </mxCell>
        <mxCell id="mQIjWDaoDwh8q7IW5GbV-343" value="" style="shape=message;html=1;outlineConnect=0;labelPosition=left;verticalLabelPosition=middle;align=right;verticalAlign=middle;spacingRight=5;labelBackgroundColor=none;fillColor=#ffe6cc;strokeColor=#d79b00;" parent="mQIjWDaoDwh8q7IW5GbV-342" vertex="1">
          <mxGeometry width="24" height="16" relative="1" as="geometry">
            <mxPoint x="8" y="5" as="offset" />
          </mxGeometry>
        </mxCell>
        <mxCell id="mQIjWDaoDwh8q7IW5GbV-344" value="" style="endArrow=blockThin;html=1;labelPosition=left;verticalLabelPosition=middle;align=right;verticalAlign=middle;dashed=1;dashPattern=8 4;endFill=0;startArrow=oval;startFill=0;endSize=6;startSize=4;rounded=0;exitX=0.5;exitY=0;exitDx=0;exitDy=0;exitPerimeter=0;entryX=0.5;entryY=1;entryDx=0;entryDy=0;entryPerimeter=0;labelBackgroundColor=none;" parent="mQIjWDaoDwh8q7IW5GbV-298" source="mQIjWDaoDwh8q7IW5GbV-336" target="mQIjWDaoDwh8q7IW5GbV-326" edge="1">
          <mxGeometry relative="1" as="geometry">
            <mxPoint x="766" y="-110" as="sourcePoint" />
            <mxPoint x="976" y="210" as="targetPoint" />
          </mxGeometry>
        </mxCell>
        <mxCell id="mQIjWDaoDwh8q7IW5GbV-345" value="" style="shape=message;html=1;outlineConnect=0;labelPosition=left;verticalLabelPosition=middle;align=right;verticalAlign=middle;spacingRight=5;labelBackgroundColor=none;fillColor=#ffe6cc;strokeColor=#d79b00;" parent="mQIjWDaoDwh8q7IW5GbV-344" vertex="1">
          <mxGeometry width="24" height="16" relative="1" as="geometry">
            <mxPoint x="10" y="13" as="offset" />
          </mxGeometry>
        </mxCell>
        <mxCell id="mQIjWDaoDwh8q7IW5GbV-346" value="Discovery Sevice" style="swimlane;html=1;childLayout=stackLayout;resizeParent=1;resizeParentMax=0;horizontal=0;startSize=20;horizontalStack=0;whiteSpace=wrap;labelBackgroundColor=none;strokeWidth=3;" parent="1" vertex="1">
          <mxGeometry x="170" y="-1730" width="1150" height="150" as="geometry" />
        </mxCell>
        <mxCell id="mQIjWDaoDwh8q7IW5GbV-347" value="Discovery Service" style="swimlane;html=1;startSize=20;horizontal=0;labelBackgroundColor=none;swimlaneFillColor=none;strokeWidth=2;" parent="mQIjWDaoDwh8q7IW5GbV-346" vertex="1">
          <mxGeometry x="20" width="1130" height="150" as="geometry" />
        </mxCell>
        <mxCell id="mQIjWDaoDwh8q7IW5GbV-354" value="Redirect" style="points=[[0.25,0,0],[0.5,0,0],[0.75,0,0],[1,0.25,0],[1,0.5,0],[1,0.75,0],[0.75,1,0],[0.5,1,0],[0.25,1,0],[0,0.75,0],[0,0.5,0],[0,0.25,0]];shape=mxgraph.bpmn.task;whiteSpace=wrap;rectStyle=rounded;size=10;html=1;container=1;expand=0;collapsible=0;taskMarker=send;labelBackgroundColor=none;fillColor=#d5e8d4;strokeColor=#82b366;" parent="mQIjWDaoDwh8q7IW5GbV-347" vertex="1">
          <mxGeometry x="186" y="35" width="120" height="80" as="geometry" />
        </mxCell>
        <mxCell id="mQIjWDaoDwh8q7IW5GbV-405" value="Phase 1" style="points=[[0.145,0.145,0],[0.5,0,0],[0.855,0.145,0],[1,0.5,0],[0.855,0.855,0],[0.5,1,0],[0.145,0.855,0],[0,0.5,0]];shape=mxgraph.bpmn.event;html=1;verticalLabelPosition=bottom;labelBackgroundColor=none;verticalAlign=top;align=center;perimeter=ellipsePerimeter;outlineConnect=0;aspect=fixed;outline=standard;symbol=general;fillColor=#d5e8d4;strokeColor=#82b366;" parent="mQIjWDaoDwh8q7IW5GbV-347" vertex="1">
          <mxGeometry x="51" y="50" width="50" height="50" as="geometry" />
        </mxCell>
        <mxCell id="mQIjWDaoDwh8q7IW5GbV-406" style="edgeStyle=orthogonalEdgeStyle;rounded=0;orthogonalLoop=1;jettySize=auto;html=1;entryX=0;entryY=0.5;entryDx=0;entryDy=0;entryPerimeter=0;" parent="mQIjWDaoDwh8q7IW5GbV-347" source="mQIjWDaoDwh8q7IW5GbV-405" target="mQIjWDaoDwh8q7IW5GbV-354" edge="1">
          <mxGeometry relative="1" as="geometry" />
        </mxCell>
        <mxCell id="mQIjWDaoDwh8q7IW5GbV-365" value="" style="endArrow=blockThin;html=1;labelPosition=left;verticalLabelPosition=middle;align=right;verticalAlign=middle;dashed=1;dashPattern=8 4;endFill=0;startArrow=oval;startFill=0;endSize=6;startSize=4;rounded=0;exitX=0.5;exitY=0;exitDx=0;exitDy=0;exitPerimeter=0;labelBackgroundColor=none;" parent="1" source="mQIjWDaoDwh8q7IW5GbV-354" target="mQIjWDaoDwh8q7IW5GbV-251" edge="1">
          <mxGeometry relative="1" as="geometry">
            <mxPoint x="436" y="-1730" as="sourcePoint" />
            <mxPoint x="476" y="-1610" as="targetPoint" />
          </mxGeometry>
        </mxCell>
        <mxCell id="mQIjWDaoDwh8q7IW5GbV-366" value="" style="shape=message;html=1;outlineConnect=0;labelPosition=left;verticalLabelPosition=middle;align=right;verticalAlign=middle;spacingRight=5;labelBackgroundColor=none;fillColor=#d5e8d4;strokeColor=#82b366;" parent="mQIjWDaoDwh8q7IW5GbV-365" vertex="1">
          <mxGeometry width="24" height="16" relative="1" as="geometry">
            <mxPoint x="10" y="50" as="offset" />
          </mxGeometry>
        </mxCell>
        <mxCell id="mQIjWDaoDwh8q7IW5GbV-367" value="" style="edgeStyle=elbowEdgeStyle;fontSize=12;html=1;endFill=0;startFill=0;endSize=6;startSize=6;dashed=1;dashPattern=1 4;endArrow=none;startArrow=none;rounded=0;exitX=0;exitY=0.5;exitDx=0;exitDy=0;exitPerimeter=0;labelBackgroundColor=none;" parent="1" source="mQIjWDaoDwh8q7IW5GbV-401" edge="1">
          <mxGeometry width="160" relative="1" as="geometry">
            <mxPoint x="376" y="-1610" as="sourcePoint" />
            <mxPoint x="436" y="-1890" as="targetPoint" />
            <Array as="points">
              <mxPoint x="436" y="-1820" />
            </Array>
          </mxGeometry>
        </mxCell>
        <mxCell id="mQIjWDaoDwh8q7IW5GbV-368" value="" style="endArrow=blockThin;html=1;labelPosition=left;verticalLabelPosition=middle;align=right;verticalAlign=middle;dashed=1;dashPattern=8 4;endFill=0;startArrow=oval;startFill=0;endSize=6;startSize=4;rounded=0;exitX=0.5;exitY=1;exitDx=0;exitDy=0;exitPerimeter=0;entryX=0.5;entryY=0;entryDx=0;entryDy=0;entryPerimeter=0;labelBackgroundColor=none;" parent="1" source="mQIjWDaoDwh8q7IW5GbV-254" target="mQIjWDaoDwh8q7IW5GbV-301" edge="1">
          <mxGeometry relative="1" as="geometry">
            <mxPoint x="646" y="-1650" as="sourcePoint" />
            <mxPoint x="806" y="-1650" as="targetPoint" />
            <Array as="points">
              <mxPoint x="560" y="-1520" />
            </Array>
          </mxGeometry>
        </mxCell>
        <mxCell id="mQIjWDaoDwh8q7IW5GbV-369" value="" style="shape=message;html=1;outlineConnect=0;labelPosition=left;verticalLabelPosition=middle;align=right;verticalAlign=middle;spacingRight=5;labelBackgroundColor=none;fillColor=#ffe6cc;strokeColor=#d79b00;" parent="mQIjWDaoDwh8q7IW5GbV-368" vertex="1">
          <mxGeometry width="24" height="16" relative="1" as="geometry">
            <mxPoint x="-30" y="-107" as="offset" />
          </mxGeometry>
        </mxCell>
        <mxCell id="mQIjWDaoDwh8q7IW5GbV-390" value="" style="endArrow=blockThin;html=1;labelPosition=left;verticalLabelPosition=middle;align=right;verticalAlign=middle;dashed=1;dashPattern=8 4;endFill=0;startArrow=oval;startFill=0;endSize=6;startSize=4;rounded=0;exitX=0.5;exitY=0;exitDx=0;exitDy=0;exitPerimeter=0;entryX=0.5;entryY=1;entryDx=0;entryDy=0;entryPerimeter=0;labelBackgroundColor=none;" parent="1" source="mQIjWDaoDwh8q7IW5GbV-327" target="mQIjWDaoDwh8q7IW5GbV-287" edge="1">
          <mxGeometry relative="1" as="geometry">
            <mxPoint x="1136" y="-1510" as="sourcePoint" />
            <mxPoint x="1296" y="-1510" as="targetPoint" />
          </mxGeometry>
        </mxCell>
        <mxCell id="mQIjWDaoDwh8q7IW5GbV-391" value="" style="shape=message;html=1;outlineConnect=0;labelPosition=left;verticalLabelPosition=middle;align=right;verticalAlign=middle;spacingRight=5;labelBackgroundColor=none;fillColor=#ffe6cc;strokeColor=#d79b00;" parent="mQIjWDaoDwh8q7IW5GbV-390" vertex="1">
          <mxGeometry width="24" height="16" relative="1" as="geometry">
            <mxPoint x="10" y="229" as="offset" />
          </mxGeometry>
        </mxCell>
        <mxCell id="mQIjWDaoDwh8q7IW5GbV-392" value="" style="group;labelBackgroundColor=none;" parent="1" vertex="1" connectable="0">
          <mxGeometry x="976" y="-1591" width="145" height="60" as="geometry" />
        </mxCell>
        <mxCell id="mQIjWDaoDwh8q7IW5GbV-393" value="" style="shape=mxgraph.bpmn.data;labelPosition=center;verticalLabelPosition=bottom;align=center;verticalAlign=top;size=15;html=1;labelBackgroundColor=none;fillColor=#ffe6cc;strokeColor=#d79b00;" parent="mQIjWDaoDwh8q7IW5GbV-392" vertex="1">
          <mxGeometry width="140" height="60" as="geometry" />
        </mxCell>
        <mxCell id="mQIjWDaoDwh8q7IW5GbV-394" value="AuthN-Cookie" style="text;html=1;align=center;verticalAlign=middle;resizable=0;points=[];autosize=1;strokeColor=none;fillColor=none;fontFamily=Courier New;labelBackgroundColor=none;" parent="mQIjWDaoDwh8q7IW5GbV-392" vertex="1">
          <mxGeometry x="15" y="15" width="110" height="30" as="geometry" />
        </mxCell>
        <mxCell id="mQIjWDaoDwh8q7IW5GbV-395" value="" style="edgeStyle=elbowEdgeStyle;fontSize=12;html=1;endFill=0;startFill=0;endSize=6;startSize=6;dashed=1;dashPattern=1 4;endArrow=none;startArrow=none;rounded=0;exitX=0.999;exitY=0.535;exitDx=0;exitDy=0;exitPerimeter=0;entryX=0.5;entryY=0;entryDx=0;entryDy=0;entryPerimeter=0;labelBackgroundColor=none;" parent="1" source="mQIjWDaoDwh8q7IW5GbV-393" target="mQIjWDaoDwh8q7IW5GbV-327" edge="1">
          <mxGeometry width="160" relative="1" as="geometry">
            <mxPoint x="1126" y="-1410" as="sourcePoint" />
            <mxPoint x="1286" y="-1410" as="targetPoint" />
            <Array as="points">
              <mxPoint x="1146" y="-1530" />
            </Array>
          </mxGeometry>
        </mxCell>
        <mxCell id="mQIjWDaoDwh8q7IW5GbV-400" value="" style="group;labelBackgroundColor=none;" parent="1" vertex="1" connectable="0">
          <mxGeometry x="270" y="-1780" width="140" height="60" as="geometry" />
        </mxCell>
        <mxCell id="mQIjWDaoDwh8q7IW5GbV-401" value="" style="shape=mxgraph.bpmn.data;labelPosition=center;verticalLabelPosition=bottom;align=center;verticalAlign=top;size=15;html=1;labelBackgroundColor=none;fillColor=#d5e8d4;strokeColor=#82b366;" parent="mQIjWDaoDwh8q7IW5GbV-400" vertex="1">
          <mxGeometry width="140" height="60" as="geometry" />
        </mxCell>
        <mxCell id="mQIjWDaoDwh8q7IW5GbV-402" value="&lt;div&gt;Auth.-Protokoll&lt;/div&gt;&lt;div&gt;Target&lt;/div&gt;&lt;div&gt;entityID&lt;br&gt;&lt;/div&gt;" style="text;html=1;align=center;verticalAlign=middle;resizable=0;points=[];autosize=1;strokeColor=none;fillColor=none;fontFamily=Courier New;labelBackgroundColor=none;" parent="mQIjWDaoDwh8q7IW5GbV-400" vertex="1">
          <mxGeometry x="5" width="130" height="60" as="geometry" />
        </mxCell>
        <mxCell id="mQIjWDaoDwh8q7IW5GbV-591" value="Ressource" style="swimlane;html=1;childLayout=stackLayout;resizeParent=1;resizeParentMax=0;startSize=20;whiteSpace=wrap;" parent="1" vertex="1">
          <mxGeometry x="2020" y="-2190" width="370" height="1410" as="geometry" />
        </mxCell>
        <mxCell id="mQIjWDaoDwh8q7IW5GbV-592" value="Service Provider" style="swimlane;html=1;startSize=20;" parent="mQIjWDaoDwh8q7IW5GbV-591" vertex="1">
          <mxGeometry y="20" width="370" height="1390" as="geometry" />
        </mxCell>
        <mxCell id="mQIjWDaoDwh8q7IW5GbV-619" style="edgeStyle=orthogonalEdgeStyle;rounded=0;orthogonalLoop=1;jettySize=auto;html=1;" parent="mQIjWDaoDwh8q7IW5GbV-592" source="mQIjWDaoDwh8q7IW5GbV-602" target="mQIjWDaoDwh8q7IW5GbV-613" edge="1">
          <mxGeometry relative="1" as="geometry" />
        </mxCell>
        <mxCell id="mQIjWDaoDwh8q7IW5GbV-602" value="" style="points=[[0.145,0.145,0],[0.5,0,0],[0.855,0.145,0],[1,0.5,0],[0.855,0.855,0],[0.5,1,0],[0.145,0.855,0],[0,0.5,0]];shape=mxgraph.bpmn.event;html=1;verticalLabelPosition=bottom;labelBackgroundColor=none;verticalAlign=top;align=center;perimeter=ellipsePerimeter;outlineConnect=0;aspect=fixed;outline=standard;symbol=message;fillColor=#d5e8d4;strokeColor=#82b366;" parent="mQIjWDaoDwh8q7IW5GbV-592" vertex="1">
          <mxGeometry x="40" y="145" width="50" height="50" as="geometry" />
        </mxCell>
        <mxCell id="mQIjWDaoDwh8q7IW5GbV-613" value="PrÃ¼fung Cookies auf&lt;font face=&quot;Courier New&quot;&gt; shibsession&lt;/font&gt;" style="points=[[0.25,0,0],[0.5,0,0],[0.75,0,0],[1,0.25,0],[1,0.5,0],[1,0.75,0],[0.75,1,0],[0.5,1,0],[0.25,1,0],[0,0.75,0],[0,0.5,0],[0,0.25,0]];shape=mxgraph.bpmn.task;whiteSpace=wrap;rectStyle=rounded;size=10;html=1;container=1;expand=0;collapsible=0;taskMarker=abstract;labelBackgroundColor=none;fillColor=#d5e8d4;strokeColor=#82b366;" parent="mQIjWDaoDwh8q7IW5GbV-592" vertex="1">
          <mxGeometry x="145" y="130" width="120" height="80" as="geometry" />
        </mxCell>
        <mxCell id="mQIjWDaoDwh8q7IW5GbV-614" value="" style="points=[[0.25,0.25,0],[0.5,0,0],[0.75,0.25,0],[1,0.5,0],[0.75,0.75,0],[0.5,1,0],[0.25,0.75,0],[0,0.5,0]];shape=mxgraph.bpmn.gateway2;html=1;verticalLabelPosition=bottom;labelBackgroundColor=none;verticalAlign=top;align=center;perimeter=rhombusPerimeter;outlineConnect=0;outline=none;symbol=none;gwType=exclusive;fillColor=#d5e8d4;strokeColor=#82b366;" parent="mQIjWDaoDwh8q7IW5GbV-592" vertex="1">
          <mxGeometry x="180" y="245" width="50" height="50" as="geometry" />
        </mxCell>
        <mxCell id="mQIjWDaoDwh8q7IW5GbV-615" style="edgeStyle=orthogonalEdgeStyle;rounded=0;orthogonalLoop=1;jettySize=auto;html=1;labelBackgroundColor=none;" parent="mQIjWDaoDwh8q7IW5GbV-592" source="mQIjWDaoDwh8q7IW5GbV-613" target="mQIjWDaoDwh8q7IW5GbV-614" edge="1">
          <mxGeometry relative="1" as="geometry" />
        </mxCell>
        <mxCell id="mQIjWDaoDwh8q7IW5GbV-618" value="Phase 1" style="points=[[0.145,0.145,0],[0.5,0,0],[0.855,0.145,0],[1,0.5,0],[0.855,0.855,0],[0.5,1,0],[0.145,0.855,0],[0,0.5,0]];shape=mxgraph.bpmn.event;html=1;verticalLabelPosition=bottom;labelBackgroundColor=none;verticalAlign=top;align=center;perimeter=ellipsePerimeter;outlineConnect=0;aspect=fixed;outline=end;symbol=terminate2;fillColor=#d5e8d4;strokeColor=#82b366;" parent="mQIjWDaoDwh8q7IW5GbV-592" vertex="1">
          <mxGeometry x="275" y="345" width="50" height="50" as="geometry" />
        </mxCell>
        <mxCell id="mQIjWDaoDwh8q7IW5GbV-616" style="edgeStyle=orthogonalEdgeStyle;rounded=0;orthogonalLoop=1;jettySize=auto;html=1;verticalAlign=middle;labelBackgroundColor=none;" parent="mQIjWDaoDwh8q7IW5GbV-592" source="mQIjWDaoDwh8q7IW5GbV-614" target="mQIjWDaoDwh8q7IW5GbV-618" edge="1">
          <mxGeometry relative="1" as="geometry">
            <mxPoint x="1010" y="417.5" as="targetPoint" />
          </mxGeometry>
        </mxCell>
        <mxCell id="mQIjWDaoDwh8q7IW5GbV-617" value="&lt;div&gt;keine aktive&lt;/div&gt;&lt;div&gt;Shibboleth-Session&lt;/div&gt;" style="edgeLabel;html=1;align=center;verticalAlign=middle;resizable=0;points=[];labelBackgroundColor=default;" parent="mQIjWDaoDwh8q7IW5GbV-616" vertex="1" connectable="0">
          <mxGeometry x="0.15" y="2" relative="1" as="geometry">
            <mxPoint x="-2" y="17" as="offset" />
          </mxGeometry>
        </mxCell>
        <mxCell id="mQIjWDaoDwh8q7IW5GbV-622" value="Authorisierung (RechteprÃ¼fung)" style="points=[[0.25,0,0],[0.5,0,0],[0.75,0,0],[1,0.25,0],[1,0.5,0],[1,0.75,0],[0.75,1,0],[0.5,1,0],[0.25,1,0],[0,0.75,0],[0,0.5,0],[0,0.25,0]];shape=mxgraph.bpmn.task;whiteSpace=wrap;rectStyle=rounded;size=10;html=1;container=1;expand=0;collapsible=0;taskMarker=abstract;labelBackgroundColor=none;fillColor=#e1d5e7;strokeColor=#9673a6;" parent="mQIjWDaoDwh8q7IW5GbV-592" vertex="1">
          <mxGeometry x="40" y="330" width="120" height="80" as="geometry" />
        </mxCell>
        <mxCell id="mQIjWDaoDwh8q7IW5GbV-629" style="edgeStyle=orthogonalEdgeStyle;rounded=0;orthogonalLoop=1;jettySize=auto;html=1;entryX=0.5;entryY=0;entryDx=0;entryDy=0;entryPerimeter=0;exitX=0;exitY=0.5;exitDx=0;exitDy=0;exitPerimeter=0;" parent="mQIjWDaoDwh8q7IW5GbV-592" source="mQIjWDaoDwh8q7IW5GbV-614" target="mQIjWDaoDwh8q7IW5GbV-622" edge="1">
          <mxGeometry relative="1" as="geometry" />
        </mxCell>
        <mxCell id="mQIjWDaoDwh8q7IW5GbV-630" value="&lt;div&gt;Benutzer:in hat&lt;br&gt;&lt;/div&gt;&lt;div&gt;aktive Session&lt;br&gt;&lt;/div&gt;" style="edgeLabel;html=1;align=center;verticalAlign=middle;resizable=0;points=[];" parent="mQIjWDaoDwh8q7IW5GbV-629" vertex="1" connectable="0">
          <mxGeometry x="-0.1464" y="1" relative="1" as="geometry">
            <mxPoint x="-28" y="24" as="offset" />
          </mxGeometry>
        </mxCell>
        <mxCell id="mQIjWDaoDwh8q7IW5GbV-631" style="edgeStyle=orthogonalEdgeStyle;rounded=0;orthogonalLoop=1;jettySize=auto;html=1;exitX=1;exitY=0.5;exitDx=0;exitDy=0;exitPerimeter=0;" parent="mQIjWDaoDwh8q7IW5GbV-592" source="mQIjWDaoDwh8q7IW5GbV-626" target="mQIjWDaoDwh8q7IW5GbV-627" edge="1">
          <mxGeometry relative="1" as="geometry">
            <mxPoint x="209.90909090909145" y="365.0909090909081" as="sourcePoint" />
          </mxGeometry>
        </mxCell>
        <mxCell id="mQIjWDaoDwh8q7IW5GbV-632" value="&lt;div&gt;Rechte &lt;i&gt;nicht&lt;/i&gt;&lt;/div&gt;&lt;div&gt;vorhanden&lt;i&gt;&lt;br&gt;&lt;/i&gt;&lt;/div&gt;" style="edgeLabel;html=1;align=center;verticalAlign=middle;resizable=0;points=[];" parent="mQIjWDaoDwh8q7IW5GbV-631" vertex="1" connectable="0">
          <mxGeometry x="0.0184" relative="1" as="geometry">
            <mxPoint y="21" as="offset" />
          </mxGeometry>
        </mxCell>
        <mxCell id="mQIjWDaoDwh8q7IW5GbV-626" value="" style="points=[[0.25,0.25,0],[0.5,0,0],[0.75,0.25,0],[1,0.5,0],[0.75,0.75,0],[0.5,1,0],[0.25,0.75,0],[0,0.5,0]];shape=mxgraph.bpmn.gateway2;html=1;verticalLabelPosition=bottom;labelBackgroundColor=none;verticalAlign=top;align=center;perimeter=rhombusPerimeter;outlineConnect=0;outline=none;symbol=none;gwType=exclusive;fillColor=#e1d5e7;strokeColor=#9673a6;" parent="mQIjWDaoDwh8q7IW5GbV-592" vertex="1">
          <mxGeometry x="180" y="450" width="50" height="50" as="geometry" />
        </mxCell>
        <mxCell id="mQIjWDaoDwh8q7IW5GbV-621" style="edgeStyle=orthogonalEdgeStyle;rounded=0;orthogonalLoop=1;jettySize=auto;html=1;labelBackgroundColor=none;exitX=1;exitY=0.5;exitDx=0;exitDy=0;exitPerimeter=0;" parent="mQIjWDaoDwh8q7IW5GbV-592" source="mQIjWDaoDwh8q7IW5GbV-622" target="mQIjWDaoDwh8q7IW5GbV-626" edge="1">
          <mxGeometry relative="1" as="geometry" />
        </mxCell>
        <mxCell id="mQIjWDaoDwh8q7IW5GbV-627" value="" style="points=[[0.145,0.145,0],[0.5,0,0],[0.855,0.145,0],[1,0.5,0],[0.855,0.855,0],[0.5,1,0],[0.145,0.855,0],[0,0.5,0]];shape=mxgraph.bpmn.event;html=1;verticalLabelPosition=bottom;labelBackgroundColor=none;verticalAlign=top;align=center;perimeter=ellipsePerimeter;outlineConnect=0;aspect=fixed;outline=end;symbol=cancel;fillColor=#e1d5e7;strokeColor=#9673a6;" parent="mQIjWDaoDwh8q7IW5GbV-592" vertex="1">
          <mxGeometry x="275" y="546" width="50" height="50" as="geometry" />
        </mxCell>
        <mxCell id="mQIjWDaoDwh8q7IW5GbV-628" value="GeschÃ¼tzte Ressource" style="points=[[0.25,0,0],[0.5,0,0],[0.75,0,0],[1,0.25,0],[1,0.5,0],[1,0.75,0],[0.75,1,0],[0.5,1,0],[0.25,1,0],[0,0.75,0],[0,0.5,0],[0,0.25,0]];shape=mxgraph.bpmn.task;whiteSpace=wrap;rectStyle=rounded;size=10;html=1;container=1;expand=0;collapsible=0;taskMarker=send;labelBackgroundColor=none;fillColor=#e1d5e7;strokeColor=#9673a6;" parent="mQIjWDaoDwh8q7IW5GbV-592" vertex="1">
          <mxGeometry x="40" y="531" width="120" height="80" as="geometry" />
        </mxCell>
        <mxCell id="mQIjWDaoDwh8q7IW5GbV-624" style="edgeStyle=orthogonalEdgeStyle;rounded=0;orthogonalLoop=1;jettySize=auto;html=1;exitX=0;exitY=0.5;exitDx=0;exitDy=0;exitPerimeter=0;" parent="mQIjWDaoDwh8q7IW5GbV-592" source="mQIjWDaoDwh8q7IW5GbV-626" target="mQIjWDaoDwh8q7IW5GbV-628" edge="1">
          <mxGeometry relative="1" as="geometry">
            <mxPoint x="160" y="365" as="sourcePoint" />
          </mxGeometry>
        </mxCell>
        <mxCell id="mQIjWDaoDwh8q7IW5GbV-625" value="&lt;div&gt;Rechte&lt;/div&gt;&lt;div&gt;vorhanden&lt;br&gt;&lt;/div&gt;" style="edgeLabel;html=1;align=center;verticalAlign=middle;resizable=0;points=[];labelBackgroundColor=default;" parent="mQIjWDaoDwh8q7IW5GbV-624" vertex="1" connectable="0">
          <mxGeometry x="0.4667" y="-2" relative="1" as="geometry">
            <mxPoint x="2" y="9" as="offset" />
          </mxGeometry>
        </mxCell>
        <mxCell id="mQIjWDaoDwh8q7IW5GbV-693" value="" style="points=[[0.145,0.145,0],[0.5,0,0],[0.855,0.145,0],[1,0.5,0],[0.855,0.855,0],[0.5,1,0],[0.145,0.855,0],[0,0.5,0]];shape=mxgraph.bpmn.event;html=1;verticalLabelPosition=bottom;labelBackgroundColor=none;verticalAlign=top;align=center;perimeter=ellipsePerimeter;outlineConnect=0;aspect=fixed;outline=standard;symbol=message;fillColor=#e1d5e7;strokeColor=#9673a6;" parent="mQIjWDaoDwh8q7IW5GbV-592" vertex="1">
          <mxGeometry x="275" y="1245" width="50" height="50" as="geometry" />
        </mxCell>
        <mxCell id="mQIjWDaoDwh8q7IW5GbV-688" value="Verarbeitung SAML Assertion inkl. Auth.- &amp;amp; Attribut-Statements" style="points=[[0.25,0,0],[0.5,0,0],[0.75,0,0],[1,0.25,0],[1,0.5,0],[1,0.75,0],[0.75,1,0],[0.5,1,0],[0.25,1,0],[0,0.75,0],[0,0.5,0],[0,0.25,0]];shape=mxgraph.bpmn.task;whiteSpace=wrap;rectStyle=rounded;size=10;html=1;container=1;expand=0;collapsible=0;taskMarker=abstract;labelBackgroundColor=none;fillColor=#e1d5e7;strokeColor=#9673a6;" parent="mQIjWDaoDwh8q7IW5GbV-592" vertex="1">
          <mxGeometry x="40" y="1230" width="120" height="80" as="geometry" />
        </mxCell>
        <mxCell id="mQIjWDaoDwh8q7IW5GbV-686" style="edgeStyle=orthogonalEdgeStyle;rounded=0;orthogonalLoop=1;jettySize=auto;html=1;labelBackgroundColor=none;" parent="mQIjWDaoDwh8q7IW5GbV-592" source="mQIjWDaoDwh8q7IW5GbV-693" target="mQIjWDaoDwh8q7IW5GbV-688" edge="1">
          <mxGeometry relative="1" as="geometry">
            <mxPoint x="260" y="1810" as="sourcePoint" />
          </mxGeometry>
        </mxCell>
        <mxCell id="mQIjWDaoDwh8q7IW5GbV-689" value="Redirect zur angefragten Ressource" style="points=[[0.25,0,0],[0.5,0,0],[0.75,0,0],[1,0.25,0],[1,0.5,0],[1,0.75,0],[0.75,1,0],[0.5,1,0],[0.25,1,0],[0,0.75,0],[0,0.5,0],[0,0.25,0]];shape=mxgraph.bpmn.task;whiteSpace=wrap;rectStyle=rounded;size=10;html=1;container=1;expand=0;collapsible=0;taskMarker=send;labelBackgroundColor=none;fillColor=#e1d5e7;strokeColor=#9673a6;" parent="mQIjWDaoDwh8q7IW5GbV-592" vertex="1">
          <mxGeometry x="40" y="1110" width="120" height="80" as="geometry" />
        </mxCell>
        <mxCell id="mQIjWDaoDwh8q7IW5GbV-687" style="edgeStyle=orthogonalEdgeStyle;rounded=0;orthogonalLoop=1;jettySize=auto;html=1;labelBackgroundColor=none;" parent="mQIjWDaoDwh8q7IW5GbV-592" source="mQIjWDaoDwh8q7IW5GbV-688" target="mQIjWDaoDwh8q7IW5GbV-689" edge="1">
          <mxGeometry relative="1" as="geometry">
            <mxPoint x="485" y="1810" as="targetPoint" />
          </mxGeometry>
        </mxCell>
        <mxCell id="mQIjWDaoDwh8q7IW5GbV-593" value="Benutzer:in" style="swimlane;html=1;childLayout=stackLayout;resizeParent=1;resizeParentMax=0;startSize=20;whiteSpace=wrap;" parent="1" vertex="1">
          <mxGeometry x="1780" y="-2190" width="200" height="1410" as="geometry" />
        </mxCell>
        <mxCell id="mQIjWDaoDwh8q7IW5GbV-594" value="Benutzer:in" style="swimlane;html=1;startSize=20;" parent="mQIjWDaoDwh8q7IW5GbV-593" vertex="1">
          <mxGeometry y="20" width="200" height="1390" as="geometry" />
        </mxCell>
        <mxCell id="mQIjWDaoDwh8q7IW5GbV-599" value="" style="points=[[0.145,0.145,0],[0.5,0,0],[0.855,0.145,0],[1,0.5,0],[0.855,0.855,0],[0.5,1,0],[0.145,0.855,0],[0,0.5,0]];shape=mxgraph.bpmn.event;html=1;verticalLabelPosition=bottom;labelBackgroundColor=none;verticalAlign=top;align=center;perimeter=ellipsePerimeter;outlineConnect=0;aspect=fixed;outline=standard;symbol=general;fillColor=#d5e8d4;strokeColor=#82b366;" parent="mQIjWDaoDwh8q7IW5GbV-594" vertex="1">
          <mxGeometry x="75" y="40" width="50" height="50" as="geometry" />
        </mxCell>
        <mxCell id="mQIjWDaoDwh8q7IW5GbV-600" value="Anfrage der geschÃ¼tzten Ressource" style="points=[[0.25,0,0],[0.5,0,0],[0.75,0,0],[1,0.25,0],[1,0.5,0],[1,0.75,0],[0.75,1,0],[0.5,1,0],[0.25,1,0],[0,0.75,0],[0,0.5,0],[0,0.25,0]];shape=mxgraph.bpmn.task;whiteSpace=wrap;rectStyle=rounded;size=10;html=1;container=1;expand=0;collapsible=0;taskMarker=send;labelBackgroundColor=none;fillColor=#d5e8d4;strokeColor=#82b366;" parent="mQIjWDaoDwh8q7IW5GbV-594" vertex="1">
          <mxGeometry x="40" y="130" width="120" height="80" as="geometry" />
        </mxCell>
        <mxCell id="mQIjWDaoDwh8q7IW5GbV-601" style="edgeStyle=orthogonalEdgeStyle;rounded=0;orthogonalLoop=1;jettySize=auto;html=1;" parent="mQIjWDaoDwh8q7IW5GbV-594" source="mQIjWDaoDwh8q7IW5GbV-599" target="mQIjWDaoDwh8q7IW5GbV-600" edge="1">
          <mxGeometry relative="1" as="geometry" />
        </mxCell>
        <mxCell id="mQIjWDaoDwh8q7IW5GbV-633" value="" style="points=[[0.145,0.145,0],[0.5,0,0],[0.855,0.145,0],[1,0.5,0],[0.855,0.855,0],[0.5,1,0],[0.145,0.855,0],[0,0.5,0]];shape=mxgraph.bpmn.event;html=1;verticalLabelPosition=bottom;labelBackgroundColor=none;verticalAlign=top;align=center;perimeter=ellipsePerimeter;outlineConnect=0;aspect=fixed;outline=standard;symbol=message;fillColor=#e1d5e7;strokeColor=#9673a6;" parent="mQIjWDaoDwh8q7IW5GbV-594" vertex="1">
          <mxGeometry x="75" y="546" width="50" height="50" as="geometry" />
        </mxCell>
        <mxCell id="mQIjWDaoDwh8q7IW5GbV-635" value="Zugriff auf geschÃ¼tzte Ressource" style="points=[[0.25,0,0],[0.5,0,0],[0.75,0,0],[1,0.25,0],[1,0.5,0],[1,0.75,0],[0.75,1,0],[0.5,1,0],[0.25,1,0],[0,0.75,0],[0,0.5,0],[0,0.25,0]];shape=mxgraph.bpmn.task;whiteSpace=wrap;rectStyle=rounded;size=10;html=1;container=1;expand=0;collapsible=0;taskMarker=abstract;labelBackgroundColor=none;fillColor=#e1d5e7;strokeColor=#9673a6;" parent="mQIjWDaoDwh8q7IW5GbV-594" vertex="1">
          <mxGeometry x="40" y="411" width="120" height="80" as="geometry" />
        </mxCell>
        <mxCell id="mQIjWDaoDwh8q7IW5GbV-637" value="" style="points=[[0.145,0.145,0],[0.5,0,0],[0.855,0.145,0],[1,0.5,0],[0.855,0.855,0],[0.5,1,0],[0.145,0.855,0],[0,0.5,0]];shape=mxgraph.bpmn.event;html=1;verticalLabelPosition=bottom;labelBackgroundColor=none;verticalAlign=top;align=center;perimeter=ellipsePerimeter;outlineConnect=0;aspect=fixed;outline=end;symbol=terminate2;fillColor=#e1d5e7;strokeColor=#9673a6;" parent="mQIjWDaoDwh8q7IW5GbV-594" vertex="1">
          <mxGeometry x="75" y="320" width="50" height="50" as="geometry" />
        </mxCell>
        <mxCell id="mQIjWDaoDwh8q7IW5GbV-634" style="edgeStyle=orthogonalEdgeStyle;rounded=0;orthogonalLoop=1;jettySize=auto;html=1;labelBackgroundColor=none;" parent="mQIjWDaoDwh8q7IW5GbV-594" source="mQIjWDaoDwh8q7IW5GbV-635" target="mQIjWDaoDwh8q7IW5GbV-637" edge="1">
          <mxGeometry relative="1" as="geometry" />
        </mxCell>
        <mxCell id="mQIjWDaoDwh8q7IW5GbV-659" style="edgeStyle=orthogonalEdgeStyle;rounded=0;orthogonalLoop=1;jettySize=auto;html=1;entryX=0.5;entryY=1;entryDx=0;entryDy=0;entryPerimeter=0;" parent="mQIjWDaoDwh8q7IW5GbV-594" source="mQIjWDaoDwh8q7IW5GbV-633" target="mQIjWDaoDwh8q7IW5GbV-635" edge="1">
          <mxGeometry relative="1" as="geometry" />
        </mxCell>
        <mxCell id="mQIjWDaoDwh8q7IW5GbV-651" value="" style="points=[[0.145,0.145,0],[0.5,0,0],[0.855,0.145,0],[1,0.5,0],[0.855,0.855,0],[0.5,1,0],[0.145,0.855,0],[0,0.5,0]];shape=mxgraph.bpmn.event;html=1;verticalLabelPosition=bottom;labelBackgroundColor=none;verticalAlign=top;align=center;perimeter=ellipsePerimeter;outlineConnect=0;aspect=fixed;outline=standard;symbol=message;fillColor=#e1d5e7;strokeColor=#9673a6;" parent="mQIjWDaoDwh8q7IW5GbV-594" vertex="1">
          <mxGeometry x="75" y="636" width="50" height="50" as="geometry" />
        </mxCell>
        <mxCell id="mQIjWDaoDwh8q7IW5GbV-652" value="Eingabe der Anmeldedaten" style="points=[[0.25,0,0],[0.5,0,0],[0.75,0,0],[1,0.25,0],[1,0.5,0],[1,0.75,0],[0.75,1,0],[0.5,1,0],[0.25,1,0],[0,0.75,0],[0,0.5,0],[0,0.25,0]];shape=mxgraph.bpmn.task;whiteSpace=wrap;rectStyle=rounded;size=10;html=1;container=1;expand=0;collapsible=0;taskMarker=abstract;labelBackgroundColor=none;fillColor=#e1d5e7;strokeColor=#9673a6;" parent="mQIjWDaoDwh8q7IW5GbV-594" vertex="1">
          <mxGeometry x="40" y="721" width="120" height="80" as="geometry" />
        </mxCell>
        <mxCell id="mQIjWDaoDwh8q7IW5GbV-650" style="edgeStyle=orthogonalEdgeStyle;rounded=0;orthogonalLoop=1;jettySize=auto;html=1;labelBackgroundColor=none;" parent="mQIjWDaoDwh8q7IW5GbV-594" source="mQIjWDaoDwh8q7IW5GbV-651" target="mQIjWDaoDwh8q7IW5GbV-652" edge="1">
          <mxGeometry relative="1" as="geometry" />
        </mxCell>
        <mxCell id="mQIjWDaoDwh8q7IW5GbV-653" value="POST der Daten" style="points=[[0.25,0,0],[0.5,0,0],[0.75,0,0],[1,0.25,0],[1,0.5,0],[1,0.75,0],[0.75,1,0],[0.5,1,0],[0.25,1,0],[0,0.75,0],[0,0.5,0],[0,0.25,0]];shape=mxgraph.bpmn.task;whiteSpace=wrap;rectStyle=rounded;size=10;html=1;container=1;expand=0;collapsible=0;taskMarker=send;labelBackgroundColor=none;fillColor=#e1d5e7;strokeColor=#9673a6;" parent="mQIjWDaoDwh8q7IW5GbV-594" vertex="1">
          <mxGeometry x="40" y="841" width="120" height="80" as="geometry" />
        </mxCell>
        <mxCell id="mQIjWDaoDwh8q7IW5GbV-654" style="edgeStyle=orthogonalEdgeStyle;rounded=0;orthogonalLoop=1;jettySize=auto;html=1;entryX=0.5;entryY=0;entryDx=0;entryDy=0;entryPerimeter=0;labelBackgroundColor=none;" parent="mQIjWDaoDwh8q7IW5GbV-594" source="mQIjWDaoDwh8q7IW5GbV-652" target="mQIjWDaoDwh8q7IW5GbV-653" edge="1">
          <mxGeometry relative="1" as="geometry" />
        </mxCell>
        <mxCell id="mQIjWDaoDwh8q7IW5GbV-699" value="" style="points=[[0.145,0.145,0],[0.5,0,0],[0.855,0.145,0],[1,0.5,0],[0.855,0.855,0],[0.5,1,0],[0.145,0.855,0],[0,0.5,0]];shape=mxgraph.bpmn.event;html=1;verticalLabelPosition=bottom;labelBackgroundColor=none;verticalAlign=top;align=center;perimeter=ellipsePerimeter;outlineConnect=0;aspect=fixed;outline=standard;symbol=message;fillColor=#e1d5e7;strokeColor=#9673a6;" parent="mQIjWDaoDwh8q7IW5GbV-594" vertex="1">
          <mxGeometry x="75" y="1125" width="50" height="50" as="geometry" />
        </mxCell>
        <mxCell id="mQIjWDaoDwh8q7IW5GbV-707" style="edgeStyle=orthogonalEdgeStyle;rounded=0;orthogonalLoop=1;jettySize=auto;html=1;entryX=0;entryY=0.5;entryDx=0;entryDy=0;entryPerimeter=0;exitX=0;exitY=0.5;exitDx=0;exitDy=0;exitPerimeter=0;" parent="mQIjWDaoDwh8q7IW5GbV-594" source="mQIjWDaoDwh8q7IW5GbV-699" target="mQIjWDaoDwh8q7IW5GbV-600" edge="1">
          <mxGeometry relative="1" as="geometry">
            <Array as="points">
              <mxPoint x="20" y="1150" />
              <mxPoint x="20" y="170" />
            </Array>
          </mxGeometry>
        </mxCell>
        <mxCell id="mQIjWDaoDwh8q7IW5GbV-597" value="Home Organisation" style="swimlane;html=1;childLayout=stackLayout;resizeParent=1;resizeParentMax=0;startSize=20;whiteSpace=wrap;" parent="1" vertex="1">
          <mxGeometry x="2430" y="-2190" width="380" height="1410" as="geometry" />
        </mxCell>
        <mxCell id="mQIjWDaoDwh8q7IW5GbV-598" value="Identity Provider" style="swimlane;html=1;startSize=20;" parent="mQIjWDaoDwh8q7IW5GbV-597" vertex="1">
          <mxGeometry y="20" width="380" height="1390" as="geometry" />
        </mxCell>
        <mxCell id="mQIjWDaoDwh8q7IW5GbV-641" value="Benutzer:in war&lt;br&gt;&lt;i&gt;nicht &lt;/i&gt;authentifiziert" style="points=[[0.145,0.145,0],[0.5,0,0],[0.855,0.145,0],[1,0.5,0],[0.855,0.855,0],[0.5,1,0],[0.145,0.855,0],[0,0.5,0]];shape=mxgraph.bpmn.event;html=1;verticalLabelPosition=top;labelBackgroundColor=none;verticalAlign=bottom;align=center;perimeter=ellipsePerimeter;outlineConnect=0;aspect=fixed;outline=standard;symbol=general;fillColor=#ffe6cc;strokeColor=#d79b00;labelPosition=center;" parent="mQIjWDaoDwh8q7IW5GbV-598" vertex="1">
          <mxGeometry x="55" y="521" width="50" height="50" as="geometry" />
        </mxCell>
        <mxCell id="mQIjWDaoDwh8q7IW5GbV-640" value="&lt;div&gt;Redirect zu spezifischer Anmeldeseite&lt;br&gt;&lt;/div&gt;" style="points=[[0.25,0,0],[0.5,0,0],[0.75,0,0],[1,0.25,0],[1,0.5,0],[1,0.75,0],[0.75,1,0],[0.5,1,0],[0.25,1,0],[0,0.75,0],[0,0.5,0],[0,0.25,0]];shape=mxgraph.bpmn.task;whiteSpace=wrap;rectStyle=rounded;size=10;html=1;container=1;expand=0;collapsible=0;taskMarker=send;labelBackgroundColor=none;fillColor=#ffe6cc;strokeColor=#d79b00;" parent="mQIjWDaoDwh8q7IW5GbV-598" vertex="1">
          <mxGeometry x="20" y="621" width="120" height="80" as="geometry" />
        </mxCell>
        <mxCell id="mQIjWDaoDwh8q7IW5GbV-642" style="edgeStyle=orthogonalEdgeStyle;rounded=0;orthogonalLoop=1;jettySize=auto;html=1;entryX=0.5;entryY=0;entryDx=0;entryDy=0;entryPerimeter=0;" parent="mQIjWDaoDwh8q7IW5GbV-598" source="mQIjWDaoDwh8q7IW5GbV-641" target="mQIjWDaoDwh8q7IW5GbV-640" edge="1">
          <mxGeometry relative="1" as="geometry" />
        </mxCell>
        <mxCell id="mQIjWDaoDwh8q7IW5GbV-666" value="" style="points=[[0.145,0.145,0],[0.5,0,0],[0.855,0.145,0],[1,0.5,0],[0.855,0.855,0],[0.5,1,0],[0.145,0.855,0],[0,0.5,0]];shape=mxgraph.bpmn.event;html=1;verticalLabelPosition=bottom;labelBackgroundColor=none;verticalAlign=top;align=center;perimeter=ellipsePerimeter;outlineConnect=0;aspect=fixed;outline=standard;symbol=message;fillColor=#e1d5e7;strokeColor=#9673a6;" parent="mQIjWDaoDwh8q7IW5GbV-598" vertex="1">
          <mxGeometry x="55" y="856" width="50" height="50" as="geometry" />
        </mxCell>
        <mxCell id="mQIjWDaoDwh8q7IW5GbV-668" value="Verifikation der Anmeldedaten" style="points=[[0.25,0,0],[0.5,0,0],[0.75,0,0],[1,0.25,0],[1,0.5,0],[1,0.75,0],[0.75,1,0],[0.5,1,0],[0.25,1,0],[0,0.75,0],[0,0.5,0],[0,0.25,0]];shape=mxgraph.bpmn.task;whiteSpace=wrap;rectStyle=rounded;size=10;html=1;container=1;expand=0;collapsible=0;taskMarker=abstract;labelBackgroundColor=none;fillColor=#e1d5e7;strokeColor=#9673a6;" parent="mQIjWDaoDwh8q7IW5GbV-598" vertex="1">
          <mxGeometry x="230" y="841" width="120" height="80" as="geometry" />
        </mxCell>
        <mxCell id="mQIjWDaoDwh8q7IW5GbV-665" style="edgeStyle=orthogonalEdgeStyle;rounded=0;orthogonalLoop=1;jettySize=auto;html=1;labelBackgroundColor=none;" parent="mQIjWDaoDwh8q7IW5GbV-598" source="mQIjWDaoDwh8q7IW5GbV-666" target="mQIjWDaoDwh8q7IW5GbV-668" edge="1">
          <mxGeometry relative="1" as="geometry" />
        </mxCell>
        <mxCell id="mQIjWDaoDwh8q7IW5GbV-671" value="" style="points=[[0.25,0.25,0],[0.5,0,0],[0.75,0.25,0],[1,0.5,0],[0.75,0.75,0],[0.5,1,0],[0.25,0.75,0],[0,0.5,0]];shape=mxgraph.bpmn.gateway2;html=1;verticalLabelPosition=bottom;labelBackgroundColor=none;verticalAlign=top;align=center;perimeter=rhombusPerimeter;outlineConnect=0;outline=none;symbol=none;gwType=exclusive;fillColor=#e1d5e7;strokeColor=#9673a6;" parent="mQIjWDaoDwh8q7IW5GbV-598" vertex="1">
          <mxGeometry x="165" y="960" width="50" height="50" as="geometry" />
        </mxCell>
        <mxCell id="mQIjWDaoDwh8q7IW5GbV-677" value="" style="points=[[0.145,0.145,0],[0.5,0,0],[0.855,0.145,0],[1,0.5,0],[0.855,0.855,0],[0.5,1,0],[0.145,0.855,0],[0,0.5,0]];shape=mxgraph.bpmn.event;html=1;verticalLabelPosition=bottom;labelBackgroundColor=none;verticalAlign=top;align=center;perimeter=ellipsePerimeter;outlineConnect=0;aspect=fixed;outline=end;symbol=cancel;fillColor=#e1d5e7;strokeColor=#9673a6;" parent="mQIjWDaoDwh8q7IW5GbV-598" vertex="1">
          <mxGeometry x="265" y="1045" width="50" height="50" as="geometry" />
        </mxCell>
        <mxCell id="mQIjWDaoDwh8q7IW5GbV-678" style="edgeStyle=orthogonalEdgeStyle;rounded=0;orthogonalLoop=1;jettySize=auto;html=1;entryX=0.5;entryY=0;entryDx=0;entryDy=0;entryPerimeter=0;labelBackgroundColor=default;" parent="mQIjWDaoDwh8q7IW5GbV-598" source="mQIjWDaoDwh8q7IW5GbV-671" target="mQIjWDaoDwh8q7IW5GbV-677" edge="1">
          <mxGeometry relative="1" as="geometry" />
        </mxCell>
        <mxCell id="mQIjWDaoDwh8q7IW5GbV-679" value="nicht erfolgreich" style="edgeLabel;html=1;align=center;verticalAlign=middle;resizable=0;points=[];labelBackgroundColor=default;" parent="mQIjWDaoDwh8q7IW5GbV-678" vertex="1" connectable="0">
          <mxGeometry x="-0.12" y="-3" relative="1" as="geometry">
            <mxPoint x="19" y="12" as="offset" />
          </mxGeometry>
        </mxCell>
        <mxCell id="mQIjWDaoDwh8q7IW5GbV-673" value="Generierung einer HTML-Seite inkl. SAML Assertion" style="points=[[0.25,0,0],[0.5,0,0],[0.75,0,0],[1,0.25,0],[1,0.5,0],[1,0.75,0],[0.75,1,0],[0.5,1,0],[0.25,1,0],[0,0.75,0],[0,0.5,0],[0,0.25,0]];shape=mxgraph.bpmn.task;whiteSpace=wrap;rectStyle=rounded;size=10;html=1;container=1;expand=0;collapsible=0;taskMarker=abstract;labelBackgroundColor=none;fillColor=#e1d5e7;strokeColor=#9673a6;" parent="mQIjWDaoDwh8q7IW5GbV-598" vertex="1">
          <mxGeometry x="20" y="1030" width="120" height="80" as="geometry" />
        </mxCell>
        <mxCell id="mQIjWDaoDwh8q7IW5GbV-669" style="edgeStyle=orthogonalEdgeStyle;rounded=0;orthogonalLoop=1;jettySize=auto;html=1;labelBackgroundColor=none;" parent="mQIjWDaoDwh8q7IW5GbV-598" source="mQIjWDaoDwh8q7IW5GbV-671" target="mQIjWDaoDwh8q7IW5GbV-673" edge="1">
          <mxGeometry relative="1" as="geometry" />
        </mxCell>
        <mxCell id="mQIjWDaoDwh8q7IW5GbV-670" value="erfolgreich" style="edgeLabel;html=1;align=center;verticalAlign=middle;resizable=0;points=[];labelBackgroundColor=default;" parent="mQIjWDaoDwh8q7IW5GbV-669" vertex="1" connectable="0">
          <mxGeometry x="-0.1523" relative="1" as="geometry">
            <mxPoint x="-18" y="15" as="offset" />
          </mxGeometry>
        </mxCell>
        <mxCell id="mQIjWDaoDwh8q7IW5GbV-674" value="Setzen des IdP-Session-Cookies" style="points=[[0.25,0,0],[0.5,0,0],[0.75,0,0],[1,0.25,0],[1,0.5,0],[1,0.75,0],[0.75,1,0],[0.5,1,0],[0.25,1,0],[0,0.75,0],[0,0.5,0],[0,0.25,0]];shape=mxgraph.bpmn.task;whiteSpace=wrap;rectStyle=rounded;size=10;html=1;container=1;expand=0;collapsible=0;taskMarker=abstract;labelBackgroundColor=none;fillColor=#e1d5e7;strokeColor=#9673a6;" parent="mQIjWDaoDwh8q7IW5GbV-598" vertex="1">
          <mxGeometry x="20" y="1150" width="120" height="80" as="geometry" />
        </mxCell>
        <mxCell id="mQIjWDaoDwh8q7IW5GbV-672" style="edgeStyle=orthogonalEdgeStyle;rounded=0;orthogonalLoop=1;jettySize=auto;html=1;labelBackgroundColor=none;" parent="mQIjWDaoDwh8q7IW5GbV-598" source="mQIjWDaoDwh8q7IW5GbV-673" target="mQIjWDaoDwh8q7IW5GbV-674" edge="1">
          <mxGeometry relative="1" as="geometry" />
        </mxCell>
        <mxCell id="mQIjWDaoDwh8q7IW5GbV-675" value="&lt;div&gt;POST&lt;/div&gt;&lt;div&gt;(erfolgreiche Anmeldung)&lt;/div&gt;" style="points=[[0.25,0,0],[0.5,0,0],[0.75,0,0],[1,0.25,0],[1,0.5,0],[1,0.75,0],[0.75,1,0],[0.5,1,0],[0.25,1,0],[0,0.75,0],[0,0.5,0],[0,0.25,0]];shape=mxgraph.bpmn.task;whiteSpace=wrap;rectStyle=rounded;size=10;html=1;container=1;expand=0;collapsible=0;taskMarker=send;labelBackgroundColor=none;fillColor=#e1d5e7;strokeColor=#9673a6;" parent="mQIjWDaoDwh8q7IW5GbV-598" vertex="1">
          <mxGeometry x="230" y="1150" width="120" height="80" as="geometry" />
        </mxCell>
        <mxCell id="mQIjWDaoDwh8q7IW5GbV-676" style="edgeStyle=orthogonalEdgeStyle;rounded=0;orthogonalLoop=1;jettySize=auto;html=1;labelBackgroundColor=none;" parent="mQIjWDaoDwh8q7IW5GbV-598" source="mQIjWDaoDwh8q7IW5GbV-674" target="mQIjWDaoDwh8q7IW5GbV-675" edge="1">
          <mxGeometry relative="1" as="geometry" />
        </mxCell>
        <mxCell id="mQIjWDaoDwh8q7IW5GbV-644" value="" style="group;labelBackgroundColor=none;" parent="mQIjWDaoDwh8q7IW5GbV-598" vertex="1" connectable="0">
          <mxGeometry x="-70" y="710" width="145" height="60" as="geometry" />
        </mxCell>
        <mxCell id="mQIjWDaoDwh8q7IW5GbV-645" value="" style="shape=mxgraph.bpmn.data;labelPosition=center;verticalLabelPosition=bottom;align=center;verticalAlign=top;size=15;html=1;labelBackgroundColor=none;fillColor=#ffe6cc;strokeColor=#d79b00;" parent="mQIjWDaoDwh8q7IW5GbV-644" vertex="1">
          <mxGeometry x="-10" width="140" height="60" as="geometry" />
        </mxCell>
        <mxCell id="mQIjWDaoDwh8q7IW5GbV-646" value="AuthN-Cookie" style="text;html=1;align=center;verticalAlign=middle;resizable=0;points=[];autosize=1;strokeColor=none;fillColor=none;fontFamily=Courier New;labelBackgroundColor=none;" parent="mQIjWDaoDwh8q7IW5GbV-644" vertex="1">
          <mxGeometry x="15" y="15" width="110" height="30" as="geometry" />
        </mxCell>
        <mxCell id="73asgCUKssDChl4ccKy--1" style="edgeStyle=orthogonalEdgeStyle;rounded=0;orthogonalLoop=1;jettySize=auto;html=1;entryX=0.5;entryY=0;entryDx=0;entryDy=0;entryPerimeter=0;" parent="mQIjWDaoDwh8q7IW5GbV-598" source="mQIjWDaoDwh8q7IW5GbV-668" target="mQIjWDaoDwh8q7IW5GbV-671" edge="1">
          <mxGeometry relative="1" as="geometry">
            <Array as="points">
              <mxPoint x="275" y="940" />
              <mxPoint x="190" y="940" />
            </Array>
          </mxGeometry>
        </mxCell>
        <mxCell id="zCpky_rUp8ZGlLwJris1-1" value="Benutzer:in &lt;i&gt;war&lt;/i&gt;&lt;br&gt;authentifiziert" style="points=[[0.145,0.145,0],[0.5,0,0],[0.855,0.145,0],[1,0.5,0],[0.855,0.855,0],[0.5,1,0],[0.145,0.855,0],[0,0.5,0]];shape=mxgraph.bpmn.event;html=1;verticalLabelPosition=bottom;labelBackgroundColor=none;verticalAlign=top;align=center;perimeter=ellipsePerimeter;outlineConnect=0;aspect=fixed;outline=standard;symbol=general;fillColor=#ffe6cc;strokeColor=#d79b00;labelPosition=center;" vertex="1" parent="mQIjWDaoDwh8q7IW5GbV-598">
          <mxGeometry x="295" y="1290" width="50" height="50" as="geometry" />
        </mxCell>
        <mxCell id="zCpky_rUp8ZGlLwJris1-2" style="edgeStyle=orthogonalEdgeStyle;rounded=0;orthogonalLoop=1;jettySize=auto;html=1;entryX=0.75;entryY=1;entryDx=0;entryDy=0;entryPerimeter=0;" edge="1" parent="mQIjWDaoDwh8q7IW5GbV-598" source="zCpky_rUp8ZGlLwJris1-1" target="mQIjWDaoDwh8q7IW5GbV-675">
          <mxGeometry relative="1" as="geometry" />
        </mxCell>
        <mxCell id="mQIjWDaoDwh8q7IW5GbV-603" value="" style="endArrow=blockThin;html=1;labelPosition=left;verticalLabelPosition=middle;align=right;verticalAlign=middle;dashed=1;dashPattern=8 4;endFill=0;startArrow=oval;startFill=0;endSize=6;startSize=4;rounded=0;exitX=1;exitY=0.5;exitDx=0;exitDy=0;exitPerimeter=0;" parent="1" source="mQIjWDaoDwh8q7IW5GbV-600" target="mQIjWDaoDwh8q7IW5GbV-602" edge="1">
          <mxGeometry relative="1" as="geometry">
            <mxPoint x="2010" y="-1920.83" as="sourcePoint" />
            <mxPoint x="2170" y="-1920.83" as="targetPoint" />
          </mxGeometry>
        </mxCell>
        <mxCell id="mQIjWDaoDwh8q7IW5GbV-604" value="" style="shape=message;html=1;outlineConnect=0;labelPosition=left;verticalLabelPosition=middle;align=right;verticalAlign=middle;spacingRight=5;labelBackgroundColor=#ffffff;fillColor=#d5e8d4;strokeColor=#82b366;" parent="mQIjWDaoDwh8q7IW5GbV-603" vertex="1">
          <mxGeometry width="24" height="16" relative="1" as="geometry">
            <mxPoint x="-12" y="-25" as="offset" />
          </mxGeometry>
        </mxCell>
        <mxCell id="mQIjWDaoDwh8q7IW5GbV-638" value="" style="endArrow=blockThin;html=1;labelPosition=left;verticalLabelPosition=middle;align=right;verticalAlign=middle;dashed=1;dashPattern=8 4;endFill=0;startArrow=oval;startFill=0;endSize=6;startSize=4;rounded=0;exitX=0;exitY=0.5;exitDx=0;exitDy=0;exitPerimeter=0;entryX=1;entryY=0.5;entryDx=0;entryDy=0;entryPerimeter=0;" parent="1" source="mQIjWDaoDwh8q7IW5GbV-628" target="mQIjWDaoDwh8q7IW5GbV-633" edge="1">
          <mxGeometry relative="1" as="geometry">
            <mxPoint x="1990" y="-1539" as="sourcePoint" />
            <mxPoint x="2150" y="-1539" as="targetPoint" />
          </mxGeometry>
        </mxCell>
        <mxCell id="mQIjWDaoDwh8q7IW5GbV-639" value="" style="shape=message;html=1;outlineConnect=0;labelPosition=left;verticalLabelPosition=middle;align=right;verticalAlign=middle;spacingRight=5;labelBackgroundColor=#ffffff;fillColor=#e1d5e7;strokeColor=#9673a6;" parent="mQIjWDaoDwh8q7IW5GbV-638" vertex="1">
          <mxGeometry width="24" height="16" relative="1" as="geometry">
            <mxPoint x="6" y="-25" as="offset" />
          </mxGeometry>
        </mxCell>
        <mxCell id="mQIjWDaoDwh8q7IW5GbV-661" value="" style="endArrow=blockThin;html=1;labelPosition=left;verticalLabelPosition=middle;align=right;verticalAlign=middle;dashed=1;dashPattern=8 4;endFill=0;startArrow=oval;startFill=0;endSize=6;startSize=4;rounded=0;exitX=0;exitY=0.5;exitDx=0;exitDy=0;exitPerimeter=0;entryX=1;entryY=0.5;entryDx=0;entryDy=0;entryPerimeter=0;" parent="1" source="mQIjWDaoDwh8q7IW5GbV-640" target="mQIjWDaoDwh8q7IW5GbV-651" edge="1">
          <mxGeometry relative="1" as="geometry">
            <mxPoint x="2450" y="-1419" as="sourcePoint" />
            <mxPoint x="2610" y="-1419" as="targetPoint" />
          </mxGeometry>
        </mxCell>
        <mxCell id="mQIjWDaoDwh8q7IW5GbV-662" value="" style="shape=message;html=1;outlineConnect=0;labelPosition=left;verticalLabelPosition=middle;align=right;verticalAlign=middle;spacingRight=5;labelBackgroundColor=#ffffff;fillColor=#ffe6cc;strokeColor=#d79b00;" parent="mQIjWDaoDwh8q7IW5GbV-661" vertex="1">
          <mxGeometry width="24" height="16" relative="1" as="geometry">
            <mxPoint x="221" y="-25" as="offset" />
          </mxGeometry>
        </mxCell>
        <mxCell id="mQIjWDaoDwh8q7IW5GbV-664" value="" style="edgeStyle=elbowEdgeStyle;fontSize=12;html=1;endFill=0;startFill=0;endSize=6;startSize=6;dashed=1;dashPattern=1 4;endArrow=none;startArrow=none;rounded=0;exitX=0;exitY=0;exitDx=62.5;exitDy=0;exitPerimeter=0;" parent="1" source="mQIjWDaoDwh8q7IW5GbV-645" edge="1">
          <mxGeometry width="160" relative="1" as="geometry">
            <mxPoint x="2300" y="-1490" as="sourcePoint" />
            <mxPoint x="2410" y="-1510" as="targetPoint" />
            <Array as="points">
              <mxPoint x="2410" y="-1480" />
            </Array>
          </mxGeometry>
        </mxCell>
        <mxCell id="mQIjWDaoDwh8q7IW5GbV-683" value="" style="endArrow=blockThin;html=1;labelPosition=left;verticalLabelPosition=middle;align=right;verticalAlign=middle;dashed=1;dashPattern=8 4;endFill=0;startArrow=oval;startFill=0;endSize=6;startSize=4;rounded=0;exitX=1;exitY=0.5;exitDx=0;exitDy=0;exitPerimeter=0;entryX=0;entryY=0.5;entryDx=0;entryDy=0;entryPerimeter=0;" parent="1" source="mQIjWDaoDwh8q7IW5GbV-653" target="mQIjWDaoDwh8q7IW5GbV-666" edge="1">
          <mxGeometry relative="1" as="geometry">
            <mxPoint x="2340" y="-1179" as="sourcePoint" />
            <mxPoint x="2500" y="-1179" as="targetPoint" />
          </mxGeometry>
        </mxCell>
        <mxCell id="mQIjWDaoDwh8q7IW5GbV-684" value="" style="shape=message;html=1;outlineConnect=0;labelPosition=left;verticalLabelPosition=middle;align=right;verticalAlign=middle;spacingRight=5;labelBackgroundColor=#ffffff;fillColor=#e1d5e7;strokeColor=#9673a6;" parent="mQIjWDaoDwh8q7IW5GbV-683" vertex="1">
          <mxGeometry width="24" height="16" relative="1" as="geometry">
            <mxPoint x="-235" y="-25" as="offset" />
          </mxGeometry>
        </mxCell>
        <mxCell id="mQIjWDaoDwh8q7IW5GbV-696" value="" style="endArrow=blockThin;html=1;labelPosition=left;verticalLabelPosition=middle;align=right;verticalAlign=middle;dashed=1;dashPattern=8 4;endFill=0;startArrow=oval;startFill=0;endSize=6;startSize=4;rounded=0;entryX=1;entryY=0.5;entryDx=0;entryDy=0;entryPerimeter=0;exitX=0.25;exitY=1;exitDx=0;exitDy=0;exitPerimeter=0;" parent="1" source="mQIjWDaoDwh8q7IW5GbV-675" target="mQIjWDaoDwh8q7IW5GbV-693" edge="1">
          <mxGeometry relative="1" as="geometry">
            <mxPoint x="2721" y="-930" as="sourcePoint" />
            <mxPoint x="2650" y="-919" as="targetPoint" />
            <Array as="points">
              <mxPoint x="2690" y="-900" />
            </Array>
          </mxGeometry>
        </mxCell>
        <mxCell id="mQIjWDaoDwh8q7IW5GbV-697" value="" style="shape=message;html=1;outlineConnect=0;labelPosition=left;verticalLabelPosition=middle;align=right;verticalAlign=middle;spacingRight=5;labelBackgroundColor=#ffffff;fillColor=#e1d5e7;strokeColor=#9673a6;" parent="mQIjWDaoDwh8q7IW5GbV-696" vertex="1">
          <mxGeometry width="24" height="16" relative="1" as="geometry">
            <mxPoint x="-139" y="-25" as="offset" />
          </mxGeometry>
        </mxCell>
        <mxCell id="mQIjWDaoDwh8q7IW5GbV-656" value="" style="group;labelBackgroundColor=none;" parent="1" vertex="1" connectable="0">
          <mxGeometry x="2440" y="-879" width="140" height="60" as="geometry" />
        </mxCell>
        <mxCell id="mQIjWDaoDwh8q7IW5GbV-657" value="" style="shape=mxgraph.bpmn.data;labelPosition=center;verticalLabelPosition=bottom;align=center;verticalAlign=top;size=15;html=1;labelBackgroundColor=none;fillColor=#e1d5e7;strokeColor=#9673a6;" parent="mQIjWDaoDwh8q7IW5GbV-656" vertex="1">
          <mxGeometry width="140" height="60" as="geometry" />
        </mxCell>
        <mxCell id="mQIjWDaoDwh8q7IW5GbV-658" value="&lt;div&gt;Anmeldedaten&lt;/div&gt;&lt;div&gt;AuthN-Cookie&lt;br&gt;&lt;/div&gt;" style="text;html=1;align=center;verticalAlign=middle;resizable=0;points=[];autosize=1;strokeColor=none;fillColor=none;fontFamily=Courier New;labelBackgroundColor=none;" parent="mQIjWDaoDwh8q7IW5GbV-656" vertex="1">
          <mxGeometry x="15" y="10" width="110" height="40" as="geometry" />
        </mxCell>
        <mxCell id="mQIjWDaoDwh8q7IW5GbV-698" value="" style="edgeStyle=elbowEdgeStyle;fontSize=12;html=1;endFill=0;startFill=0;endSize=6;startSize=6;dashed=1;dashPattern=1 4;endArrow=none;startArrow=none;rounded=0;exitX=0.5;exitY=0;exitDx=0;exitDy=0;exitPerimeter=0;" parent="1" source="mQIjWDaoDwh8q7IW5GbV-657" edge="1">
          <mxGeometry width="160" relative="1" as="geometry">
            <mxPoint x="2420" y="-799" as="sourcePoint" />
            <mxPoint x="2510" y="-900" as="targetPoint" />
          </mxGeometry>
        </mxCell>
        <mxCell id="mQIjWDaoDwh8q7IW5GbV-700" value="" style="endArrow=blockThin;html=1;labelPosition=left;verticalLabelPosition=middle;align=right;verticalAlign=middle;dashed=1;dashPattern=8 4;endFill=0;startArrow=oval;startFill=0;endSize=6;startSize=4;rounded=0;exitX=0;exitY=0.5;exitDx=0;exitDy=0;exitPerimeter=0;entryX=1;entryY=0.5;entryDx=0;entryDy=0;entryPerimeter=0;" parent="1" source="mQIjWDaoDwh8q7IW5GbV-689" target="mQIjWDaoDwh8q7IW5GbV-699" edge="1">
          <mxGeometry relative="1" as="geometry">
            <mxPoint x="1990" y="-850" as="sourcePoint" />
            <mxPoint x="2150" y="-850" as="targetPoint" />
          </mxGeometry>
        </mxCell>
        <mxCell id="mQIjWDaoDwh8q7IW5GbV-701" value="" style="shape=message;html=1;outlineConnect=0;labelPosition=left;verticalLabelPosition=middle;align=right;verticalAlign=middle;spacingRight=5;labelBackgroundColor=#ffffff;fillColor=#e1d5e7;strokeColor=#9673a6;" parent="mQIjWDaoDwh8q7IW5GbV-700" vertex="1">
          <mxGeometry width="24" height="16" relative="1" as="geometry">
            <mxPoint x="6" y="9" as="offset" />
          </mxGeometry>
        </mxCell>
        <mxCell id="mQIjWDaoDwh8q7IW5GbV-705" value="" style="group" parent="1" vertex="1" connectable="0">
          <mxGeometry x="1910" y="-1130" width="186.25" height="60" as="geometry" />
        </mxCell>
        <mxCell id="mQIjWDaoDwh8q7IW5GbV-691" value="" style="shape=mxgraph.bpmn.data;labelPosition=center;verticalLabelPosition=bottom;align=center;verticalAlign=top;size=15;html=1;labelBackgroundColor=none;fillColor=#e1d5e7;strokeColor=#9673a6;" parent="mQIjWDaoDwh8q7IW5GbV-705" vertex="1">
          <mxGeometry width="186.25" height="60" as="geometry" />
        </mxCell>
        <mxCell id="mQIjWDaoDwh8q7IW5GbV-692" value="&lt;div&gt;Set-Cookie shibstate&lt;/div&gt;&lt;div&gt;Set-Cookie shibsession&lt;/div&gt;&lt;div&gt;Location&lt;br&gt;&lt;/div&gt;" style="text;html=1;align=center;verticalAlign=middle;resizable=0;points=[];autosize=1;strokeColor=none;fillColor=none;fontFamily=Courier New;labelBackgroundColor=none;" parent="mQIjWDaoDwh8q7IW5GbV-705" vertex="1">
          <mxGeometry x="3.1299999999999955" width="180" height="60" as="geometry" />
        </mxCell>
        <mxCell id="mQIjWDaoDwh8q7IW5GbV-706" value="" style="edgeStyle=elbowEdgeStyle;fontSize=12;html=1;endFill=0;startFill=0;endSize=6;startSize=6;dashed=1;dashPattern=1 4;endArrow=none;startArrow=none;rounded=0;exitX=0.483;exitY=1.038;exitDx=0;exitDy=0;exitPerimeter=0;" parent="1" source="mQIjWDaoDwh8q7IW5GbV-692" edge="1">
          <mxGeometry width="160" relative="1" as="geometry">
            <mxPoint x="2000" y="-1130" as="sourcePoint" />
            <mxPoint x="2000" y="-1020" as="targetPoint" />
          </mxGeometry>
        </mxCell>
        <mxCell id="mQIjWDaoDwh8q7IW5GbV-711" value="" style="edgeStyle=elbowEdgeStyle;fontSize=12;html=1;endFill=0;startFill=0;endSize=6;startSize=6;dashed=1;dashPattern=1 4;endArrow=none;startArrow=none;rounded=0;exitX=0.5;exitY=0;exitDx=0;exitDy=0;exitPerimeter=0;" parent="1" source="mQIjWDaoDwh8q7IW5GbV-709" edge="1">
          <mxGeometry width="160" relative="1" as="geometry">
            <mxPoint x="2140" y="-1210" as="sourcePoint" />
            <mxPoint x="2000" y="-1290" as="targetPoint" />
          </mxGeometry>
        </mxCell>
        <mxCell id="mQIjWDaoDwh8q7IW5GbV-708" value="" style="group;labelBackgroundColor=none;" parent="1" vertex="1" connectable="0">
          <mxGeometry x="1930" y="-1240" width="140" height="60" as="geometry" />
        </mxCell>
        <mxCell id="mQIjWDaoDwh8q7IW5GbV-709" value="" style="shape=mxgraph.bpmn.data;labelPosition=center;verticalLabelPosition=bottom;align=center;verticalAlign=top;size=15;html=1;labelBackgroundColor=none;fillColor=#e1d5e7;strokeColor=#9673a6;" parent="mQIjWDaoDwh8q7IW5GbV-708" vertex="1">
          <mxGeometry width="140" height="60" as="geometry" />
        </mxCell>
        <mxCell id="mQIjWDaoDwh8q7IW5GbV-710" value="&lt;div&gt;Anmeldedaten&lt;/div&gt;&lt;div&gt;AuthN-Cookie&lt;br&gt;&lt;/div&gt;" style="text;html=1;align=center;verticalAlign=middle;resizable=0;points=[];autosize=1;strokeColor=none;fillColor=none;fontFamily=Courier New;labelBackgroundColor=none;" parent="mQIjWDaoDwh8q7IW5GbV-708" vertex="1">
          <mxGeometry x="15" y="10" width="110" height="40" as="geometry" />
        </mxCell>
        <mxCell id="mQIjWDaoDwh8q7IW5GbV-713" value="" style="group;labelBackgroundColor=none;" parent="1" vertex="1" connectable="0">
          <mxGeometry x="590" y="-1779" width="140" height="60" as="geometry" />
        </mxCell>
        <mxCell id="mQIjWDaoDwh8q7IW5GbV-714" value="" style="shape=mxgraph.bpmn.data;labelPosition=center;verticalLabelPosition=bottom;align=center;verticalAlign=top;size=15;html=1;labelBackgroundColor=none;fillColor=#ffe6cc;strokeColor=#d79b00;" parent="mQIjWDaoDwh8q7IW5GbV-713" vertex="1">
          <mxGeometry width="140" height="60" as="geometry" />
        </mxCell>
        <mxCell id="mQIjWDaoDwh8q7IW5GbV-715" value="&lt;div&gt;RelayState&lt;/div&gt;&lt;div&gt;SAMLRequest&lt;br&gt;&lt;/div&gt;" style="text;html=1;align=center;verticalAlign=middle;resizable=0;points=[];autosize=1;strokeColor=none;fillColor=none;fontFamily=Courier New;labelBackgroundColor=none;" parent="mQIjWDaoDwh8q7IW5GbV-713" vertex="1">
          <mxGeometry x="20" y="10" width="100" height="40" as="geometry" />
        </mxCell>
        <mxCell id="mQIjWDaoDwh8q7IW5GbV-719" value="" style="edgeStyle=elbowEdgeStyle;fontSize=12;html=1;endFill=0;startFill=0;endSize=6;startSize=6;dashed=1;dashPattern=1 4;endArrow=none;startArrow=none;rounded=0;exitX=0;exitY=0.5;exitDx=0;exitDy=0;exitPerimeter=0;" parent="1" source="mQIjWDaoDwh8q7IW5GbV-234" edge="1">
          <mxGeometry width="160" relative="1" as="geometry">
            <mxPoint x="920" y="-2530" as="sourcePoint" />
            <mxPoint x="1060" y="-2460" as="targetPoint" />
          </mxGeometry>
        </mxCell>
        <mxCell id="mQIjWDaoDwh8q7IW5GbV-219" value="" style="group;labelBackgroundColor=none;" parent="1" vertex="1" connectable="0">
          <mxGeometry x="990" y="-2920" width="140" height="65" as="geometry" />
        </mxCell>
        <mxCell id="mQIjWDaoDwh8q7IW5GbV-220" value="" style="shape=mxgraph.bpmn.data;labelPosition=center;verticalLabelPosition=bottom;align=center;verticalAlign=top;size=15;html=1;labelBackgroundColor=none;fillColor=#d5e8d4;strokeColor=#82b366;" parent="mQIjWDaoDwh8q7IW5GbV-219" vertex="1">
          <mxGeometry width="140" height="60" as="geometry" />
        </mxCell>
        <mxCell id="mQIjWDaoDwh8q7IW5GbV-221" value="&lt;div&gt;entityID&lt;/div&gt;&lt;div&gt;Return-URL&lt;/div&gt;&lt;div&gt;Auth.-Protokoll&lt;/div&gt;&lt;div&gt;Target&lt;br&gt;&lt;/div&gt;" style="text;html=1;align=center;verticalAlign=middle;resizable=0;points=[];autosize=1;strokeColor=none;fillColor=none;fontFamily=Courier New;labelBackgroundColor=none;" parent="mQIjWDaoDwh8q7IW5GbV-219" vertex="1">
          <mxGeometry x="5" y="-5" width="130" height="70" as="geometry" />
        </mxCell>
      </root>
    </mxGraphModel>
  </diagram>
</mxfile>
